<svg xmlns="http://www.w3.org/2000/svg" fill="none" viewBox="0 0 84 84">
  <path fill="#FAC8BE" d="M50.86 70.487c1.485 1.078 2.429 2.832 2.429 4.854 0 3.238-2.699 5.936-5.935 5.936a6.27 6.27 0 0 1-3.103-.809c-1.753-1.08-2.833-2.968-2.833-4.992 0-3.236 2.699-5.933 5.936-5.933a5.12 5.12 0 0 1 3.507.944M13.23 24.359a5.6 5.6 0 0 1 2.158-.406c3.237 0 5.935 2.698 5.935 5.935 0 2.157-1.215 4.181-3.103 5.125a6.7 6.7 0 0 1-2.832.675c-3.238 0-5.935-2.697-5.935-5.936.135-2.427 1.619-4.585 3.778-5.393m54.488-3.777c-3.238 0-5.934-2.698-5.934-5.935 0-.27 0-.675.134-.944.405-2.833 2.833-4.856 5.8-4.856 3.238 0 5.934 2.697 5.934 5.935 0 2.158-1.213 4.18-2.967 5.125-.944.27-1.888.674-2.968.674"/>
  <path fill="#FF3F3F" fill-rule="evenodd" d="M40 41.333a1.667 1.667 0 1 0 3.333 0v-6.666a1.667 1.667 0 1 0-3.333 0zM40 48a1.667 1.667 0 1 1 3.333 0A1.667 1.667 0 0 1 40 48" clip-rule="evenodd"/>
  <path fill="#F24848" d="M64.349 73.184c-3.507 0-7.959-1.484-13.219-4.316-3.372-1.89-7.013-4.181-10.52-7.013a115 115 0 0 1-9.712-8.632c-1.35-1.35-2.697-2.699-3.912-4.048-1.619-1.888-3.236-3.776-4.72-5.664-2.022-2.563-3.777-5.126-5.396-7.688-.539-.81-.27-1.888.541-2.294.808-.538 1.888-.269 2.292.54 1.484 2.428 3.238 4.855 5.126 7.283a87 87 0 0 0 4.586 5.396c1.214 1.348 2.427 2.697 3.776 3.91 3.103 3.103 6.204 5.8 9.442 8.364 3.506 2.698 6.878 4.99 10.116 6.743 7.148 3.912 12.948 4.991 15.106 2.832 2.832-2.832.54-12.408-9.577-25.22a88 88 0 0 0-4.585-5.397c-1.215-1.348-2.428-2.697-3.776-3.91-3.103-3.103-6.206-5.8-9.443-8.363-3.505-2.698-6.879-4.99-10.115-6.744-7.149-3.91-12.948-4.99-15.108-2.832-1.348 1.348-1.482 4.045-.402 7.688.27.944-.27 1.888-1.215 2.022-.944.27-1.888-.269-2.024-1.213-1.752-6.205-.27-9.307 1.35-10.925 3.507-3.508 10.25-2.699 19.153 2.158 3.37 1.888 7.013 4.18 10.52 7.014 3.236 2.562 6.61 5.53 9.712 8.632 1.348 1.35 2.562 2.697 3.91 4.046 1.62 1.888 3.238 3.776 4.72 5.664 4.856 6.07 8.229 12.006 10.116 17.13 2.563 7.15.944 10.79-.808 12.544-1.484 1.618-3.508 2.293-5.934 2.293"/>
  <path fill="#F24848" d="M15.385 25.572c-.538 0-1.08.135-1.484.27-1.618.674-2.697 2.158-2.697 3.911 0 2.292 1.888 4.182 4.181 4.182.675 0 1.35-.135 2.024-.54 1.348-.81 2.158-2.159 2.158-3.643.134-2.292-1.888-4.18-4.182-4.18m0 11.87a7.54 7.54 0 0 1-7.553-7.554c0-3.103 1.888-5.935 4.856-7.013.944-.406 1.753-.54 2.832-.54a7.54 7.54 0 0 1 7.553 7.553c0 2.697-1.484 5.26-3.912 6.61-1.213.538-2.426.943-3.776.943m3.373 35.743c-2.428 0-4.452-.675-5.8-2.157-1.753-1.755-3.372-5.396-.81-12.544 1.754-5.126 5.262-11.061 10.117-17.13 1.484-1.889 3.101-3.777 4.72-5.665 1.215-1.35 2.563-2.697 3.912-4.047 3.102-3.102 6.34-6.069 9.712-8.632 3.641-2.833 7.148-5.26 10.52-7.013q5.867-3.239 10.52-4.046c.944-.136 1.754.403 1.888 1.347.136.946-.403 1.755-1.347 1.89-2.698.404-5.936 1.753-9.442 3.641-3.238 1.753-6.61 4.047-10.116 6.744-3.238 2.428-6.34 5.26-9.442 8.363-1.35 1.348-2.562 2.562-3.776 3.91-1.619 1.754-3.104 3.643-4.587 5.396-9.98 12.814-12.409 22.39-9.577 25.222 2.16 2.158 7.959 1.08 15.108-2.832 3.236-1.754 6.61-4.047 10.115-6.744 3.237-2.563 6.34-5.26 9.443-8.363 1.213-1.213 2.56-2.563 3.776-3.912 1.617-1.752 3.237-3.64 4.585-5.395 6.61-8.497 10.656-16.589 10.656-21.716 0-.944.81-1.617 1.618-1.617.945 0 1.62.81 1.62 1.753 0 5.935-4.182 14.567-11.33 23.74-1.484 1.887-3.103 3.775-4.721 5.663-1.214 1.35-2.563 2.699-3.912 4.047-3.102 3.102-6.34 6.07-9.711 8.633-3.642 2.832-7.148 5.259-10.522 7.013-5.124 2.967-9.71 4.451-13.217 4.451"/>
  <path fill="#F24848" d="M67.72 10.466c-2.023 0-3.776 1.484-4.181 3.506v.675c0 2.293 1.889 4.181 4.181 4.181.675 0 1.484-.134 2.024-.54 1.348-.81 2.159-2.157 2.159-3.641 0-2.293-1.888-4.181-4.183-4.181m0 11.734a7.54 7.54 0 0 1-7.552-7.553c0-.404 0-.81.135-1.213.673-3.643 3.777-6.34 7.417-6.34a7.54 7.54 0 0 1 7.553 7.553c0 2.697-1.482 5.26-3.91 6.61-1.079.538-2.428.943-3.643.943M41.555 82.895c-4.856 0-9.172-5.395-12.005-15.107-1.619-5.664-2.696-12.542-3.102-19.826-.136-1.888-.136-3.776-.136-5.664 0-1.89 0-3.778.136-5.666.406-7.284 1.483-14.162 3.102-19.826C32.383 7.094 36.7 1.698 41.555 1.698s9.172 5.396 12.004 15.108c1.619 5.664 2.698 12.542 3.102 19.826.136 1.888.136 3.776.136 5.666 0 1.888 0 3.776-.136 5.664-.404 7.284-1.483 14.162-3.102 19.826-.27 1.08-.674 2.159-1.08 3.239-.27.808-1.348 1.348-2.157.944-.81-.27-1.348-1.35-.944-2.159.404-.944.675-2.024.944-2.968 1.618-5.394 2.563-12.004 2.968-19.017.133-1.753.133-3.641.133-5.395s0-3.642-.133-5.396c-.405-7.013-1.35-13.622-2.968-19.017C48.03 10.195 44.656 5.34 41.555 5.34c-3.102 0-6.474 4.855-8.766 12.679-1.62 5.395-2.565 12.004-2.969 19.017-.134 1.754-.134 3.643-.134 5.396s0 3.642.134 5.395c.404 7.013 1.349 13.623 2.968 19.017 2.293 7.823 5.665 12.68 8.767 12.68.675 0 1.348-.136 1.888-.674.81-.54 1.888-.271 2.294.538.538.81.269 1.89-.54 2.294a6.2 6.2 0 0 1-3.642 1.213"/>
  <path fill="#F24848" d="M47.486 71.162c-2.292 0-4.182 1.888-4.182 4.18 0 1.484.811 2.833 2.024 3.642.675.404 1.35.675 2.158.675 2.293 0 4.182-1.89 4.182-4.183 0-1.348-.674-2.697-1.753-3.37-.81-.81-1.619-.944-2.43-.944m0 11.733c-1.348 0-2.696-.404-3.911-1.079-2.293-1.348-3.641-3.776-3.641-6.474a7.54 7.54 0 0 1 7.552-7.554c1.62 0 3.102.54 4.317 1.35 2.023 1.484 3.236 3.777 3.236 6.204a7.54 7.54 0 0 1-7.553 7.553"/>
</svg>
