<svg xmlns="http://www.w3.org/2000/svg" fill="none" viewBox="0 0 16 16">
  <path fill="#3ABD77" fill-rule="evenodd" d="M2 4.334v7.167c0 1.196.987 2.166 2.183 2.166 1.179 0 2.15-.955 2.15-2.133 0-.295.24-.533.534-.533h5.8V4.334a3 3 0 0 0-3-3H5a3 3 0 0 0-3 3m7.663.624a.5.5 0 0 1 .047.705L7.796 7.85c-.41.47-1.119.533-1.606.143l-1.17-.935a.5.5 0 1 1 .625-.781l1.168.935c.07.055.171.046.23-.02l1.913-2.187a.5.5 0 0 1 .706-.047m5.588 7.703a2.67 2.67 0 0 1-2.584 2.006h-8c1.245 0 2.29-.853 2.584-2.006.09-.357.38-.66.749-.66h6.667c.368 0 .675.303.584.66" clip-rule="evenodd"/>
</svg>
