<svg xmlns="http://www.w3.org/2000/svg" fill="none" viewBox="0 0 18 18">
  <path fill="currentColor" fill-rule="evenodd" d="M9.008.667C4.396.667.668 4.422.668 9.069a8.395 8.395 0 0 0 5.703 7.97c.414.084.566-.18.566-.403 0-.194-.014-.862-.014-1.558-2.32.501-2.803-1.001-2.803-1.001-.373-.974-.925-1.224-.925-1.224-.76-.515.055-.515.055-.515.842.056 1.284.862 1.284.862.746 1.28 1.947.918 2.43.696.07-.543.29-.918.525-1.127-1.85-.195-3.797-.918-3.797-4.145 0-.918.331-1.67.856-2.254-.083-.208-.373-1.071.083-2.226 0 0 .704-.222 2.292.863a8 8 0 0 1 2.085-.278c.704 0 1.422.097 2.085.278 1.588-1.085 2.292-.863 2.292-.863.456 1.155.166 2.018.083 2.226.539.584.856 1.336.856 2.254 0 3.227-1.947 3.936-3.81 4.145.303.264.565.765.565 1.558 0 1.127-.013 2.031-.013 2.31 0 .222.152.486.566.403a8.4 8.4 0 0 0 5.703-7.971C17.348 4.422 13.606.667 9.008.667" clip-rule="evenodd"/>
</svg>
