<svg xmlns="http://www.w3.org/2000/svg" viewBox="0 0 105 100">
  <path d="M91.84 35a.09.09 0 0 1-.1-.07 41 41 0 0 0-79.48 0 .09.09 0 0 1-.1.07C9.45 35 1 35.35 1 42.53c0 8.56 1 16 6 20.32 2.16 1.85 5.81 2.3 9.27 2.22a44.4 44.4 0 0 0 6.45-.68.09.09 0 0 0 .06-.15A34.8 34.8 0 0 1 17 45v-.31a35 35 0 0 1 70 0V45a34.8 34.8 0 0 1-5.78 19.24.09.09 0 0 0 .06.15 44.4 44.4 0 0 0 6.45.68c3.46.08 7.11-.37 9.27-2.22 5-4.27 6-11.76 6-20.32 0-7.18-8.45-7.53-11.16-7.53M52 74l-26.6-8.87a.1.1 0 0 0-.1.17l26.63 26.63a.1.1 0 0 0 .14 0L78.7 65.3a.1.1 0 0 0-.1-.17z"/>
  <path d="M75.68 46.9 82 45a.09.09 0 0 0 .08-.09 30 30 0 0 0-.87-6.94.11.11 0 0 0-.09-.08l-6.43-.58a.1.1 0 0 1-.06-.18l4.78-4.18a.13.13 0 0 0 0-.12 30.2 30.2 0 0 0-3.65-6.07.09.09 0 0 0-.11 0l-5.91 2a.1.1 0 0 1-.12-.14L72.19 23a.11.11 0 0 0 0-.12 30 30 0 0 0-5.84-4.13.09.09 0 0 0-.11 0l-4.47 4.13a.1.1 0 0 1-.17-.07l.09-6a.1.1 0 0 0-.07-.1 30.5 30.5 0 0 0-7-1.47.1.1 0 0 0-.1.07l-2.38 5.54a.1.1 0 0 1-.18 0l-2.37-5.54a.11.11 0 0 0-.11-.06 30 30 0 0 0-7 1.48.12.12 0 0 0-.07.1l.08 6.05a.09.09 0 0 1-.16.07l-4.53-4.19a.11.11 0 0 0-.12 0 29.8 29.8 0 0 0-5.83 4.13.11.11 0 0 0 0 .12l2.59 5.6a.11.11 0 0 1-.13.14l-5.9-2a.11.11 0 0 0-.12 0 30.2 30.2 0 0 0-3.62 6.08.11.11 0 0 0 0 .12l4.79 4.19a.1.1 0 0 1-.06.17l-6.4.6a.1.1 0 0 0-.09.07 30 30 0 0 0-.91 6.94.1.1 0 0 0 .07.1L28.4 47a.1.1 0 0 1 0 .18l-5.84 3.26a.16.16 0 0 0 0 .11 30.2 30.2 0 0 0 2.1 6.76c.32.71.67 1.4 1 2.08a.1.1 0 0 0 .06 0L52 68.16l26.34-8.78a.1.1 0 0 0 .06-.05 30.5 30.5 0 0 0 3.11-8.88.1.1 0 0 0-.05-.11l-5.83-3.26a.1.1 0 0 1 .05-.18"/>
</svg>
