<svg xmlns="http://www.w3.org/2000/svg" fill="none" class="mdl-js" data-locator-target="vscode" viewBox="0 0 232 233">
  <script/>
  <path fill="url(#a)" fill-rule="evenodd" d="M115.418 232.706c33.984 0 64.556-14.651 85.776-37.998l-5.646-6.249c-6.988-7.733-18.9-8.394-26.7-1.481l-12.045 10.675c-16.386 14.523-41.292 13.607-56.568-2.08l-7.531-7.734c-7.232-7.427-19.083-7.685-26.633-.581l-22.09 20.786c19.694 15.452 44.493 24.662 71.437 24.662m96.453-58.997 2.742 3.035c10.681-17.605 16.833-38.277 16.833-60.391 0-26.814-9.045-51.51-24.243-71.186a18.9 18.9 0 0 0-7.857 4.182l-12.044 10.675c-16.386 14.523-41.292 13.608-56.568-2.08l-7.531-7.733c-7.233-7.427-19.083-7.686-26.633-.582l-30.99 29.16-15.076-16.022 30.99-29.16c16.291-15.33 41.864-14.771 57.47 1.255l7.531 7.734c7.08 7.27 18.621 7.694 26.215.964l12.044-10.675a41.2 41.2 0 0 1 6.415-4.67C170.842 10.634 144.368 0 115.418 0 57.211 0 9.015 42.98.668 99.02c15.884-9.169 36.507-6.772 49.848 6.928l8.71 8.944c6.77 6.953 17.69 7.686 25.33 1.701l25.819-20.228c15.497-12.14 37.436-11.553 52.261 1.4l35.157 30.716-14.474 16.567-35.158-30.716a19 19 0 0 0-24.218-.648l-25.82 20.228c-16.484 12.914-40.05 11.331-54.659-3.671l-8.71-8.944c-7.232-7.427-19.082-7.686-26.632-.582L0 128.357c2.512 24.576 12.651 46.886 28.005 64.511l22.99-21.633c16.292-15.329 41.864-14.771 57.47 1.256l7.532 7.734c7.079 7.269 18.621 7.694 26.214.964l12.045-10.675c16.831-14.918 42.537-13.492 57.615 3.195" clip-rule="evenodd"/>
  <defs>
    <linearGradient id="a" x1="115.723" x2="161.699" y1="0" y2="232.612" gradientUnits="userSpaceOnUse">
      <stop stop-color="#780000"/>
      <stop offset="1" stop-color="#C1121F"/>
    </linearGradient>
  </defs>
  <script/>
</svg>
