<svg xmlns="http://www.w3.org/2000/svg" fill="none" viewBox="0 0 16 16">
    <path fill="currentColor" fill-rule="evenodd" d="M4.667 1.333A.667.667 0 0 0 4 2v.667H2.815c-.818 0-1.482.663-1.482 1.481A4.741 4.741 0 0 0 3.955 8.39l.59.296a4.003 4.003 0 0 0 2.79 1.927.673.673 0 0 0-.002.055v2.667H6a.667.667 0 0 0 0 1.333h4a.667.667 0 1 0 0-1.333H8.667v-2.667c0-.019 0-.037-.002-.055a4.003 4.003 0 0 0 2.79-1.927l.59-.296a4.742 4.742 0 0 0 2.622-4.24c0-.819-.663-1.482-1.482-1.482H12V2a.667.667 0 0 0-.666-.667H4.667Zm-.662 5.523A4.055 4.055 0 0 1 4 6.666V4H2.815a.148.148 0 0 0-.148.148c0 1.074.504 2.07 1.338 2.708Zm9.329-2.708c0 1.074-.505 2.07-1.338 2.708.003-.063.004-.126.004-.19V4h1.185a.15.15 0 0 1 .149.148Z" clip-rule="evenodd"/>
</svg>