<svg width="16" height="16" viewBox="0 0 16 16" fill="none" xmlns="http://www.w3.org/2000/svg">
    <path
        d="M16 8C16 12.4183 12.4183 16 8 16C3.58172 16 0 12.4183 0 8C0 3.58172 3.58172 0 8 0C12.4183 0 16 3.58172 16 8Z"
        fill="white" />
    <path fill-rule="evenodd" clip-rule="evenodd"
        d="M8 14.6667C11.6819 14.6667 14.6667 11.6819 14.6667 8C14.6667 4.3181 11.6819 1.33333 8 1.33333C4.3181 1.33333 1.33333 4.3181 1.33333 8C1.33333 11.6819 4.3181 14.6667 8 14.6667ZM8 16C12.4183 16 16 12.4183 16 8C16 3.58172 12.4183 0 8 0C3.58172 0 0 3.58172 0 8C0 12.4183 3.58172 16 8 16Z"
        fill="#8F8F8F" />
    <path
        d="M7.81736 12.1346C7.74625 12.1346 7.68581 12.1097 7.63603 12.06C7.58625 12.0102 7.56136 11.9497 7.56136 11.8786V5.97997H5.58803C5.51692 5.97997 5.45648 5.95508 5.4067 5.9053C5.35692 5.85552 5.33203 5.79508 5.33203 5.72397V4.93464C5.33203 4.85641 5.35692 4.79241 5.4067 4.74264C5.45648 4.69286 5.51692 4.66797 5.58803 4.66797H11.028C11.1063 4.66797 11.1703 4.69286 11.22 4.74264C11.2698 4.79241 11.2947 4.85641 11.2947 4.93464V5.72397C11.2947 5.79508 11.2698 5.85552 11.22 5.9053C11.1703 5.95508 11.1063 5.97997 11.028 5.97997H9.06536V11.8786C9.06536 11.9497 9.04048 12.0102 8.9907 12.06C8.94092 12.1097 8.87692 12.1346 8.7987 12.1346H7.81736Z"
        fill="#FFA7AC" />
</svg>
    