<svg xmlns="http://www.w3.org/2000/svg" fill="none" viewBox="0 0 16 16">
    <path fill="currentColor" d="M8.163 0a4 4 0 1 0 0 8 4 4 0 0 0 0-8Zm-.25 3.5h.5a1.25 1.25 0 0 1 .25 2.475V6a.5.5 0 1 1-1 0h-.5a.5.5 0 1 1 0-1h1.25a.25.25 0 1 0 0-.5h-.5a1.25 1.25 0 0 1-.25-2.475V2a.5.5 0 1 1 1 0h.5a.5.5 0 0 1 0 1h-1.25a.25.25 0 0 0 0 .5Zm.75 5.475V14h-1V8.975c.165.015.33.025.5.025.17 0 .335-.01.5-.025Zm-3.578-.909a2.88 2.88 0 0 0-2.86.17.5.5 0 0 0-.224.448 2.867 2.867 0 0 0 4.436 2.221.501.501 0 0 0 .225-.449 2.877 2.877 0 0 0-1.577-2.39Z"/>
    <path fill="currentColor" d="M8.163 12.563a.498.498 0 0 1-.425-.236 3.181 3.181 0 0 0-1.729-1.351.5.5 0 1 1 .307-.952 4.18 4.18 0 0 1 2.27 1.774.5.5 0 0 1-.423.764ZM14.1 9.235a2.865 2.865 0 0 0-4.436 2.221.5.5 0 0 0 .224.449 2.864 2.864 0 0 0 4.436-2.22.499.499 0 0 0-.224-.45Z"/>
    <path fill="currentColor" d="M8.163 13.563a.5.5 0 0 1-.424-.765 4.18 4.18 0 0 1 2.27-1.774.5.5 0 1 1 .307.952 3.181 3.181 0 0 0-1.729 1.35.5.5 0 0 1-.424.236Zm2 2.437h-4a.5.5 0 0 1 0-1h4a.5.5 0 0 1 0 1Z"/>
</svg>