<svg xmlns="http://www.w3.org/2000/svg" fill="none" viewBox="0 0 160 160">
  <path fill="#F5F5F5" d="M110.2 43.053A29.29 29.29 0 0 1 92.111 70.12a29.3 29.3 0 1 1-11.214-56.37A29.3 29.3 0 0 1 110.2 43.053"/>
  <path fill="url(#a)" d="M80.897 21.41a21.64 21.64 0 1 0 21.641 21.638A21.667 21.667 0 0 0 80.897 21.41m0 37.163a15.44 15.44 0 0 1-8.225-2.363l21.39-21.39A15.519 15.519 0 0 1 80.9 58.57zm0-31.053a15.4 15.4 0 0 1 8.231 2.368c0 .031-21.39 21.419-21.39 21.388a15.52 15.52 0 0 1 13.159-23.75z"/>
  <path fill="url(#b)" d="M107.5 55.332a29.34 29.34 0 0 1-18.356 15.834l-1.631-2.04-2.322 2.91a29.31 29.31 0 0 1-30.907-16.704z" style="mix-blend-mode:multiply"/>
  <path fill="#7B7F99" d="M80.897 73.29a30.24 30.24 0 1 1 30.241-30.24 30.28 30.28 0 0 1-30.241 30.24m0-58.603a28.365 28.365 0 1 0 28.366 28.362 28.4 28.4 0 0 0-28.366-28.362"/>
  <path fill="url(#c)" d="M87.522 60.637h45.353v72.315H87.522z"/>
  <path fill="url(#d)" d="M25.247 60.637h62.272v72.318H25.247z"/>
  <path fill="url(#e)" d="M87.519 60.637v15.65l-6.857 9.993H25.247v-9.993h49.772z" style="mix-blend-mode:multiply"/>
  <path fill="url(#f)" d="M87.519 77.462V60.637l12.5 15.65h32.856v9.993H94.6z" style="mix-blend-mode:multiply"/>
  <path fill="#7B7F99" d="M133.813 133.891H86.585V59.688h47.228zm-45.353-1.875h43.478V61.563H88.46z"/>
  <path fill="#7B7F99" d="M88.456 133.894H24.31V59.688h64.147zm-62.272-1.875h60.397V61.563H26.184zm68.941-14.886h16.453v8.497H95.125z"/>
  <path fill="#F5F5F5" d="M75.019 76.287H11.25l12.5-15.65h63.769zm25 0H146.2l-12.503-15.65H87.519z"/>
  <path fill="#7B7F99" d="M75.469 77.225H9.3l14-17.537h66.169zM13.2 75.35h61.366l11.006-13.787H24.203z"/>
  <path fill="#7B7F99" d="M148.147 77.225H99.569L85.572 59.688h48.578zm-47.675-1.875h43.778l-11.003-13.787H89.469zM30.019 50.576a3.96 3.96 0 0 1-3.697-2.547c-1.25-3.29 2.116-6.471 5.312-5.04a3.966 3.966 0 0 1-1.625 7.587zm0-6.056a2.091 2.091 0 1 0 1.906 2.94 2.094 2.094 0 0 0-1.897-2.94zM13.581 59.91a3.04 3.04 0 1 1 .015-6.08 3.04 3.04 0 0 1-.015 6.08m0-4.207a1.166 1.166 0 1 0 .01 0zm121.444 81.891 1.326-1.326 4.244 4.244-1.326 1.326zm3.834-6.543h6.003v1.875h-6.003zm-8.668 9.195h1.875v6.003h-1.875z"/>
  <path fill="#A9AFC4" d="m148.022 66.507-1.181-1.456 1.456-1.181 1.181 1.456zm-3.147-3.884-1.181-1.46 1.456-1.178 1.181 1.456zm-3.147-3.875-1.181-1.457 1.456-1.18 1.182 1.459zm-3.106-3.75a5.2 5.2 0 0 0-1.3-.907l.831-1.68a7.1 7.1 0 0 1 1.763 1.23zm-3.909-1.453h-1.875v-1.876h1.875zm-5 0h-1.875v-1.876h1.875zm-5.094-.038a7.2 7.2 0 0 1-2.081-.544l.74-1.722a5.3 5.3 0 0 0 1.535.4zm-4.894-2.725a7.1 7.1 0 0 1-1.05-1.875l1.756-.66c.186.499.448.966.775 1.385zm.4-5.25-1.875-.06c.019-.6.025-1.218.016-1.834l1.875-.022c.009.622.003 1.266-.016 1.891zm-2-4.969a44 44 0 0 0-.2-1.822l1.856-.246a41 41 0 0 1 .213 1.903zm-.719-4.831a41 41 0 0 0-.421-1.781l1.815-.475c.16.625.313 1.25.441 1.875zm-1.303-4.687c-.2-.579-.412-1.154-.625-1.72l1.71-.706a39 39 0 0 1 .665 1.797zm-1.875-4.507c-.265-.544-.55-1.09-.843-1.625l1.615-.919c.313.56.606 1.135.888 1.704zm-2.415-4.24a45 45 0 0 0-1.038-1.513l1.525-1.094c.372.522.738 1.053 1.081 1.582z"/>
  <path fill="#7B7F99" d="M17.025 142.413a3.523 3.523 0 0 1-3.519-3.467 3.518 3.518 0 0 1 6.494-1.93 3.51 3.51 0 0 1-1.184 4.909 3.5 3.5 0 0 1-1.791.488m0-5.163a1.64 1.64 0 0 0-1.288 2.669 1.647 1.647 0 0 0 2.888-.663 1.643 1.643 0 0 0-1.597-2.006z"/>
  <defs>
    <linearGradient id="a" x1="99.832" x2="62.638" y1="23.439" y2="61.31" gradientUnits="userSpaceOnUse">
      <stop stop-color="#FF4357"/>
      <stop offset="1" stop-color="#B0002C"/>
    </linearGradient>
    <linearGradient id="b" x1="54.291" x2="107.506" y1="63.844" y2="63.844" gradientUnits="userSpaceOnUse">
      <stop stop-color="#CACFDD"/>
      <stop offset="1" stop-color="#EEF0F1"/>
    </linearGradient>
    <linearGradient id="c" x1="110.2" x2="110.2" y1="73.709" y2="133.587" gradientUnits="userSpaceOnUse">
      <stop stop-color="#A9AFC4"/>
      <stop offset="1" stop-color="#D4D8E5"/>
    </linearGradient>
    <linearGradient id="d" x1="56.384" x2="56.384" y1="78.737" y2="132.596" gradientUnits="userSpaceOnUse">
      <stop stop-color="#CACFDD"/>
      <stop offset="1" stop-color="#EEF0F1"/>
    </linearGradient>
    <linearGradient id="e" x1="25.247" x2="87.519" y1="73.459" y2="73.459" gradientUnits="userSpaceOnUse">
      <stop stop-color="#A9AFC4"/>
      <stop offset="1" stop-color="#D4D8E5"/>
    </linearGradient>
    <linearGradient id="f" x1="87.519" x2="132.875" y1="73.459" y2="73.459" gradientUnits="userSpaceOnUse">
      <stop stop-color="#CACFDD"/>
      <stop offset="1" stop-color="#EEF0F1"/>
    </linearGradient>
  </defs>
</svg>
