<svg width="11" height="10" viewBox="0 0 11 10" fill="none" xmlns="http://www.w3.org/2000/svg">
<path d="M2.85388 9.90037L1.48402 8.87298C1.33873 8.7692 1.25571 8.62391 1.23495 8.43711C1.2142 8.22956 1.24533 8.06351 1.32835 7.93898C1.32835 7.91822 1.39062 7.84558 1.51515 7.72105L3.75675 5.66625L0.705687 5.32379C0.622665 5.30303 0.560399 5.29265 0.518887 5.29265C0.498132 5.2719 0.477376 5.26152 0.456621 5.26152C0.311332 5.22001 0.186799 5.11623 0.083022 4.95019C0 4.76339 -0.0207555 4.57659 0.0207555 4.38979L0.581154 2.77086C0.622665 2.60481 0.73682 2.48028 0.92362 2.39726C1.11042 2.31424 1.27646 2.29348 1.42175 2.33499C1.44251 2.33499 1.52553 2.36613 1.67082 2.42839L4.34828 3.95392L3.72561 0.933997C3.70486 0.850975 3.69448 0.799086 3.69448 0.778331C3.69448 0.73682 3.69448 0.705687 3.69448 0.684932C3.69448 0.518888 3.75675 0.363221 3.88128 0.217932C4.02657 0.0726439 4.19261 0 4.37941 0H6.09174C6.27854 0 6.43421 0.0726439 6.55874 0.217932C6.70403 0.363221 6.77667 0.518888 6.77667 0.684932C6.77667 0.705687 6.77667 0.73682 6.77667 0.778331C6.77667 0.799086 6.76629 0.850975 6.74554 0.933997L6.12287 3.95392L8.83147 2.42839C8.97675 2.36613 9.05978 2.33499 9.08053 2.33499C9.24658 2.29348 9.41262 2.31424 9.57866 2.39726C9.76546 2.48028 9.87962 2.60481 9.92113 2.77086L10.4815 4.38979C10.523 4.57659 10.4919 4.76339 10.3881 4.95019C10.3051 5.11623 10.1806 5.22001 10.0145 5.26152C9.99377 5.26152 9.96264 5.2719 9.92113 5.29265C9.90037 5.29265 9.85886 5.30303 9.7966 5.32379L6.7144 5.66625L8.98713 7.72105C9.11166 7.84558 9.17393 7.91822 9.17393 7.93898C9.27771 8.06351 9.31922 8.22956 9.29846 8.43711C9.27771 8.62391 9.18431 8.7692 9.01826 8.87298L7.6484 9.90037C7.48236 9.98339 7.30594 10.0145 7.11914 9.99377C6.93234 9.97302 6.78705 9.88999 6.68327 9.74471C6.68327 9.72395 6.67289 9.7032 6.65214 9.68244C6.63138 9.66169 6.60025 9.6098 6.55874 9.52677L5.25114 6.69365L3.94354 9.52677C3.92279 9.6098 3.89166 9.66169 3.85015 9.68244C3.82939 9.7032 3.81901 9.72395 3.81901 9.74471C3.73599 9.88999 3.5907 9.97302 3.38315 9.99377C3.19635 10.0145 3.01993 9.98339 2.85388 9.90037Z" fill="white"/>
</svg>
