<svg width="37" height="36" viewBox="0 0 37 36" fill="none" xmlns="http://www.w3.org/2000/svg">
<path fill-rule="evenodd" clip-rule="evenodd" d="M20.0058 4.99622C20.0058 5.0303 20.0045 5.06415 20.0022 5.09769H24.053C28.9765 5.09769 32.8565 7.20786 32.9816 11.7949C33.0446 14.0997 31.8875 15.1206 30.9878 15.9145C30.3523 16.4753 29.8451 16.9228 29.9871 17.6296C30.1235 18.3081 30.6179 18.9083 31.1668 19.5746C31.9991 20.585 32.9567 21.7474 32.9816 23.5658C33.023 26.5834 32.9816 26.2041 32.9816 26.2041C32.9816 29.8468 29.813 32.7998 25.9042 32.7998H19.8888C19.8942 32.8499 19.8969 32.9006 19.8969 32.952C19.8969 33.7926 19.1657 34.4741 18.2637 34.4741C17.3617 34.4741 16.6304 33.7926 16.6304 32.952C16.6304 32.9006 16.6332 32.8499 16.6385 32.7998H13.0373H12.7651C12.4384 32.7998 11.3741 32.7505 11.3973 32.7261C7.23193 32.3171 4.13003 30.1961 4.01838 26.1026C3.95544 23.7978 5.11253 22.7769 6.0122 21.983C6.64774 21.4223 7.15494 20.9747 7.01288 20.2679C6.87646 19.5894 6.38213 18.9892 5.83324 18.3229C5.00088 17.3126 4.04326 16.1501 4.01838 14.3317C3.97702 11.3141 4.01838 11.6934 4.01838 11.6934C4.01838 8.05071 7.18705 5.09769 11.0958 5.09769H11.5129H16.7429C16.7406 5.06415 16.7393 5.0303 16.7393 4.99622C16.7393 4.1556 17.4706 3.47412 18.3726 3.47412C19.2746 3.47412 20.0058 4.1556 20.0058 4.99622Z" fill="white"/>
<path fill-rule="evenodd" clip-rule="evenodd" d="M0 8.27309C0 3.96584 3.71632 0.474121 8.30063 0.474121H27.8864C32.4707 0.474121 36.187 3.96584 36.187 8.27309V27.7267C36.187 32.034 32.4707 35.5257 27.8864 35.5257H8.30063C3.71632 35.5257 0 32.034 0 27.7267V8.27309ZM19.3992 5.99474C19.3992 6.02418 19.3981 6.0534 19.3961 6.08237H19.3962C19.3482 6.76745 18.7415 7.30917 18.0002 7.30917C17.2589 7.30917 16.6523 6.76745 16.6043 6.08237H16.6043C16.6028 6.06025 16.6018 6.03797 16.6014 6.01557C16.6013 6.00864 16.6013 6.00169 16.6013 5.99474C16.6013 5.26881 17.2276 4.68031 18.0002 4.68031C18.0485 4.68031 18.0962 4.68261 18.1433 4.68709C18.4482 4.71619 18.7242 4.8373 18.9393 5.0204C19.0891 5.14794 19.2093 5.30556 19.2893 5.48311C19.3601 5.64036 19.3992 5.81326 19.3992 5.99474ZM20.61 6.08237C20.5609 7.39687 19.4113 8.44835 18.0002 8.44835C17.758 8.44835 17.5234 8.41735 17.3008 8.35934C17.2561 8.34771 17.2138 8.33081 17.1729 8.31449C17.0874 8.28037 17.0082 8.24876 16.9277 8.27309C16.8086 8.30906 16.6577 8.44835 16.6577 8.44835L16.1862 8.88649C16.1862 8.88649 15.9484 9.10557 15.995 9.19319C16.0417 9.28082 16.3681 9.28082 16.3681 9.28082L23.1897 9.31787C23.1897 9.31787 23.3815 9.32955 23.5495 9.28082C23.6725 9.24517 23.7017 9.23161 23.7456 9.21126C23.7617 9.2038 23.7798 9.19542 23.8051 9.18471C24.1257 9.0494 24.4811 8.97412 24.8553 8.97412C26.2718 8.97412 27.4201 10.053 27.4201 11.3839C27.4201 12.7148 26.2718 13.7937 24.8553 13.7937C24.0875 13.7937 23.5066 13.4197 23.0366 12.9174C22.969 12.8452 22.9174 12.7725 22.87 12.706C22.8034 12.6122 22.7453 12.5305 22.6635 12.4793C22.5236 12.3916 21.8241 12.3916 21.8241 12.3916H14.8769H13.71H13.337C13.337 12.3916 13.1504 12.3916 13.0105 12.4793C12.8706 12.5669 12.5908 12.9985 12.5908 13.4082C12.5908 14.038 13.0624 14.5644 13.6918 14.6927C13.6918 14.6928 13.6918 14.693 13.6918 14.6931C13.6917 14.6933 13.6917 14.6934 13.6917 14.6936L13.6916 14.6939C13.6916 14.6941 13.6915 14.6943 13.6915 14.6944L16.4751 15.8699C16.4751 15.8699 16.746 16.0149 16.9743 16.0282C17.1605 16.0391 17.2727 16.0119 17.392 15.983C17.419 15.9765 17.4464 15.9698 17.4751 15.9635C17.6737 15.9199 17.8807 15.8968 18.0935 15.8968C19.5873 15.8968 20.7982 17.0346 20.7982 18.438C20.7982 18.4715 20.7982 18.5257 20.8448 18.5695C20.8915 18.6133 21.1463 18.7267 21.1463 18.7267L23.2639 19.621C23.2639 19.621 23.3416 19.6353 23.4342 19.6475C23.5042 19.6568 23.5827 19.6648 23.6428 19.6648C23.6951 19.6648 23.7945 19.6403 23.9189 19.6097L23.9193 19.6096L23.9195 19.6095C24.1277 19.5582 24.4058 19.4896 24.6505 19.4896C26.1543 19.4896 27.3734 20.635 27.3734 22.0479V24.5282C27.3734 25.8108 26.2669 26.8504 24.9019 26.8504H23.5962C23.4685 26.8504 23.2231 26.8504 23.0832 26.938L20.4754 29.1693C20.4754 29.1693 20.4718 29.1726 20.4251 29.2164C20.4251 29.2164 20.3785 29.2602 20.3785 29.304C20.3785 29.3623 20.3927 29.398 20.4088 29.4384C20.4169 29.4588 20.4254 29.4805 20.4329 29.5067C20.4783 29.6664 20.5063 29.8333 20.5153 30.0051H24.4516C27.7997 30.0051 30.5138 27.4549 30.5138 24.3092C30.5138 24.3092 30.5493 24.6368 30.5138 22.0308C30.4925 20.4605 29.6723 19.4567 28.9593 18.5842C28.4891 18.0088 28.0657 17.4905 27.9489 16.9045C27.8272 16.2941 28.2616 15.9077 28.806 15.4234L28.806 15.4234L28.8061 15.4233C29.5767 14.7378 30.5678 13.8562 30.5138 11.8659C30.4066 7.90465 27.0832 6.08237 22.8659 6.08237H20.61ZM16.5149 30.0051C16.5104 30.0483 16.508 30.0921 16.508 30.1365C16.508 30.8624 17.1343 31.4509 17.907 31.4509C18.6796 31.4509 19.306 30.8624 19.306 30.1365C19.306 30.0921 19.3036 30.0483 19.299 30.0051H19.2991C19.2289 29.3408 18.6324 28.8221 17.907 28.8221C17.1816 28.8221 16.5851 29.3408 16.5149 30.0051ZM15.2992 30.0051H13.4302H13.1971C12.9173 30.0051 12.0056 29.9625 12.0255 29.9414C8.45755 29.5882 5.80058 27.7566 5.70494 24.2215C5.65103 22.2313 6.64209 21.3496 7.4127 20.6641L7.41278 20.664L7.41282 20.664C7.95718 20.1797 8.39161 19.7933 8.26993 19.1829C8.15307 18.597 7.72964 18.0787 7.25949 17.5033C6.54652 16.6307 5.72626 15.6269 5.70494 14.0566C5.66951 11.4507 5.70494 11.7782 5.70494 11.7782C5.70494 8.63251 8.41912 6.08237 11.7672 6.08237H12.1245H15.3901C15.3963 6.2696 15.4251 6.45126 15.4743 6.62449C15.4818 6.65078 15.4904 6.67238 15.4985 6.69279C15.5145 6.73323 15.5287 6.76897 15.5287 6.82721C15.5287 6.87103 15.4821 6.91484 15.4821 6.91484C15.4354 6.95866 15.4318 6.96196 15.4318 6.96196L13.0572 9.06175C12.9173 9.14938 12.6719 9.14938 12.5442 9.14938H11.2385C9.87348 9.14938 8.76696 10.189 8.76696 11.4715V13.9519C8.76696 15.3648 9.98606 16.5102 11.4899 16.5102C11.7345 16.5102 12.0127 16.4416 12.2209 16.3903L12.2211 16.3902L12.2215 16.3901C12.3459 16.3595 12.4453 16.3349 12.4976 16.3349C12.5577 16.3349 12.6362 16.343 12.7062 16.3523C12.7988 16.3645 12.8765 16.3788 12.8765 16.3788L14.994 17.273C14.994 17.273 15.4354 17.4303 15.4821 17.6494C15.5113 17.7866 15.4887 17.846 15.4607 17.92C15.4439 17.9641 15.4252 18.0134 15.4143 18.0875C15.3975 18.2021 15.3888 18.3191 15.3888 18.438C15.3888 19.8415 16.5997 20.9793 18.0935 20.9793C18.7066 20.9793 19.272 20.7876 19.7257 20.4646C19.7293 20.462 19.7329 20.4595 19.7365 20.4569C19.8198 20.3975 19.889 20.3481 20.0055 20.3221C20.1269 20.2949 20.328 20.4097 20.328 20.4097L22.4488 21.3054L22.4488 21.3058L22.4487 21.3062C22.4487 21.3064 22.4486 21.3066 22.4486 21.3068C22.4486 21.3069 22.4486 21.307 22.4486 21.3071C23.078 21.4354 23.5495 21.9618 23.5495 22.5916C23.5495 23.0012 23.2697 23.4329 23.1298 23.5205C22.9899 23.6081 22.8034 23.6081 22.8034 23.6081H22.4304H21.2635H14.3163C14.3163 23.6081 13.6168 23.6081 13.4769 23.5205C13.3951 23.4693 13.337 23.3876 13.2704 23.2938L13.2703 23.2938C13.223 23.2272 13.1714 23.1546 13.1038 23.0824C12.6338 22.5801 12.0529 22.2061 11.2851 22.2061C9.86863 22.2061 8.72033 23.285 8.72033 24.6159C8.72033 25.9468 9.86863 27.0257 11.2851 27.0257C11.6593 27.0257 12.0147 26.9504 12.3352 26.8151C12.3606 26.8044 12.3787 26.796 12.3948 26.7885C12.4386 26.7682 12.4679 26.7546 12.5908 26.719C12.7589 26.6702 12.9507 26.6819 12.9507 26.6819L19.7723 26.719C19.7723 26.719 20.0987 26.719 20.1453 26.8066C20.192 26.8942 19.9542 27.1133 19.9542 27.1133L19.2495 27.6829C19.2495 27.6829 19.0986 27.8222 18.9795 27.8581C18.899 27.8825 18.8198 27.8509 18.7343 27.8167C18.6934 27.8004 18.6511 27.7835 18.6065 27.7719C18.3838 27.7139 18.1493 27.6829 17.907 27.6829C16.5117 27.6829 15.3719 28.7111 15.2992 30.0051Z" fill="url(#paint0_linear_1616_13115)"/>
<defs>
<linearGradient id="paint0_linear_1616_13115" x1="18.0935" y1="0.474121" x2="18.0935" y2="35.5257" gradientUnits="userSpaceOnUse">
<stop stop-color="#FF4357"/>
<stop offset="1" stop-color="#B0002C"/>
</linearGradient>
</defs>
</svg>
