<svg xmlns="http://www.w3.org/2000/svg" fill="none" viewBox="0 0 20 20">
  <path fill="currentColor" d="m16.873 6.025.013-.013-3.198-3.095-.91.883 1.811 1.758c-.406.15-.755.416-1.002.763a2.03 2.03 0 0 0-.38 1.179c0 1.15.961 2.083 2.146 2.083.305 0 .597-.062.859-.175v6.009a.85.85 0 0 1-.859.833.85.85 0 0 1-.858-.833v-3.75c0-.921-.769-1.667-1.717-1.667h-.86V4.167c0-.921-.768-1.667-1.716-1.667H5.05c-.949 0-1.717.746-1.717 1.667V17.5h8.586v-6.25h1.288v4.167c0 1.15.961 2.083 2.146 2.083s2.147-.933 2.147-2.083V7.5a2.06 2.06 0 0 0-.627-1.475m-6.671 2.308H5.05V4.167h5.152zm5.151 0a.85.85 0 0 1-.858-.833c0-.458.386-.833.858-.833s.859.375.859.833a.85.85 0 0 1-.859.833"/>
</svg>
