<svg xmlns="http://www.w3.org/2000/svg" fill="none" viewBox="0 0 20 20">
  <path fill="#4285F4" d="M18.8 10.208q-.002-.975-.167-1.875H10v3.546h4.933a4.22 4.22 0 0 1-1.829 2.767v2.3h2.963C17.8 15.35 18.8 13 18.8 10.208"/>
  <path fill="#34A853" d="M10 19.167c2.475 0 4.55-.821 6.067-2.221l-2.963-2.3c-.82.55-1.87.875-3.104.875-2.387 0-4.408-1.613-5.129-3.78H1.81v2.376a9.16 9.16 0 0 0 8.19 5.05"/>
  <path fill="#FBBC05" d="M4.871 11.742A5.5 5.5 0 0 1 4.584 10c0-.604.104-1.192.287-1.742V5.883H1.81A9.16 9.16 0 0 0 .834 10c0 1.48.354 2.88.975 4.117z"/>
  <path fill="#EA4335" d="M10 4.48c1.346 0 2.554.462 3.504 1.37l2.63-2.63C14.546 1.743 12.47.834 10 .834a9.16 9.16 0 0 0-8.191 5.05L4.87 8.258C5.59 6.092 7.612 4.479 10 4.479"/>
</svg>
