<svg width="16" height="16" viewBox="0 0 16 16" fill="none" xmlns="http://www.w3.org/2000/svg">
<path fill-rule="evenodd" clip-rule="evenodd" d="M3.55499 3.14047L6.91386 1.57614C7.60896 1.25241 8.40239 1.25241 9.09748 1.57614L12.443 3.13427C13.4214 3.58991 14.0635 4.61398 13.995 5.73356C13.7321 10.028 12.5604 11.9693 9.39325 14.2215C8.55742 14.8159 7.45484 14.8144 6.61839 14.221C3.46094 11.981 2.24581 10.0667 2.00411 5.7185C1.94229 4.60627 2.58343 3.59296 3.55499 3.14047ZM10.3763 6.99594C10.5581 6.78812 10.537 6.47224 10.3292 6.2904C10.1214 6.10855 9.80553 6.12961 9.62369 6.33743L7.71042 8.52403C7.65169 8.59115 7.55052 8.60014 7.48087 8.54442L6.31233 7.60958C6.09669 7.43708 5.78205 7.47204 5.60954 7.68767C5.43704 7.9033 5.472 8.21795 5.68763 8.39045L6.85618 9.32529C7.3437 9.71531 8.05187 9.65239 8.463 9.18253L10.3763 6.99594Z" fill="#3ABD77"/>
</svg>
