<svg xmlns="http://www.w3.org/2000/svg" fill="none" viewBox="0 0 16 16">
    <path fill="currentColor" d="M12.903 4.912c.432 0 .784.351.784.783v8.6h1.64a.352.352 0 0 1 0 .705H.352a.352.352 0 0 1 0-.704h4.86l-2.81-3.904c0-.433.35-.782.783-.783h1.499c.432 0 .782.35.782.783v3.904h3.836L6.396 7.782c0-.432.35-.782.782-.782h1.498c.432 0 .783.35.783.782v6.514h4.106l-2.942-8.6c0-.433.35-.784.782-.784h1.498Zm.613-3.874a.353.353 0 0 1 .31.508l-.917 1.85a.352.352 0 0 1-.63-.312l.356-.72L.89 8.4a.352.352 0 1 1-.322-.626l11.776-6.053-1.03-.018a.352.352 0 0 1 .01-.703l2.19.038Z"/>
</svg>