<svg xmlns="http://www.w3.org/2000/svg" fill="none" viewBox="0 0 16 16">
    <path fill="currentColor" d="M8.459 1c.982 0 1.904.405 2.594 1.14a3.908 3.908 0 0 1 1.05 2.69v1.71h.848a.97.97 0 0 1 .967.967v6.526a.97.97 0 0 1-.967.967H3.967A.97.97 0 0 1 3 14.033V7.507a.97.97 0 0 1 .967-.967h.848V4.83c0-1.014.374-1.97 1.051-2.69A3.532 3.532 0 0 1 8.46 1Zm0 8.007a.951.951 0 0 0-.384 1.82v1.323a.384.384 0 0 0 .768 0v-1.323a.951.951 0 0 0-.384-1.82Zm0-6.453c-1.153 0-2.09 1.02-2.09 2.275V6.54h4.18V4.83c0-1.256-.938-2.276-2.09-2.276Z"/>
</svg>