<svg xmlns="http://www.w3.org/2000/svg" fill="none" viewBox="0 0 16 16">
    <g clip-path="url(#a)">
        <path fill="currentColor" fill-rule="evenodd" d="m11.412 4.312 2.34-2.342c.04.052.083.102.129.15s.098.089.15.13l-2.342 2.339-.133-.144-.143-.135-.001.002Zm.277 7.1 1.339 1.338a1.28 1.28 0 0 0-.278.277l-1.338-1.338.144-.134.135-.142-.002-.002Zm-7.1.276-2.34 2.341a2.066 2.066 0 0 0-.13-.149c-.046-.048-.098-.089-.15-.13l2.342-2.339.133.144.143.135.001-.002Zm-.278-7.1L2.972 3.25a1.264 1.264 0 0 0 .277-.277l1.34 1.339-.145.133-.135.142.002.002Zm6.933.16A4.597 4.597 0 1 0 12.6 8a4.584 4.584 0 0 0-1.347-3.251h-.008ZM16 1.069a1.067 1.067 0 1 0-2.133-.002 1.067 1.067 0 0 0 2.133 0ZM0 14.931a1.066 1.066 0 1 0 2.133.002A1.066 1.066 0 0 0 0 14.932Zm13.78-.305a.85.85 0 1 0 .003-1.7.85.85 0 0 0-.003 1.7ZM2.224 1.37a.85.85 0 1 0-.004 1.7.85.85 0 0 0 .004-1.7Zm6.487 4.819A1.013 1.013 0 1 1 7.278 7.62a1.013 1.013 0 0 1 1.433-1.43ZM8 5.499a1.406 1.406 0 0 1 .805 2.56 2.384 2.384 0 0 1 1.58 2.252.2.2 0 0 1-.116.199.198.198 0 0 1-.267-.118.198.198 0 0 1-.01-.081 1.993 1.993 0 0 0-3.985 0 .197.197 0 1 1-.393 0 2.384 2.384 0 0 1 1.58-2.245A1.408 1.408 0 0 1 8 5.499Zm2.772-.27a3.911 3.911 0 1 0-5.526 5.538 3.911 3.911 0 0 0 5.526-5.538ZM8 3.688a4.31 4.31 0 1 0 .007 8.619A4.31 4.31 0 0 0 8 3.687Z" clip-rule="evenodd"/>
    </g>
    <defs>
        <clipPath id="a">
            <path fill="currentColor" d="M0 0h16v16H0z"/>
        </clipPath>
    </defs>
</svg>