<svg xmlns="http://www.w3.org/2000/svg" fill="none" viewBox="0 0 16 16">
    <g clip-path="url(#a)">
        <path fill="currentColor" d="M15.983 12.133a1.576 1.576 0 0 1-2.964.752 1.579 1.579 0 0 1-.075-1.344L8.433 8.935c-.305.383-.75.63-1.235.687v3.238a1.577 1.577 0 1 1-.438 0V9.623a1.85 1.85 0 0 1-.796-.288l-1.488 1.787a1.58 1.58 0 1 1-.336-.28l1.488-1.788a1.864 1.864 0 0 1-.492-1.002l-1.98.006a1.577 1.577 0 1 1-.002-.437l1.969-.006A1.867 1.867 0 0 1 6.76 5.922V3.14a1.577 1.577 0 1 1 .437 0v2.783c.307.037.601.15.854.328l2.773-3.088a1.577 1.577 0 1 1 .326.294L8.376 6.543c.492.556.605 1.351.288 2.022l4.5 2.598a1.576 1.576 0 0 1 2.82.97h-.001Z"/>
    </g>
    <defs>
        <clipPath id="a">
            <path fill="currentColor" d="M0 0h16v16H0z"/>
        </clipPath>
    </defs>
</svg>