<svg width="24" height="25" viewBox="0 0 24 25" fill="none" xmlns="http://www.w3.org/2000/svg">
<path d="M9.51931 3.32608C11.0565 2.4477 12.9435 2.4477 14.4807 3.32608L18.2744 5.49394C19.3415 6.10368 20 7.23842 20 8.46738V11.1889C20 15.7575 17.2773 19.8866 13.0781 21.6862C12.3896 21.9813 11.6104 21.9813 10.9219 21.6862C6.72268 19.8866 4 15.7575 4 11.1889V8.46738C4 7.23842 4.65852 6.10368 5.72556 5.49394L9.51931 3.32608Z" fill="#D96900"/>
<path fill-rule="evenodd" clip-rule="evenodd" d="M11 12.0602C11 12.6125 11.4477 13.0602 12 13.0602C12.5523 13.0602 13 12.6125 13 12.0602V8.06024C13 7.50796 12.5523 7.06024 12 7.06024C11.4477 7.06024 11 7.50796 11 8.06024V12.0602ZM11 16.0602C11 15.508 11.4477 15.0602 12 15.0602C12.5523 15.0602 13 15.508 13 16.0602C13 16.6125 12.5523 17.0602 12 17.0602C11.4477 17.0602 11 16.6125 11 16.0602Z" fill="white"/>
</svg>
