<svg width="24" height="25" viewBox="0 0 24 25" fill="none" xmlns="http://www.w3.org/2000/svg">
<path d="M9.71953 4.2514C10.5659 2.66319 13.4341 2.66319 14.2805 4.2514L21.8061 18.3731C22.487 19.6507 21.2907 21.0602 19.5257 21.0602H4.47433C2.70927 21.0602 1.51303 19.6507 2.19386 18.3731L9.71953 4.2514Z" fill="#DF0100"/>
<path fill-rule="evenodd" clip-rule="evenodd" d="M11 13.0602C11 13.6125 11.4477 14.0602 12 14.0602C12.5523 14.0602 13 13.6125 13 13.0602V9.06024C13 8.50796 12.5523 8.06024 12 8.06024C11.4477 8.06024 11 8.50796 11 9.06024V13.0602ZM11 17.0602C11 16.508 11.4477 16.0602 12 16.0602C12.5523 16.0602 13 16.508 13 17.0602C13 17.6125 12.5523 18.0602 12 18.0602C11.4477 18.0602 11 17.6125 11 17.0602Z" fill="white"/>
</svg>
