<svg width="20" height="20" viewBox="0 0 20 20" fill="none" xmlns="http://www.w3.org/2000/svg">
<path d="M10.5586 11.2134V8.78661C10.9293 8.65555 11.2419 8.39763 11.4409 8.05844C11.6399 7.71924 11.7125 7.32062 11.6461 6.93301C11.5796 6.54541 11.3782 6.19379 11.0775 5.94031C10.7769 5.68682 10.3963 5.54779 10.003 5.54779C9.60974 5.54779 9.22913 5.68682 8.92846 5.94031C8.6278 6.19379 8.42642 6.54541 8.35994 6.93301C8.29345 7.32062 8.36613 7.71924 8.56514 8.05844C8.76415 8.39763 9.07666 8.65555 9.44744 8.78661V11.2137C9.07677 11.3447 8.76436 11.6026 8.56542 11.9417C8.36649 12.2808 8.29385 12.6794 8.36033 13.0669C8.42682 13.4544 8.62815 13.8059 8.92874 14.0593C9.22934 14.3127 9.60984 14.4517 10.003 14.4517C10.3962 14.4517 10.7767 14.3127 11.0773 14.0593C11.3779 13.8059 11.5792 13.4544 11.6457 13.0669C11.7121 12.6794 11.6395 12.2808 11.4406 11.9417C11.2416 11.6026 10.9292 11.3444 10.5586 11.2134ZM10.003 6.66666C10.1129 6.66666 10.2203 6.69925 10.3116 6.76029C10.403 6.82134 10.4742 6.9081 10.5163 7.00962C10.5583 7.11113 10.5693 7.22284 10.5479 7.3306C10.5264 7.43837 10.4735 7.53736 10.3958 7.61506C10.3181 7.69275 10.2192 7.74567 10.1114 7.7671C10.0036 7.78854 9.89191 7.77754 9.7904 7.73549C9.68888 7.69344 9.60212 7.62223 9.54107 7.53087C9.48003 7.43951 9.44744 7.3321 9.44744 7.22222C9.44757 7.07492 9.50615 6.93369 9.61031 6.82953C9.71447 6.72537 9.8557 6.6668 10.003 6.66666ZM10.003 13.3333C9.89312 13.3333 9.78571 13.3008 9.69435 13.2397C9.60299 13.1787 9.53178 13.0919 9.48973 12.9904C9.44768 12.8889 9.43668 12.7772 9.45812 12.6694C9.47955 12.5616 9.53247 12.4626 9.61016 12.3849C9.68786 12.3072 9.78685 12.2543 9.89462 12.2329C10.0024 12.2115 10.1141 12.2225 10.2156 12.2645C10.3171 12.3066 10.4039 12.3778 10.4649 12.4691C10.526 12.5605 10.5586 12.6679 10.5586 12.7778C10.5584 12.9251 10.4998 13.0663 10.3957 13.1705C10.2915 13.2746 10.1503 13.3332 10.003 13.3333Z" fill="#3D3D3D"/>
<path fill-rule="evenodd" clip-rule="evenodd" d="M10.8086 11.0456C11.1616 11.2092 11.458 11.4773 11.6562 11.8152C11.885 12.2052 11.9685 12.6635 11.8921 13.1091C11.8156 13.5548 11.5841 13.959 11.2384 14.2504C10.8927 14.5419 10.4551 14.7017 10.003 14.7017C9.55087 14.7017 9.11329 14.5419 8.7676 14.2504C8.42192 13.959 8.19039 13.5548 8.11393 13.1091C8.03748 12.6635 8.12102 12.2052 8.34979 11.8152C8.54808 11.4772 8.84441 11.2094 9.19744 11.0459V8.95445C8.84431 8.79093 8.54788 8.52305 8.34951 8.18495C8.12066 7.79489 8.03708 7.33648 8.11354 6.89075C8.18999 6.44502 8.42157 6.04067 8.76732 5.74917C9.11308 5.45767 9.55076 5.29779 10.003 5.29779C10.4552 5.29779 10.8929 5.45767 11.2387 5.74917C11.5844 6.04067 11.816 6.44502 11.8925 6.89075C11.9689 7.33648 11.8853 7.79489 11.6565 8.18495C11.4581 8.52305 11.1617 8.79093 10.8086 8.95445V11.0456ZM10.5586 8.78661V11.2134C10.9292 11.3444 11.2416 11.6026 11.4406 11.9417C11.6395 12.2808 11.7121 12.6794 11.6457 13.0669C11.5792 13.4544 11.3779 13.8059 11.0773 14.0593C10.7767 14.3127 10.3962 14.4517 10.003 14.4517C9.60984 14.4517 9.22934 14.3127 8.92874 14.0593C8.62815 13.8059 8.42682 13.4544 8.36033 13.0669C8.29385 12.6794 8.36649 12.2808 8.56542 11.9417C8.76436 11.6026 9.07677 11.3447 9.44744 11.2137V8.78661C9.07666 8.65555 8.76415 8.39763 8.56514 8.05844C8.36614 7.71924 8.29345 7.32062 8.35994 6.93301C8.42642 6.54541 8.6278 6.19379 8.92847 5.94031C9.22913 5.68682 9.60974 5.54779 10.003 5.54779C10.3963 5.54779 10.7769 5.68682 11.0775 5.94031C11.3782 6.19379 11.5796 6.54541 11.6461 6.93301C11.7125 7.32062 11.6399 7.71924 11.4409 8.05844C11.2419 8.39763 10.9293 8.65555 10.5586 8.78661ZM10.1728 6.96816C10.1225 6.93458 10.0634 6.91666 10.003 6.91666V6.66666L10.0032 6.91666C9.92215 6.91674 9.84441 6.94898 9.78708 7.00631C9.72976 7.06364 9.69752 7.14137 9.69744 7.22245L9.44744 7.22222M9.83324 13.0318C9.88349 13.0654 9.94257 13.0833 10.003 13.0833C10.084 13.0832 10.1616 13.051 10.2189 12.9937C10.2762 12.9364 10.3085 12.8586 10.3086 12.7776L10.5586 12.7778H10.3086C10.3086 12.7174 10.2906 12.6583 10.2571 12.608C10.2235 12.5578 10.1758 12.5186 10.1199 12.4955C10.0641 12.4724 10.0027 12.4663 9.94339 12.4781C9.88412 12.4899 9.82967 12.519 9.78694 12.5617C9.74421 12.6045 9.7151 12.6589 9.70331 12.7182C9.69152 12.7774 9.69758 12.8389 9.7207 12.8947C9.74383 12.9505 9.78299 12.9983 9.83324 13.0318Z" fill="#3D3D3D"/>
<path d="M18.0091 10.7856C18.1123 10.6825 18.1942 10.56 18.25 10.4252C18.3059 10.2904 18.3346 10.1459 18.3346 10C18.3346 9.85409 18.3059 9.70961 18.25 9.57482C18.1942 9.44002 18.1123 9.31754 18.0091 9.21439L14.7942 5.99961L16.4056 4.40916C16.6433 4.46805 16.8938 4.44687 17.1181 4.34889C17.3425 4.25092 17.5283 4.08163 17.6467 3.8673C17.765 3.65296 17.8094 3.40555 17.7728 3.16346C17.7362 2.92136 17.6207 2.69811 17.4443 2.52834C17.2678 2.35857 17.0403 2.25177 16.797 2.2245C16.5537 2.19724 16.3081 2.25103 16.0985 2.37754C15.8889 2.50406 15.7269 2.69621 15.6376 2.9242C15.5483 3.15219 15.5368 3.40327 15.6048 3.63849L14.0085 5.21377L10.7869 1.99216C10.6838 1.88897 10.5613 1.80711 10.4265 1.75126C10.2917 1.69541 10.1472 1.66667 10.0013 1.66667C9.85539 1.66667 9.71091 1.69541 9.57612 1.75126C9.44132 1.80711 9.31885 1.88897 9.21569 1.99216L6.00091 5.20699L4.41063 3.59538C4.46949 3.35768 4.44825 3.1072 4.35022 2.8828C4.25219 2.6584 4.08285 2.47263 3.86846 2.3543C3.65407 2.23597 3.40662 2.1917 3.1645 2.22836C2.92238 2.26502 2.69913 2.38056 2.52938 2.55705C2.35963 2.73355 2.25287 2.96113 2.22567 3.20449C2.19847 3.44785 2.25234 3.69339 2.37893 3.90301C2.50552 4.11263 2.69775 4.27461 2.92579 4.36383C3.15384 4.45305 3.40496 4.46451 3.64018 4.39644L5.21518 5.99283L1.99346 9.21439C1.89027 9.31754 1.80841 9.44002 1.75256 9.57482C1.69671 9.70961 1.66797 9.85409 1.66797 10C1.66797 10.1459 1.69671 10.2904 1.75256 10.4252C1.80841 10.56 1.89027 10.6825 1.99346 10.7856L5.21507 14.0072L3.64018 15.6036C3.40549 15.536 3.15505 15.5477 2.9277 15.6369C2.70035 15.7262 2.50878 15.8879 2.38267 16.097C2.25657 16.3062 2.20297 16.5511 2.2302 16.7938C2.25743 17.0365 2.36395 17.2635 2.53327 17.4395C2.70258 17.6155 2.92523 17.7307 3.16669 17.7674C3.40816 17.804 3.65497 17.7599 3.86886 17.642C4.08275 17.5241 4.25178 17.339 4.34975 17.1153C4.44772 16.8916 4.46915 16.6418 4.41074 16.4046L6.00102 14.793L9.2158 18.0078C9.31896 18.111 9.44143 18.1929 9.57623 18.2487C9.71103 18.3046 9.8555 18.3333 10.0014 18.3333C10.1473 18.3333 10.2918 18.3046 10.4266 18.2487C10.5614 18.1929 10.6839 18.111 10.787 18.0078L14.0086 14.7862L15.6049 16.3615C15.5373 16.5963 15.549 16.8467 15.6383 17.0741C15.7276 17.3015 15.8893 17.4931 16.0985 17.6192C16.3077 17.7453 16.5527 17.7989 16.7955 17.7716C17.0382 17.7443 17.2652 17.6378 17.4412 17.4684C17.6172 17.299 17.7325 17.0763 17.769 16.8348C17.8056 16.5933 17.7615 16.3464 17.6435 16.1325C17.5256 15.9186 17.3403 15.7496 17.1166 15.6517C16.8928 15.5537 16.6429 15.5323 16.4058 15.5908L14.7943 14.0004L18.0091 10.7856ZM10.0013 17.2222L2.77907 10L10.0013 2.77777L17.2235 10L10.0013 17.2222Z" fill="#3D3D3D"/>
<path fill-rule="evenodd" clip-rule="evenodd" d="M18.1859 10.9624C18.1859 10.9624 18.1859 10.9624 18.1859 10.9624L15.149 13.9992L16.4882 15.321C16.7349 15.2874 16.987 15.3221 17.2168 15.4226C17.491 15.5426 17.7179 15.7497 17.8625 16.0118C18.007 16.2739 18.061 16.5763 18.0162 16.8722C17.9714 17.1681 17.8302 17.441 17.6146 17.6485C17.3989 17.8561 17.1208 17.9866 16.8234 18.0201C16.5259 18.0535 16.2258 17.9878 15.9695 17.8333C15.7131 17.6788 15.5149 17.4441 15.4056 17.1655C15.315 16.9347 15.2896 16.6846 15.3305 16.442L14.0098 15.1386L10.9638 18.1846C10.9638 18.1846 10.9638 18.1846 10.9638 18.1846C10.8375 18.311 10.6874 18.4113 10.5223 18.4797C10.3572 18.5481 10.1802 18.5833 10.0014 18.5833C9.82267 18.5833 9.64567 18.5481 9.48054 18.4797C9.31542 18.4113 9.16539 18.311 9.03902 18.1846C9.03901 18.1846 9.03903 18.1846 9.03902 18.1846L6.0022 15.1477L4.68059 16.4871C4.71408 16.7337 4.67934 16.9859 4.57875 17.2156C4.45871 17.4897 4.25161 17.7165 3.98954 17.861C3.72747 18.0054 3.42507 18.0594 3.12921 18.0145C2.83334 17.9697 2.56055 17.8284 2.35309 17.6128C2.14564 17.3971 2.01512 17.119 1.98176 16.8217C1.9484 16.5243 2.01406 16.2242 2.16857 15.9679C2.32309 15.7117 2.55782 15.5135 2.83638 15.4042C3.06707 15.3137 3.31716 15.2883 3.55963 15.3292L4.86271 14.0084L1.81671 10.9624C1.6903 10.8361 1.59002 10.686 1.5216 10.5209C1.45318 10.3557 1.41797 10.1787 1.41797 10C1.41797 9.82125 1.45318 9.64426 1.5216 9.47913C1.59001 9.314 1.69028 9.16397 1.81669 9.03761C1.81668 9.03762 1.81669 9.0376 1.81669 9.03761L4.86282 5.99164L3.5598 4.67093C3.3168 4.71233 3.06606 4.68716 2.83471 4.59665C2.5554 4.48738 2.31997 4.28898 2.16492 4.03225C2.00988 3.77551 1.9439 3.47478 1.97722 3.17672C2.01054 2.87866 2.14129 2.59992 2.3492 2.38375C2.5571 2.16759 2.83053 2.02608 3.12707 1.98118C3.42361 1.93628 3.72668 1.9905 3.98926 2.13542C4.25184 2.28035 4.45925 2.50788 4.57932 2.78272C4.67995 3.01307 4.7145 3.26586 4.68061 3.51306L6.00209 4.85226L9.03888 1.81541C9.03887 1.81542 9.03889 1.8154 9.03888 1.81541C9.16525 1.68901 9.3153 1.58871 9.48043 1.5203C9.64556 1.45188 9.82256 1.41667 10.0013 1.41667C10.18 1.41667 10.357 1.45188 10.5222 1.5203C10.6873 1.58872 10.8374 1.689 10.9637 1.81541L14.0096 4.86138L15.3303 3.55809C15.289 3.31509 15.3142 3.06437 15.4048 2.83305C15.5141 2.55381 15.7126 2.31846 15.9693 2.1635C16.2261 2.00855 16.5268 1.94266 16.8248 1.97606C17.1228 2.00945 17.4015 2.14026 17.6176 2.3482C17.8337 2.55613 17.9751 2.82957 18.0199 3.12609C18.0648 3.4226 18.0105 3.72563 17.8655 3.98815C17.7206 4.25067 17.493 4.45801 17.2182 4.57801C16.9879 4.67857 16.7351 4.71308 16.488 4.67917L15.1489 6.00077L18.1859 9.03758C18.1859 9.03758 18.1859 9.03759 18.1859 9.03758C18.3123 9.16395 18.4126 9.314 18.481 9.47913C18.5494 9.64426 18.5846 9.82125 18.5846 10C18.5846 10.1787 18.5494 10.3557 18.481 10.5209C18.4126 10.686 18.3123 10.8361 18.1859 10.9624ZM18.0091 9.21439C18.1123 9.31754 18.1942 9.44002 18.25 9.57482C18.3059 9.70961 18.3346 9.85409 18.3346 10C18.3346 10.1459 18.3059 10.2904 18.25 10.4252C18.1942 10.56 18.1123 10.6825 18.0091 10.7856L14.7943 14.0004L16.4058 15.5908C16.6429 15.5323 16.8928 15.5537 17.1166 15.6517C17.3403 15.7496 17.5256 15.9186 17.6435 16.1325C17.7615 16.3464 17.8056 16.5933 17.769 16.8348C17.7325 17.0763 17.6172 17.299 17.4412 17.4684C17.2652 17.6378 17.0382 17.7443 16.7955 17.7716C16.5527 17.7989 16.3077 17.7453 16.0985 17.6192C15.8893 17.4931 15.7276 17.3015 15.6383 17.0741C15.549 16.8467 15.5373 16.5963 15.6049 16.3615L14.0086 14.7862L10.787 18.0078C10.6839 18.111 10.5614 18.1929 10.4266 18.2487C10.2918 18.3046 10.1473 18.3333 10.0014 18.3333C9.8555 18.3333 9.71103 18.3046 9.57623 18.2487C9.44143 18.1929 9.31896 18.111 9.2158 18.0078L6.00102 14.793L4.41074 16.4046C4.46915 16.6418 4.44772 16.8915 4.34975 17.1153C4.25178 17.339 4.08275 17.5241 3.86886 17.642C3.65497 17.7599 3.40816 17.804 3.16669 17.7674C2.92523 17.7307 2.70258 17.6155 2.53327 17.4395C2.36395 17.2635 2.25743 17.0365 2.2302 16.7938C2.20297 16.5511 2.25657 16.3062 2.38267 16.097C2.50878 15.8879 2.70035 15.7262 2.9277 15.6369C3.15505 15.5477 3.40549 15.536 3.64018 15.6036L5.21507 14.0072L1.99346 10.7856C1.89027 10.6825 1.80841 10.56 1.75256 10.4252C1.69671 10.2904 1.66797 10.1459 1.66797 10C1.66797 9.85409 1.69671 9.70961 1.75256 9.57482C1.80841 9.44002 1.89027 9.31754 1.99346 9.21439L5.21517 5.99284L3.64018 4.39644C3.40496 4.46451 3.15384 4.45305 2.92579 4.36383C2.69775 4.27461 2.50552 4.11263 2.37893 3.90301C2.25234 3.69339 2.19847 3.44785 2.22567 3.20449C2.25287 2.96113 2.35963 2.73355 2.52938 2.55705C2.69913 2.38056 2.92238 2.26502 3.1645 2.22836C3.40662 2.1917 3.65407 2.23597 3.86846 2.3543C4.08285 2.47263 4.25219 2.6584 4.35022 2.8828C4.44825 3.1072 4.46949 3.35768 4.41063 3.59538L6.00091 5.207L9.21569 1.99216C9.31885 1.88897 9.44132 1.80711 9.57612 1.75126C9.71091 1.69541 9.85539 1.66667 10.0013 1.66667C10.1472 1.66667 10.2917 1.69541 10.4265 1.75126C10.5613 1.80711 10.6838 1.88897 10.7869 1.99216L14.0085 5.21377L15.6048 3.63849C15.5368 3.40327 15.5483 3.15219 15.6376 2.9242C15.7269 2.69621 15.8889 2.50406 16.0985 2.37754C16.3081 2.25103 16.5537 2.19724 16.797 2.2245C17.0403 2.25177 17.2678 2.35857 17.4443 2.52834C17.6207 2.69811 17.7362 2.92136 17.7728 3.16346C17.8094 3.40555 17.765 3.65296 17.6467 3.8673C17.5283 4.08163 17.3425 4.25092 17.1181 4.34889C16.8938 4.44687 16.6433 4.46805 16.4056 4.40916L14.7942 5.99961L18.0091 9.21439ZM10.0013 17.2222L2.77907 10L10.0013 2.77777L17.2235 10L10.0013 17.2222ZM16.87 10L10.0013 16.8687L3.13262 10L10.0013 3.13132L16.87 10Z" fill="#3D3D3D"/>
</svg>
