<svg width="16" height="16" viewBox="0 0 16 16" fill="none"
    xmlns="http://www.w3.org/2000/svg">
    <path fill-rule="evenodd" clip-rule="evenodd" d="M8.00027 1.3335C7.37096 1.3335 7.01388 1.8163 6.80491 2.18121C6.58596 2.56355 6.36657 3.11145 6.10969 3.75296L6.0647 3.86531C5.90509 4.26386 5.80323 4.51603 5.70613 4.70105C5.61614 4.87251 5.55592 4.93421 5.50672 4.97085C5.45758 5.00744 5.38145 5.04734 5.19186 5.08421C4.98715 5.12402 4.71688 5.14909 4.2898 5.18739L4.08839 5.20546C3.45607 5.26214 2.9091 5.31116 2.50569 5.40651C2.10918 5.50023 1.58337 5.69838 1.39278 6.26596C1.20233 6.83312 1.50136 7.3086 1.76058 7.62306C2.02439 7.9431 2.43054 8.31315 2.90022 8.74109L3.27418 9.08184C3.53696 9.32131 3.70261 9.47303 3.82055 9.60083C3.93019 9.71962 3.96559 9.78366 3.984 9.83082C3.99554 9.86041 4.00515 9.89073 4.01274 9.92158C4.02485 9.97082 4.03277 10.0437 4.01152 10.2042C3.98867 10.3768 3.94059 10.5965 3.86365 10.9439L3.80863 11.1922C3.67905 11.7771 3.57006 12.269 3.52749 12.6468C3.48907 12.9878 3.46584 13.4906 3.80011 13.8634C3.97497 14.0584 4.20235 14.1989 4.45512 14.268C4.93881 14.4002 5.37795 14.1531 5.66493 13.9657C5.98298 13.758 6.37302 13.4397 6.83661 13.0613L6.86767 13.0359C7.19925 12.7653 7.41251 12.5921 7.58732 12.475C7.75225 12.3646 7.83309 12.3393 7.88619 12.3308C7.96176 12.3187 8.03877 12.3187 8.11434 12.3308C8.16744 12.3393 8.24828 12.3646 8.41321 12.475C8.58802 12.5921 8.80128 12.7653 9.13286 13.0359L9.16386 13.0612C9.62745 13.4396 10.0176 13.758 10.3356 13.9657C10.6226 14.1531 11.0617 14.4002 11.5454 14.268C11.7982 14.1989 12.0256 14.0584 12.2004 13.8634C12.5347 13.4906 12.5115 12.9878 12.473 12.6468C12.4305 12.269 12.3215 11.7771 12.1919 11.1922L12.1369 10.9439C12.0599 10.5965 12.0119 10.3768 11.989 10.2042C11.9678 10.0437 11.9757 9.97082 11.9878 9.92158C11.9954 9.89073 12.005 9.86041 12.0165 9.83082C12.0349 9.78366 12.0703 9.71962 12.18 9.60083C12.2979 9.47303 12.4636 9.32131 12.7264 9.08184L13.1003 8.74108C13.57 8.31315 13.9761 7.9431 14.24 7.62305C14.4992 7.3086 14.7982 6.83312 14.6078 6.26596C14.4172 5.69838 13.8914 5.50023 13.4948 5.40651C13.0914 5.31116 12.5445 5.26214 11.9121 5.20546L11.7107 5.18739C11.2837 5.14909 11.0134 5.12402 10.8087 5.08421C10.6191 5.04734 10.543 5.00744 10.4938 4.97085C10.4446 4.93421 10.3844 4.87251 10.2944 4.70105C10.1973 4.51603 10.0954 4.26386 9.93583 3.86532L9.89084 3.75296C9.63396 3.11145 9.41457 2.56355 9.19562 2.18121C8.98665 1.8163 8.62957 1.3335 8.00027 1.3335ZM8 10.9884C8.10864 10.9884 8.21728 10.997 8.3249 11.0142C8.64124 11.0648 8.906 11.2003 9.15521 11.3673C9.38871 11.5236 9.65084 11.7376 9.9532 11.9844L9.97592 12.0029C10.4787 12.4133 10.8134 12.6853 11.0646 12.8493C11.1003 12.8726 11.1313 12.8916 11.1579 12.9071C11.156 12.876 11.153 12.8392 11.1481 12.7961C11.1144 12.4975 11.022 12.0758 10.8815 11.4416L10.8295 11.2071C10.7598 10.8922 10.6985 10.6158 10.6672 10.3792C10.6334 10.1242 10.6272 9.87053 10.6931 9.60299C10.7146 9.51567 10.7417 9.42985 10.7744 9.34608C10.8746 9.08938 11.0257 8.88557 11.2001 8.69656C11.362 8.52123 11.5711 8.3307 11.8092 8.11373L12.1638 7.79061C12.683 7.31746 13.0157 7.01202 13.2111 6.77497C13.2274 6.75524 13.2416 6.73724 13.2541 6.7209C13.2345 6.71551 13.2126 6.70988 13.1881 6.70409C12.8896 6.63352 12.4403 6.59153 11.7411 6.52881L11.5607 6.51262C11.1736 6.47792 10.8342 6.4475 10.5541 6.39302C10.2515 6.33416 9.96333 6.23822 9.69746 6.04024C9.43166 5.84231 9.2571 5.59374 9.11377 5.32063C8.98107 5.06777 8.85429 4.75115 8.7096 4.38981L8.67259 4.2974C8.39074 3.59364 8.2053 3.13495 8.03858 2.8438C8.02486 2.81984 8.01209 2.79849 8.00027 2.77948C8.00018 2.77963 8.00035 2.77934 8.00027 2.77948L8 10.9884ZM8.10979 2.63563C8.10979 2.63592 8.10763 2.63793 8.10329 2.6408C8.10762 2.63678 8.10979 2.63535 8.10979 2.63563ZM13.4022 6.77692C13.4019 6.777 13.3995 6.77557 13.3956 6.77239C13.4005 6.77524 13.4025 6.77684 13.4022 6.77692ZM13.3355 6.59432C13.3367 6.58947 13.3378 6.58686 13.3381 6.58677C13.3383 6.58667 13.3377 6.58909 13.3355 6.59432Z" fill="currentColor"/>
</svg>
