<svg width="24" height="24" viewBox="0 0 24 24" fill="none" xmlns="http://www.w3.org/2000/svg">
<path d="M11 2.57735C11.6188 2.22008 12.3812 2.22008 13 2.57735L19.6603 6.42265C20.2791 6.77992 20.6603 7.44017 20.6603 8.1547V15.8453C20.6603 16.5598 20.2791 17.2201 19.6603 17.5774L13 21.4226C12.3812 21.7799 11.6188 21.7799 11 21.4226L4.33975 17.5774C3.72094 17.2201 3.33975 16.5598 3.33975 15.8453V8.1547C3.33975 7.44017 3.72094 6.77992 4.33975 6.42265L11 2.57735Z" fill="url(#paint0_linear_3304_9857)"/>
<path d="M13.5214 14.5C13.4814 14.5 13.4474 14.486 13.4194 14.458C13.3914 14.43 13.3774 14.396 13.3774 14.356V11.038H12.2674C12.2274 11.038 12.1934 11.024 12.1654 10.996C12.1374 10.968 12.1234 10.934 12.1234 10.894V10.45C12.1234 10.406 12.1374 10.37 12.1654 10.342C12.1934 10.314 12.2274 10.3 12.2674 10.3H15.3274C15.3714 10.3 15.4074 10.314 15.4354 10.342C15.4634 10.37 15.4774 10.406 15.4774 10.45V10.894C15.4774 10.934 15.4634 10.968 15.4354 10.996C15.4074 11.024 15.3714 11.038 15.3274 11.038H14.2234V14.356C14.2234 14.396 14.2094 14.43 14.1814 14.458C14.1534 14.486 14.1174 14.5 14.0734 14.5H13.5214Z" fill="#0E4A9B"/>
<path d="M8.99384 14.5C8.95384 14.5 8.91984 14.486 8.89184 14.458C8.86384 14.43 8.84984 14.396 8.84984 14.356V10.45C8.84984 10.406 8.86384 10.37 8.89184 10.342C8.91984 10.314 8.95384 10.3 8.99384 10.3H11.5978C11.6418 10.3 11.6778 10.314 11.7058 10.342C11.7338 10.37 11.7478 10.406 11.7478 10.45V10.87C11.7478 10.914 11.7338 10.95 11.7058 10.978C11.6778 11.002 11.6418 11.014 11.5978 11.014H9.67184V12.154H11.4778C11.5218 12.154 11.5578 12.168 11.5858 12.196C11.6138 12.224 11.6278 12.26 11.6278 12.304V12.724C11.6278 12.764 11.6138 12.798 11.5858 12.826C11.5578 12.854 11.5218 12.868 11.4778 12.868H9.67184V14.356C9.67184 14.396 9.65784 14.43 9.62984 14.458C9.60184 14.486 9.56584 14.5 9.52184 14.5H8.99384Z" fill="#0E4A9B"/>
<defs>
<linearGradient id="paint0_linear_3304_9857" x1="12" y1="2" x2="12" y2="22" gradientUnits="userSpaceOnUse">
<stop stop-color="#EAF1FC"/>
<stop offset="1" stop-color="#B5C8DF"/>
</linearGradient>
</defs>
</svg>
