<svg width="16" height="16" viewBox="0 0 16 16" fill="none" xmlns="http://www.w3.org/2000/svg">
    <path
        d="M16 8C16 12.4183 12.4183 16 8 16C3.58172 16 0 12.4183 0 8C0 3.58172 3.58172 0 8 0C12.4183 0 16 3.58172 16 8Z"
        fill="white" />
    <path fill-rule="evenodd" clip-rule="evenodd"
        d="M8 14.6667C11.6819 14.6667 14.6667 11.6819 14.6667 8C14.6667 4.3181 11.6819 1.33333 8 1.33333C4.3181 1.33333 1.33333 4.3181 1.33333 8C1.33333 11.6819 4.3181 14.6667 8 14.6667ZM8 16C12.4183 16 16 12.4183 16 8C16 3.58172 12.4183 0 8 0C3.58172 0 0 3.58172 0 8C0 12.4183 3.58172 16 8 16Z"
        fill="#8F8F8F" />
    <path
        d="M6.89385 9.28742V8.89536C6.89385 8.65519 6.93049 8.44327 7.00376 8.2596C7.07703 8.07241 7.19465 7.89581 7.35662 7.7298C7.51858 7.56026 7.73261 7.3872 7.9987 7.2106C8.23779 7.05519 8.42868 6.91567 8.57137 6.79205C8.71791 6.66843 8.82396 6.54658 8.88951 6.42649C8.95893 6.30287 8.99364 6.16336 8.99364 6.00795C8.99364 5.77837 8.90108 5.60353 8.71598 5.48344C8.53087 5.36336 8.2725 5.30331 7.94085 5.30331C7.60921 5.30331 7.27949 5.35099 6.9517 5.44636C6.62777 5.54172 6.29805 5.66711 5.96254 5.82252L5.33203 4.66225C5.71767 4.46446 6.13608 4.30552 6.58727 4.18543C7.03847 4.06181 7.53208 4 8.06811 4C8.89337 4 9.5316 4.1819 9.98279 4.5457C10.4378 4.90596 10.6654 5.36512 10.6654 5.92318C10.6654 6.21987 10.6133 6.4777 10.5092 6.69669C10.4089 6.91214 10.2547 7.11347 10.0464 7.30066C9.84203 7.48433 9.58559 7.67859 9.27708 7.88344C9.0457 8.03885 8.86831 8.16954 8.7449 8.2755C8.6215 8.38146 8.53666 8.48742 8.49038 8.59338C8.44796 8.69581 8.42675 8.82119 8.42675 8.96954V9.28742H6.89385ZM6.70875 11.0993C6.70875 10.7673 6.80709 10.5342 7.00376 10.4C7.20429 10.2658 7.44531 10.1987 7.72683 10.1987C8.00063 10.1987 8.23586 10.2658 8.43254 10.4C8.63307 10.5342 8.73333 10.7673 8.73333 11.0993C8.73333 11.4172 8.63307 11.6468 8.43254 11.7881C8.23586 11.9294 8.00063 12 7.72683 12C7.44531 12 7.20429 11.9294 7.00376 11.7881C6.80709 11.6468 6.70875 11.4172 6.70875 11.0993Z"
        fill="#FFA7AC" />
</svg>
    