<svg xmlns="http://www.w3.org/2000/svg" fill="none" viewBox="0 0 20 20">
  <path fill="currentColor" d="m6.877 13.584-.455.455a.29.29 0 0 1-.419 0L1.76 9.795a.29.29 0 0 1 0-.419l4.244-4.244a.29.29 0 0 1 .42 0l.454.456a.29.29 0 0 1 0 .419l-3.58 3.579 3.58 3.58a.29.29 0 0 1 0 .418m5.383-9.718L8.863 15.624a.3.3 0 0 1-.141.178.25.25 0 0 1-.214.023l-.565-.155a.3.3 0 0 1-.178-.142.27.27 0 0 1-.022-.223L11.14 3.548a.3.3 0 0 1 .14-.178.25.25 0 0 1 .215-.023l.565.155a.3.3 0 0 1 .177.141q.06.105.023.223m5.984 5.93L14 14.038a.3.3 0 0 1-.21.091.3.3 0 0 1-.21-.09l-.455-.456a.29.29 0 0 1 0-.419l3.58-3.58-3.58-3.578a.29.29 0 0 1 0-.42l.456-.455a.29.29 0 0 1 .418 0l4.245 4.244a.29.29 0 0 1 0 .42"/>
  <path fill="currentColor" fill-rule="evenodd" d="M9.02 15.673a.46.46 0 0 1-.218.274.42.42 0 0 1-.344.037l-.565-.155a.46.46 0 0 1-.274-.219.44.44 0 0 1-.037-.352l3.397-11.76a.46.46 0 0 1 .219-.273.42.42 0 0 1 .344-.037l.565.155q.18.055.274.218c.063.11.074.232.037.353zm3.24-11.807L8.862 15.624a.3.3 0 0 1-.142.178.25.25 0 0 1-.214.022l-.564-.154a.3.3 0 0 1-.178-.142.27.27 0 0 1-.023-.223l3.397-11.757a.3.3 0 0 1 .142-.178.25.25 0 0 1 .214-.023l.564.155a.3.3 0 0 1 .178.141q.06.105.023.223m-5.265 9.836-.455.455a.455.455 0 0 1-.655 0L1.64 9.913a.454.454 0 0 1 0-.655l4.244-4.244a.454.454 0 0 1 .655 0l.455.456a.454.454 0 0 1 0 .654L3.533 9.586l3.461 3.461a.454.454 0 0 1 0 .655M3.297 9.586l3.58 3.579a.29.29 0 0 1 0 .419l-.456.455a.29.29 0 0 1-.42 0L1.759 9.795a.29.29 0 0 1 0-.419l4.244-4.244a.29.29 0 0 1 .419 0l.455.456a.29.29 0 0 1 0 .419zm15.063.327-4.244 4.244a.454.454 0 0 1-.655 0l-.455-.455a.454.454 0 0 1 0-.655l3.461-3.461-3.461-3.462a.454.454 0 0 1 0-.654l.455-.456a.454.454 0 0 1 .655 0l4.244 4.244a.454.454 0 0 1 0 .655m-1.657-.327-3.58 3.579a.29.29 0 0 0 0 .419l.456.455a.29.29 0 0 0 .42 0l4.243-4.244a.29.29 0 0 0 0-.419l-4.244-4.244a.29.29 0 0 0-.419 0l-.455.456a.29.29 0 0 0 0 .419z" clip-rule="evenodd"/>
</svg>
