<svg xmlns="http://www.w3.org/2000/svg" fill="none" viewBox="0 0 16 16">
  <path fill="currentColor" d="M3.63 1.445a.667.667 0 0 1 .74 1.11l-2 1.333a.667.667 0 0 1-.74-1.11zm7.816.185a.667.667 0 0 1 .924-.185l2 1.334a.667.667 0 0 1-.74 1.11l-2-1.334a.667.667 0 0 1-.184-.925M8.667 6a.667.667 0 0 0-1.333 0v3.333c0 .253.142.484.368.597l1.333.666a.667.667 0 1 0 .597-1.192l-.965-.483z"/>
  <path fill="currentColor" fill-rule="evenodd" d="M8 2.667a6 6 0 1 0 0 12 6 6 0 0 0 0-12m-4.666 6a4.667 4.667 0 1 1 9.333 0 4.667 4.667 0 0 1-9.333 0" clip-rule="evenodd"/>
</svg>
