<svg xmlns="http://www.w3.org/2000/svg" fill="none" viewBox="0 0 18 18">
  <path fill="#3D3D3D" d="M9.556 10.213V7.787a1.667 1.667 0 1 0-1.112 0v2.427a1.666 1.666 0 1 0 1.111 0M9 5.667a.556.556 0 1 1 0 1.11.556.556 0 0 1 0-1.11m0 6.666a.555.555 0 1 1 0-1.11.555.555 0 0 1 0 1.11"/>
  <path fill="#3D3D3D" fill-rule="evenodd" d="M9.806 10.046A1.918 1.918 0 0 1 9 13.702a1.916 1.916 0 0 1-.806-3.656V7.954a1.917 1.917 0 1 1 1.611 0zm-.25-2.26v2.427a1.667 1.667 0 1 1-1.112 0V7.788a1.667 1.667 0 1 1 1.111 0M9.17 5.969A.3.3 0 0 0 9 5.917v-.25.25a.306.306 0 0 0-.306.305h-.25m.386 5.81a.305.305 0 0 0 .476-.254h.25-.25a.306.306 0 1 0-.476.254" clip-rule="evenodd"/>
  <path fill="#3D3D3D" d="M17.008 9.786a1.11 1.11 0 0 0 0-1.572L13.793 5l1.611-1.59a1.112 1.112 0 1 0-.8-.771l-1.597 1.575L9.786.992a1.11 1.11 0 0 0-1.572 0L5 4.207 3.41 2.595a1.112 1.112 0 1 0-.771.801l1.575 1.597L.992 8.214a1.11 1.11 0 0 0 0 1.572l3.222 3.221-1.575 1.597a1.11 1.11 0 1 0 .77.8L5 13.794l3.215 3.215a1.11 1.11 0 0 0 1.572 0l3.221-3.222 1.597 1.576a1.11 1.11 0 1 0 .8-.771L13.793 13zM9 16.222 1.778 9 9 1.778 16.222 9z"/>
  <path fill="#3D3D3D" fill-rule="evenodd" d="M17.185 9.962 14.148 13l1.339 1.322a1.36 1.36 0 1 1-1.158 1.121l-1.32-1.303-3.047 3.046a1.36 1.36 0 0 1-1.924 0L5 14.148l-1.322 1.34a1.36 1.36 0 1 1-1.12-1.159l1.302-1.32L.815 9.961a1.36 1.36 0 0 1 0-1.924l3.046-3.046L2.558 3.67A1.362 1.362 0 1 1 3.68 2.513l1.322 1.34L8.038.814a1.36 1.36 0 0 1 1.924 0l3.046 3.046 1.321-1.303a1.362 1.362 0 1 1 1.158 1.121L14.147 5l3.038 3.037a1.36 1.36 0 0 1 0 1.924m-.177-1.748a1.11 1.11 0 0 1 0 1.572L13.793 13l1.611 1.59a1.11 1.11 0 1 1-.8.771l-1.597-1.575-3.221 3.222a1.11 1.11 0 0 1-1.572 0L5 13.793l-1.59 1.612a1.11 1.11 0 1 1-.771-.801l1.575-1.597L.992 9.786a1.11 1.11 0 0 1 0-1.572l3.222-3.221-1.575-1.597a1.112 1.112 0 1 1 .77-.8L5 4.206 8.215.992a1.11 1.11 0 0 1 1.572 0l3.221 3.222 1.596-1.575a1.113 1.113 0 1 1 .801.77L13.793 5zM9 16.222 1.778 9 9 1.778 16.222 9zM15.869 9 9 15.869 2.131 9 9 2.131z" clip-rule="evenodd"/>
</svg>
