<svg xmlns="http://www.w3.org/2000/svg" fill="none" viewBox="0 0 25 24">
  <path fill="currentColor" d="M14.484 9.516a.82.82 0 0 1-.82-.82V6H9.47c-.711 0-1.29.578-1.29 1.29v9.42c0 .712.579 1.29 1.29 1.29h6.562c.711 0 1.29-.578 1.29-1.29V9.517zm-4.382 4.922h1.704a.352.352 0 1 1 0 .703h-1.704a.352.352 0 1 1 0-.703m-.352-1.524c0-.194.157-.351.352-.351h5.156a.352.352 0 1 1 0 .703h-5.156a.35.35 0 0 1-.352-.352m5.508-2.226a.352.352 0 1 1 0 .703h-5.156a.352.352 0 1 1 0-.703z"/>
  <path fill="currentColor" d="M14.367 8.695c0 .065.053.118.117.118h2.68a1.3 1.3 0 0 0-.247-.322l-2.26-2.138a1.3 1.3 0 0 0-.29-.207z"/>
</svg>
