<svg xmlns="http://www.w3.org/2000/svg" fill="none" viewBox="0 0 24 24">
  <path fill="currentColor" fill-rule="evenodd" d="M8 6.45A3.25 3.25 0 0 0 4.75 9.7V17A3.25 3.25 0 0 0 8 20.25h8A3.25 3.25 0 0 0 19.25 17V9.7A3.25 3.25 0 0 0 16 6.45zM3.25 9.7A4.75 4.75 0 0 1 8 4.95h8a4.75 4.75 0 0 1 4.75 4.75V17A4.75 4.75 0 0 1 16 21.75H8A4.75 4.75 0 0 1 3.25 17z" clip-rule="evenodd"/>
  <path fill="currentColor" fill-rule="evenodd" d="M8.398 2.25a.75.75 0 0 1 .75.75v2.7a.75.75 0 0 1-1.5 0V3a.75.75 0 0 1 .75-.75m7.204 0a.75.75 0 0 1 .75.75v2.7a.75.75 0 0 1-1.5 0V3a.75.75 0 0 1 .75-.75M3.898 9.45h16.2v1.5h-16.2zM7.54 13.8a.75.75 0 0 1 .75-.75h.22a.75.75 0 0 1 0 1.5h-.22a.75.75 0 0 1-.75-.75m3.03 0a.75.75 0 0 1 .75-.75h1.36a.75.75 0 0 1 0 1.5h-1.36a.75.75 0 0 1-.75-.75m4.172 0a.75.75 0 0 1 .75-.75h.22a.75.75 0 0 1 0 1.5h-.22a.75.75 0 0 1-.75-.75M7.54 17.398a.75.75 0 0 1 .75-.75h1.62a.75.75 0 1 1 0 1.5H8.29a.75.75 0 0 1-.75-.75m4.39 0a.75.75 0 0 1 .75-.75h.22a.75.75 0 0 1 0 1.5h-.22a.75.75 0 0 1-.75-.75m2.812 0a.75.75 0 0 1 .75-.75h.22a.75.75 0 0 1 0 1.5h-.22a.75.75 0 0 1-.75-.75" clip-rule="evenodd"/>
</svg>
