<svg xmlns="http://www.w3.org/2000/svg" fill="none" viewBox="0 0 20 20">
  <path fill="currentColor" fill-rule="evenodd" d="m18.831 9.14-3.45-3.446a1.15 1.15 0 0 0-1.624 1.624l2.634 2.64-2.634 2.625a1.148 1.148 0 0 0 1.625 1.622l3.45-3.443a1.15 1.15 0 0 0 0-1.623M6.243 5.693a1.15 1.15 0 0 0-1.624 0l-3.45 3.445a1.15 1.15 0 0 0 0 1.625l3.45 3.441a1.148 1.148 0 1 0 1.624-1.622L3.61 9.959l2.634-2.64a1.15 1.15 0 0 0 0-1.625m5.849-3.126a1.157 1.157 0 0 0-1.477.692l-3.4 12.604a1.16 1.16 0 0 0 2.17.793l3.398-12.604a1.16 1.16 0 0 0-.692-1.485" clip-rule="evenodd"/>
</svg>
