<svg xmlns="http://www.w3.org/2000/svg" fill="none" viewBox="0 0 16 16">
  <path fill="currentColor" fill-rule="evenodd" d="M11.33 6h-4c-.736 0-1.333.597-1.333 1.334v4c0 .736.597 1.333 1.334 1.333h4c.736 0 1.333-.597 1.333-1.333v-4c0-.737-.597-1.334-1.333-1.334m-4-1.333a2.667 2.667 0 0 0-2.666 2.667v4A2.667 2.667 0 0 0 7.331 14h4a2.667 2.667 0 0 0 2.666-2.666v-4a2.667 2.667 0 0 0-2.666-2.667z" clip-rule="evenodd"/>
  <path fill="currentColor" fill-rule="evenodd" d="M4.667 3.333h4c.736 0 1.333.597 1.333 1.334h1.333A2.667 2.667 0 0 0 8.667 2h-4A2.667 2.667 0 0 0 2 4.667v4a2.667 2.667 0 0 0 2.667 2.666V10a1.333 1.333 0 0 1-1.334-1.333v-4c0-.737.597-1.334 1.334-1.334" clip-rule="evenodd"/>
</svg>
