<svg xmlns="http://www.w3.org/2000/svg" fill="none" viewBox="0 0 16 16">
  <path fill="currentColor" fill-rule="evenodd" d="M11.266 4a3.334 3.334 0 0 0-6.533 0H2a.667.667 0 0 0 0 1.334h.712l.446 6.238a3.333 3.333 0 0 0 3.325 3.095h3.034c1.749 0 3.2-1.351 3.325-3.095l.445-6.238H14a.667.667 0 1 0 0-1.333zM8 2.668a2 2 0 0 0-1.887 1.334h3.773A2 2 0 0 0 8 2.667m-1.334 4c.369 0 .667.299.667.667v4a.667.667 0 1 1-1.333 0v-4c0-.368.298-.667.666-.667M10 7.334a.667.667 0 1 0-1.334 0v4a.667.667 0 1 0 1.334 0z" clip-rule="evenodd"/>
</svg>
