<svg xmlns="http://www.w3.org/2000/svg" fill="none" viewBox="0 0 20 20">
  <path fill="#3D3D3D" fill-rule="evenodd" d="M5.717 3.075a.88.88 0 0 0-.884.883V15.95c0 .49.394.884.884.884h8.566c.477 0 .878-.39.884-.888V3.958a.88.88 0 0 0-.884-.883zm-2.55.883c0-1.41 1.14-2.55 2.55-2.55h8.566c1.41 0 2.55 1.14 2.55 2.55v12a2.56 2.56 0 0 1-2.55 2.542H5.717c-1.41 0-2.55-1.14-2.55-2.55z" clip-rule="evenodd"/>
  <path fill="#3D3D3D" fill-rule="evenodd" d="M5.742 5.717c0-.46.373-.834.833-.834h.858a.833.833 0 1 1 0 1.667h-.858a.833.833 0 0 1-.833-.833m3.425 0c0-.46.373-.834.833-.834h3.425a.833.833 0 1 1 0 1.667H10a.833.833 0 0 1-.833-.833M5.742 10c0-.46.373-.833.833-.833h.858a.833.833 0 1 1 0 1.666h-.858A.833.833 0 0 1 5.742 10m3.425 0c0-.46.373-.833.833-.833h3.425a.833.833 0 1 1 0 1.666H10A.833.833 0 0 1 9.167 10m-3.425 4.283c0-.46.373-.833.833-.833h.858a.833.833 0 1 1 0 1.667h-.858a.833.833 0 0 1-.833-.834m3.425 0c0-.46.373-.833.833-.833h3.425a.833.833 0 1 1 0 1.667H10a.833.833 0 0 1-.833-.834" clip-rule="evenodd"/>
</svg>
