<svg xmlns="http://www.w3.org/2000/svg" fill="none" viewBox="0 0 16 16">
  <path fill="currentColor" d="M7.755 2.133a.61.61 0 0 1 .611.61v6.103l.79-.79a.611.611 0 1 1 .864.864l-1.833 1.834a.61.61 0 0 1-.864 0L5.49 8.92a.611.611 0 0 1 .864-.864l.79.79V2.744a.61.61 0 0 1 .611-.611"/>
  <path fill="currentColor" d="M3.355 10.444a.611.611 0 0 0-1.222 0v.611a3.056 3.056 0 0 0 3.055 3.056h5.134a3.056 3.056 0 0 0 3.055-3.056v-.611a.611.611 0 0 0-1.222 0v.611c0 1.013-.82 1.833-1.833 1.833H5.188a1.833 1.833 0 0 1-1.833-1.833z"/>
</svg>
