<svg xmlns="http://www.w3.org/2000/svg" fill="none" viewBox="0 0 20 20">
  <path fill="currentColor" d="M10.203 0a5 5 0 1 0 0 10 5 5 0 0 0 0-10m-.312 4.375h.625a1.562 1.562 0 0 1 .312 3.093V7.5a.625.625 0 1 1-1.25 0h-.625a.625.625 0 0 1 0-1.25h1.563a.313.313 0 1 0 0-.625H9.89a1.563 1.563 0 0 1-.313-3.093V2.5a.625.625 0 0 1 1.25 0h.625a.625.625 0 1 1 0 1.25H9.891a.312.312 0 1 0 0 .625m.937 6.844V17.5h-1.25v-6.281q.308.03.625.031.318-.001.625-.031m-4.472-1.137a3.6 3.6 0 0 0-3.574.212.63.63 0 0 0-.28.561 3.584 3.584 0 0 0 5.545 2.776.63.63 0 0 0 .28-.56 3.6 3.6 0 0 0-1.971-2.989"/>
  <path fill="currentColor" d="M10.204 15.703a.62.62 0 0 1-.531-.294A3.98 3.98 0 0 0 7.51 13.72a.625.625 0 1 1 .384-1.19 5.22 5.22 0 0 1 2.838 2.218.625.625 0 0 1-.53.955m7.422-4.159a3.58 3.58 0 0 0-5.545 2.776.63.63 0 0 0 .281.56 3.58 3.58 0 0 0 5.545-2.775.63.63 0 0 0-.28-.56"/>
  <path fill="currentColor" d="M10.203 16.953a.625.625 0 0 1-.53-.955 5.22 5.22 0 0 1 2.84-2.218.624.624 0 0 1 .755.882.62.62 0 0 1-.372.308 3.98 3.98 0 0 0-2.162 1.689.63.63 0 0 1-.53.294M12.703 20h-5a.625.625 0 1 1 0-1.25h5a.625.625 0 1 1 0 1.25"/>
</svg>
