<svg width="120" height="120" viewBox="0 0 120 120" fill="none"
  xmlns="http://www.w3.org/2000/svg">
  <g clip-path="url(#clip0_10886_339867)">
    <path d="M60.2267 113.453C89.6229 113.453 113.453 89.6229 113.453 60.2267C113.453 30.8304 89.6229 7 60.2267 7C30.8304 7 7 30.8304 7 60.2267C7 89.6229 30.8304 113.453 60.2267 113.453Z" fill="url(#paint0_linear_10886_339867)" />
    <path d="M78.3096 46.7138C78.3096 35.2767 68.9531 26 57.4177 26C45.8823 26 36.5258 35.2767 36.5258 46.7138C36.5258 48.2088 36.6917 49.6665 36.9933 51.0718C29.0617 52.365 23 59.1898 23 67.4275C23 76.5846 30.4867 84 39.715 84H78.1965C88.5784 84 97 75.6502 97 65.3569C97 55.0635 88.6387 46.7736 78.3096 46.7138Z" fill="white" stroke="#8F8F8F" stroke-miterlimit="10" />
    <path d="M113 99.1641L104.106 90.301C107.892 85.9236 110.192 80.2285 110.192 74.0099C110.192 60.2188 98.9349 49 85.0962 49C71.2575 49 60 60.2188 60 74.0099C60 87.8009 71.2575 99.0197 85.0962 99.0197C90.7385 99.0197 95.9462 97.1514 100.139 94.0105L109.16 103L113 99.1732V99.1641ZM65.434 74.0008C65.434 63.1972 74.2553 54.4063 85.0962 54.4063C95.9371 54.4063 104.758 63.1972 104.758 74.0008C104.758 84.8044 95.9371 93.5954 85.0962 93.5954C74.2553 93.5954 65.434 84.8044 65.434 74.0008Z" fill="#DEDEDE" />
    <path d="M104.106 90.301L113 99.1641V99.1732M104.106 90.301C107.892 85.9236 110.192 80.2285 110.192 74.0099C110.192 60.2188 98.9349 49 85.0962 49C71.2575 49 60 60.2188 60 74.0099C60 87.8009 71.2575 99.0197 85.0962 99.0197C90.7385 99.0197 95.9462 97.1514 100.139 94.0105L109.16 103L113 99.1732M104.106 90.301L113 99.1732M65.434 74.0008C65.434 63.1972 74.2553 54.4063 85.0962 54.4063C95.9371 54.4063 104.758 63.1972 104.758 74.0008C104.758 84.8044 95.9371 93.5954 85.0962 93.5954C74.2553 93.5954 65.434 84.8044 65.434 74.0008Z" stroke="#8F8F8F" stroke-miterlimit="10" />
  </g>
  <defs>
    <linearGradient id="paint0_linear_10886_339867" x1="60.2266" y1="113.667" x2="60.2266" y2="7" gradientUnits="userSpaceOnUse">
      <stop stop-color="white" stop-opacity="0" />
      <stop offset="1" stop-color="#E7E7E7" />
    </linearGradient>
    <clipPath id="clip0_10886_339867">
      <rect width="120" height="120" fill="white" />
    </clipPath>
  </defs>
</svg>
  