<svg xmlns="http://www.w3.org/2000/svg" fill="none" viewBox="0 0 11 10">
  <path fill="#fff" d="m2.854 9.9-1.37-1.027a.59.59 0 0 1-.249-.436q-.03-.31.093-.498 0-.03.187-.218l2.242-2.055-3.051-.342a1 1 0 0 0-.187-.031q-.031-.031-.062-.031-.218-.063-.374-.312a.88.88 0 0 1-.062-.56l.56-1.62q.063-.248.343-.373.279-.125.498-.062.03 0 .249.093l2.677 1.526-.622-3.02a1 1 0 0 1-.032-.156V.685q0-.25.187-.467A.7.7 0 0 1 4.38 0h1.713a.59.59 0 0 1 .467.218q.218.217.218.467v.093q0 .031-.031.156l-.623 3.02L8.83 2.428q.219-.093.25-.093a.7.7 0 0 1 .498.062q.279.125.342.374l.56 1.619a.78.78 0 0 1-.093.56.56.56 0 0 1-.373.312q-.031 0-.094.03a.5.5 0 0 0-.124.032l-3.083.342 2.273 2.055q.187.187.187.218.156.187.124.498a.57.57 0 0 1-.28.436L7.648 9.9a.93.93 0 0 1-.529.094.59.59 0 0 1-.436-.25q0-.03-.03-.062a.7.7 0 0 1-.094-.155L5.25 6.694 3.944 9.527q-.031.125-.094.155-.03.031-.031.063-.124.217-.436.249a.93.93 0 0 1-.53-.094"/>
</svg>
