<svg xmlns="http://www.w3.org/2000/svg" fill="none" viewBox="0 0 22 22">
  <path fill="currentColor" fill-rule="evenodd" d="M10 12c0-1.102.898-2 2-2h2.12a1 1 0 0 1 1 1c0 .278.222.5.5.5s.5-.222.5-.5a1 1 0 0 1 1-1h2.12a2 2 0 0 1 2.01 2v7.25c0 1.112-.888 2-2 2H12c-1.096 0-2-.881-2-2v-1.328a2.5 2.5 0 0 1-1.5-2.292c0-1.027.616-1.907 1.5-2.293zm3.328 0H12v2.13a1 1 0 0 1-1 1c-.278 0-.5.222-.5.5s.222.5.5.5a1 1 0 0 1 1 1v2.12h7.25V12h-1.337a2.5 2.5 0 0 1-2.293 1.5 2.5 2.5 0 0 1-2.292-1.5" clip-rule="evenodd"/>
  <path fill="currentColor" fill-rule="evenodd" d="M6.37 10.5c-.278 0-.5.222-.5.5a1 1 0 0 1-1 1H2.75v7.24H10v-1.327a2.5 2.5 0 0 1-1.5-2.293c0-1.027.616-1.907 1.5-2.292V12H7.87a1 1 0 0 1-1-1c0-.278-.222-.5-.5-.5M4.077 10A2.5 2.5 0 0 1 6.37 8.5c1.027 0 1.907.616 2.292 1.5H10c1.102 0 2 .898 2 2v2.12a1 1 0 0 1-1 1c-.278 0-.5.222-.5.5s.222.5.5.5a1 1 0 0 1 1 1v2.12c0 1.119-.904 2-2 2H2.75c-1.112 0-2-.888-2-2V12c0-1.096.881-2 2-2z" clip-rule="evenodd"/>
  <path fill="currentColor" fill-rule="evenodd" d="M.76 2.75c0-1.112.887-2 2-2H10c1.095 0 2 .881 2 2v1.327a2.51 2.51 0 0 1 1.5 2.303A2.5 2.5 0 0 1 12 8.673V10c0 1.102-.898 2-2 2H7.88a1 1 0 0 1-1-1c0-.278-.223-.5-.5-.5-.278 0-.5.222-.5.5a1 1 0 0 1-1 1H2.76c-1.119 0-2-.904-2-2zm9.24 0H2.76V10h1.327A2.5 2.5 0 0 1 6.38 8.5c1.026 0 1.907.616 2.292 1.5H10V7.88a1 1 0 0 1 1-1c.277 0 .5-.222.5-.5a.5.5 0 0 0-.5-.51 1 1 0 0 1-1-1z" clip-rule="evenodd"/>
</svg>
