<svg xmlns="http://www.w3.org/2000/svg" fill="none" viewBox="0 0 22 22">
  <path fill="#3D3D3D" fill-rule="evenodd" d="M10.623.824a1 1 0 0 1 .754 0l9.25 3.76a1 1 0 0 1 0 1.852l-9.25 3.77a1 1 0 0 1-.754 0l-9.25-3.77a1 1 0 0 1 0-1.852zM4.403 5.51 11 8.201l6.597-2.69L11 2.83z" clip-rule="evenodd"/>
  <path fill="#3D3D3D" fill-rule="evenodd" d="M1.192 4.682a1 1 0 0 1 .935-.096l9.25 3.77a1 1 0 0 1 .623.926v10.97a1 1 0 0 1-1.377.926l-9.25-3.76a1 1 0 0 1-.623-.926V5.512a1 1 0 0 1 .442-.83M2.75 6.999v8.82L10 18.766V9.954z" clip-rule="evenodd"/>
  <path fill="#3D3D3D" fill-rule="evenodd" d="M20.808 4.682a1 1 0 0 1 .442.83v10.98a1 1 0 0 1-.623.926l-9.25 3.76A1 1 0 0 1 10 20.252V9.282a1 1 0 0 1 .623-.926l9.25-3.77a1 1 0 0 1 .935.096M12 9.954v8.812l7.25-2.947v-8.82z" clip-rule="evenodd"/>
</svg>
