<svg xmlns="http://www.w3.org/2000/svg" fill="none" viewBox="0 0 20 20">
  <path fill="currentColor" fill-rule="evenodd" d="M7.27 1.983a11.96 11.96 0 0 1 5.463 0 7.09 7.09 0 0 1 5.286 5.285 11.96 11.96 0 0 1 0 5.464 7.09 7.09 0 0 1-5.286 5.285 11.96 11.96 0 0 1-5.463 0 7.09 7.09 0 0 1-5.286-5.285 11.96 11.96 0 0 1 0-5.464A7.09 7.09 0 0 1 7.27 1.983m5.082 1.622a10.3 10.3 0 0 0-4.702 0A5.43 5.43 0 0 0 3.607 7.65a10.3 10.3 0 0 0 0 4.702 5.43 5.43 0 0 0 4.043 4.044c1.547.362 3.156.362 4.702 0a5.43 5.43 0 0 0 4.044-4.044 10.3 10.3 0 0 0 0-4.702 5.43 5.43 0 0 0-4.044-4.044" clip-rule="evenodd"/>
  <path fill="currentColor" fill-rule="evenodd" d="M9.168 9.583a.833.833 0 0 1 1.667 0v3.334a.833.833 0 0 1-1.667 0zm.833-1.25a.833.833 0 1 0 0-1.666.833.833 0 0 0 0 1.666" clip-rule="evenodd"/>
</svg>
