<svg xmlns="http://www.w3.org/2000/svg" fill="none" viewBox="0 0 21 20">
  <g fill="#02813D" fill-rule="evenodd" clip-rule="evenodd">
    <path d="M5.666 6.667a3.333 3.333 0 1 0 0 6.666h2.5a.833.833 0 0 1 0 1.667h-2.5a5 5 0 1 1 0-10h2.5a.833.833 0 0 1 0 1.667zm6.667-.834c0-.46.373-.833.833-.833h2.5a5 5 0 1 1 0 10h-2.5a.833.833 0 0 1 0-1.667h2.5a3.333 3.333 0 1 0 0-6.666h-2.5a.833.833 0 0 1-.833-.834"/>
    <path d="M6.5 10c0-.46.373-.833.833-.833H14a.833.833 0 0 1 0 1.666H7.333A.833.833 0 0 1 6.5 10"/>
  </g>
</svg>
