<svg xmlns="http://www.w3.org/2000/svg" fill="none" viewBox="0 0 37 36">
  <path fill="#fff" fill-rule="evenodd" d="M20.006 4.996q0 .051-.004.102h4.051c4.924 0 8.803 2.11 8.929 6.697.063 2.305-1.095 3.326-1.994 4.12-.636.56-1.143 1.008-1 1.715.136.678.63 1.278 1.179 1.945.832 1.01 1.79 2.172 1.815 3.99.041 3.018 0 2.64 0 2.64 0 3.642-3.169 6.595-7.078 6.595H19.89q.008.075.008.152c0 .84-.731 1.522-1.633 1.522s-1.634-.681-1.634-1.522q0-.077.009-.152h-3.875c-.327 0-1.39-.05-1.368-.074-4.165-.409-7.267-2.53-7.379-6.623-.063-2.305 1.095-3.326 1.994-4.12.636-.56 1.143-1.008 1-1.715-.136-.679-.63-1.279-1.179-1.945-.832-1.01-1.79-2.173-1.815-3.991-.041-3.018 0-2.639 0-2.639 0-3.642 3.17-6.595 7.078-6.595h5.647l-.004-.102c0-.84.732-1.522 1.634-1.522s1.633.682 1.633 1.522" clip-rule="evenodd"/>
  <path fill="url(#a)" fill-rule="evenodd" d="M0 8.273C0 3.966 3.716.474 8.3.474h19.586c4.585 0 8.301 3.492 8.301 7.8v19.453c0 4.307-3.716 7.799-8.3 7.799H8.3c-4.585 0-8.301-3.492-8.301-7.8zm19.4-2.278q0 .044-.004.087c-.048.685-.655 1.227-1.396 1.227s-1.348-.542-1.396-1.227l-.003-.066v-.021c0-.726.627-1.315 1.4-1.315a1.44 1.44 0 0 1 .94.34c.148.128.268.286.348.463q.108.237.11.512Zm1.21.087c-.05 1.315-1.199 2.366-2.61 2.366q-.364 0-.7-.089a1 1 0 0 1-.127-.045c-.086-.034-.165-.065-.245-.04-.12.035-.27.174-.27.174l-.472.438s-.238.22-.191.307c.047.088.373.088.373.088l6.822.037s.191.012.36-.037c.122-.036.152-.05.196-.07a2.7 2.7 0 0 1 1.11-.237c1.416 0 2.564 1.079 2.564 2.41 0 1.33-1.148 2.41-2.565 2.41-.768 0-1.348-.374-1.818-.877a2 2 0 0 1-.167-.211.8.8 0 0 0-.207-.227c-.14-.087-.839-.087-.839-.087h-8.487s-.187 0-.326.087c-.14.088-.42.52-.42.93 0 .629.471 1.155 1.1 1.284v.001l2.784 1.176s.271.145.5.158c.185.011.298-.016.417-.045l.083-.02q.3-.065.618-.066c1.494 0 2.705 1.138 2.705 2.541 0 .034 0 .088.047.132.047.043.301.157.301.157l2.118.894s.078.014.17.027c.07.009.149.017.209.017.052 0 .151-.025.276-.055.209-.052.487-.12.732-.12 1.503 0 2.722 1.145 2.722 2.558v2.48c0 1.283-1.106 2.322-2.471 2.322h-1.306c-.128 0-.373 0-.513.088l-2.608 2.231-.05.047s-.047.044-.047.088c0 .058.015.094.03.134l.025.069q.068.24.082.498h3.937c3.348 0 6.062-2.55 6.062-5.696 0 0 .035.328 0-2.278-.021-1.57-.842-2.574-1.555-3.447-.47-.575-.893-1.093-1.01-1.68-.122-.61.313-.996.857-1.48.77-.686 1.762-1.568 1.708-3.558-.107-3.961-3.43-5.784-7.648-5.784zm-4.095 23.923a1 1 0 0 0-.007.132c0 .725.626 1.314 1.399 1.314s1.399-.589 1.399-1.314a1 1 0 0 0-.007-.132c-.07-.664-.667-1.183-1.392-1.183s-1.322.519-1.392 1.183m-1.216 0h-2.102c-.28 0-1.191-.043-1.171-.064-3.568-.353-6.225-2.184-6.321-5.72-.054-1.99.937-2.871 1.708-3.557.544-.484.979-.87.857-1.481-.117-.586-.54-1.104-1.01-1.68-.713-.872-1.534-1.876-1.555-3.446-.035-2.606 0-2.279 0-2.279 0-3.145 2.714-5.696 6.062-5.696h3.623q.01.283.084.542.012.039.024.069c.017.04.03.076.03.134 0 .044-.046.088-.046.088l-.05.047-2.375 2.1c-.14.087-.385.087-.513.087h-1.306c-1.365 0-2.471 1.04-2.471 2.323v2.48c0 1.413 1.22 2.558 2.723 2.558.245 0 .523-.068.73-.12h.001c.125-.03.224-.055.277-.055.06 0 .138.008.208.017.093.012.17.027.17.027l2.118.894s.441.157.488.376c.03.138.007.197-.021.271a.7.7 0 0 0-.047.167 2.4 2.4 0 0 0-.025.351c0 1.404 1.21 2.541 2.704 2.541.614 0 1.179-.191 1.633-.514l.01-.008a.7.7 0 0 1 .27-.135c.12-.027.322.088.322.088l2.12.895v.002c.63.128 1.101.655 1.101 1.285 0 .41-.28.84-.42.928s-.326.088-.326.088h-8.487s-.7 0-.84-.088a.8.8 0 0 1-.206-.226 2 2 0 0 0-.166-.212c-.47-.502-1.051-.876-1.819-.876-1.416 0-2.565 1.079-2.565 2.41 0 1.33 1.149 2.41 2.565 2.41a2.7 2.7 0 0 0 1.11-.238c.044-.02.073-.033.196-.069.168-.049.36-.037.36-.037l6.821.037s.327 0 .373.088c.047.087-.19.306-.19.306l-.705.57s-.151.14-.27.175c-.081.024-.16-.007-.246-.041a1 1 0 0 0-.128-.045 2.8 2.8 0 0 0-.699-.09c-1.395 0-2.535 1.03-2.608 2.323" clip-rule="evenodd"/>
  <defs>
    <linearGradient id="a" x1="18.093" x2="18.093" y1=".474" y2="35.526" gradientUnits="userSpaceOnUse">
      <stop stop-color="#FF4357"/>
      <stop offset="1" stop-color="#B0002C"/>
    </linearGradient>
  </defs>
</svg>
