<svg xmlns="http://www.w3.org/2000/svg" fill="none" viewBox="0 0 280 240">
  <path fill="#FF626E" d="M279.722 130.481c1.451-19.07-3.032-38.996-9.038-56.748-8.916-26.378-26.227-53.42-55.371-59.665-16.81-3.6-33.913.257-48.321 9.276-13.857 8.676-24.668 19.883-41.699 22.05-17.232 2.196-34.922 1.312-52.246 1.312-44.539 0-80.69 46.34-71.652 94.612s51.638 81.736 87.79 81.736c32.483 0 59.203-19.298 90.056-24.481 15.301-2.567 30.667.47 45.804-3.38 17.596-4.477 34.149-15.156 43.894-30.62 6.643-10.537 9.882-22.15 10.783-34.092"/>
  <path fill="#fff" d="M279.722 130.481c1.451-19.07-3.032-38.996-9.038-56.748-8.916-26.378-26.227-53.42-55.371-59.665-16.81-3.6-33.913.257-48.321 9.276-13.857 8.676-24.668 19.883-41.699 22.05-17.232 2.196-34.922 1.312-52.246 1.312-44.539 0-80.69 46.34-71.652 94.612s51.638 81.736 87.79 81.736c32.483 0 59.203-19.298 90.056-24.481 15.301-2.567 30.667.47 45.804-3.38 17.596-4.477 34.149-15.156 43.894-30.62 6.643-10.537 9.882-22.15 10.783-34.092" opacity=".7"/>
  <path fill="#263238" d="M140.501 239.142c76.826 0 139.106-1.73 139.106-3.864s-62.28-3.864-139.106-3.864c-76.827 0-139.106 1.73-139.106 3.864s62.28 3.864 139.106 3.864"/>
  <path stroke="#263238" stroke-linecap="round" stroke-linejoin="round" d="M210.972 231.758h-12.87V.5l12.87 14.922z"/>
  <path stroke="#263238" stroke-linecap="round" stroke-linejoin="round" d="M198.223 177.306h12.627l-12.627-12.169h12.627zm0-12.476h12.627l-12.627-12.17h12.627zm0 37.321h12.627l-12.627-12.163h12.627zm0-12.477h12.627l-12.627-12.162h12.627zm0-37.321h12.627l-12.627-12.169h12.627zm0-12.476h12.627l-12.627-12.17h12.627zm.002-12.477h12.627l-12.627-12.169h12.627zm-.002-12.477h12.627l-12.627-12.169h12.627zm0-12.476h12.627l-12.627-12.17h12.627zm0-12.477h12.627L198.223 77.8h12.627zm0-12.476h12.627l-12.627-12.17h12.627zm0-12.473h12.627l-12.627-12.17h12.627zm0-12.476h12.627l-12.627-12.17h12.627zm0-12.477h12.627l-12.627-12.17h12.627zm0-12.476h12.627l-12.627-12.17h12.627zm72.497.334-6.228-3.914h-44.495l-5.435 3.914z"/>
  <path fill="#263238" stroke="#263238" stroke-linecap="round" stroke-linejoin="round" d="M271.749 27.59H163.066v2.852h108.683z"/>
  <path stroke="#263238" stroke-linecap="round" stroke-linejoin="round" d="M264.491 24.012 198.102.5l21.893 23.512M198.102.5l-35.036 27.091"/>
  <path fill="#263238" stroke="#263238" stroke-linecap="round" stroke-linejoin="round" d="M220.268 33.652h-26.813v17.11h26.813zm0 181.336h-26.813v17.11h26.813z"/>
  <path fill="#fff" stroke="#263238" stroke-linecap="round" stroke-linejoin="round" d="M214.676 37.215h-15.637v4.99h15.637z"/>
  <path stroke="#263238" stroke-linecap="round" stroke-linejoin="round" d="M271.748 30.441v30.742"/>
  <path fill="#263238" stroke="#263238" stroke-linecap="round" stroke-linejoin="round" d="M275.831 71.676h-7.944v8.975h7.944z"/>
  <path stroke="#263238" stroke-linecap="round" stroke-linejoin="round" d="m267.887 71.677 3.975-11.08 3.969 11.08"/>
  <path fill="#fff" stroke="#263238" stroke-linecap="round" stroke-linejoin="round" stroke-width="1.1" d="M165.871 212.807v-15.869h-46.87v15.869a22.95 22.95 0 0 1-4.976 14.266l-2.052 2.588h60.933l-2.052-2.588a22.92 22.92 0 0 1-4.976-14.266z"/>
  <path fill="#FF626E" d="M116.119 223.922h52.625a23 23 0 0 1-2.874-11.115v-15.869h-46.869v15.869a22.96 22.96 0 0 1-2.875 11.115z" style="mix-blend-mode:multiply"/>
  <path fill="#263238" stroke="#263238" stroke-linecap="round" stroke-linejoin="round" stroke-width="1.1" d="M165.869 199.328H119v6.702h46.869z"/>
  <path fill="#263238" stroke="#263238" stroke-linecap="round" stroke-linejoin="round" stroke-width="1.1" d="M229.985 61.07h-175.1c-3.669 0-6.643 2.966-6.643 6.623v127.628c0 3.657 2.974 6.623 6.643 6.623h175.1c3.668 0 6.642-2.966 6.642-6.623V67.693c0-3.657-2.974-6.623-6.642-6.623"/>
  <path fill="#fff" stroke="#263238" stroke-linecap="round" stroke-linejoin="round" stroke-width="1.1" d="M48.242 180.051h188.385v15.271c0 3.657-2.974 6.623-6.642 6.623H54.892c-3.668 0-6.643-2.966-6.643-6.623v-15.271z"/>
  <path fill="#FF626E" stroke="#263238" stroke-linecap="round" stroke-linejoin="round" stroke-width="1.1" d="M227.153 69.84H57.723v99.524h169.43z"/>
  <path fill="#263238" stroke="#263238" stroke-linecap="round" stroke-linejoin="round" stroke-width="1.1" d="M145.913 191a3.474 3.474 0 0 0-3.475-3.465 3.474 3.474 0 0 0-3.475 3.465 3.474 3.474 0 0 0 3.475 3.465 3.474 3.474 0 0 0 3.475-3.465"/>
  <path fill="#fff" stroke="#263238" stroke-linecap="round" stroke-linejoin="round" stroke-width="1.1" d="M172.921 229.664h-60.948v2.83h60.948z"/>
  <path fill="#263238" stroke="#263238" stroke-linecap="round" stroke-linejoin="round" stroke-width="1.1" d="M197.574 94.779a16.87 16.87 0 0 0 4.655-15.193L191.604 90.18a3.227 3.227 0 0 1-4.555 0l-8.837-8.812a3.2 3.2 0 0 1 0-4.54l10.625-10.595c-5.348-1.034-11.097.506-15.237 4.641-4.905 4.89-6.171 12.027-3.811 18.08l-27.442 26.692-2.646-2.638 4.319-4.306a1.17 1.17 0 0 0 0-1.668l-3.339-3.33a1.18 1.18 0 0 0-1.673 0l-1.674 1.669-3.618-3.608 1.395-1.39a1.57 1.57 0 0 0 0-2.224l-29.945-29.857c-3.003-2.995-7.865-2.995-10.861 0l-3.06 3.058a7.635 7.635 0 0 0 0 10.83l29.944 29.856a1.583 1.583 0 0 0 2.231 0l1.394-1.39 3.618 3.608-1.673 1.668a1.173 1.173 0 0 0 0 1.668l3.339 3.329a1.18 1.18 0 0 0 1.674 0l4.318-4.306 2.603 2.595-22.752 22.129c-6.07-2.352-13.235-1.09-18.133 3.8a16.87 16.87 0 0 0-4.654 15.193l10.625-10.594a3.225 3.225 0 0 1 4.554 0l8.838 8.811a3.205 3.205 0 0 1 0 4.542l-10.625 10.594c5.348 1.033 11.097-.506 15.237-4.641 4.905-4.891 6.17-12.027 3.811-18.08l22.752-22.129 31.017 30.926a6.33 6.33 0 0 0 1.43 6.773l7.486 7.464 8.981-8.954-7.486-7.464a6.37 6.37 0 0 0-6.793-1.426l-30.975-30.884 27.443-26.692c6.07 2.353 13.235 1.091 18.133-3.8z"/>
  <path fill="#fff" stroke="#263238" stroke-miterlimit="10" d="m123.67 147.163 53.862-52.385c6.07 2.352 13.235 1.09 18.133-3.8a16.87 16.87 0 0 0 4.654-15.193L189.694 86.38a3.225 3.225 0 0 1-4.554 0l-8.838-8.811a3.204 3.204 0 0 1 0-4.542l10.625-10.594c-5.348-1.033-11.097.506-15.237 4.641-4.905 4.891-6.17 12.027-3.811 18.08l-53.862 52.386c-6.071-2.353-13.235-1.091-18.133 3.8a16.86 16.86 0 0 0-4.655 15.192l10.626-10.594a3.225 3.225 0 0 1 4.554 0l8.838 8.812a3.204 3.204 0 0 1 0 4.541l-10.625 10.594c5.348 1.034 11.097-.506 15.237-4.641 4.905-4.891 6.17-12.027 3.811-18.08Z"/>
  <path fill="#fff" stroke="#263238" stroke-miterlimit="10" d="M119.53 141.667a2.19 2.19 0 0 1 0-3.101l48.428-46.967a2.206 2.206 0 0 1 3.111 0 2.19 2.19 0 0 1 0 3.1l-48.428 46.968a2.205 2.205 0 0 1-3.111 0Z"/>
  <path fill="#fff" stroke="#263238" stroke-miterlimit="10" d="m133.884 105.316-3.62 3.61 52.232 52.08 3.62-3.61z"/>
  <path fill="#fff" stroke="#263238" stroke-miterlimit="10" d="m195.335 161.238-8.98 8.954-7.486-7.464a6.317 6.317 0 0 1 0-8.955 6.36 6.36 0 0 1 8.98 0zm-66.324-66.063-8.913 8.887 7.24 7.219 8.913-8.887z"/>
  <path fill="#fff" stroke="#263238" stroke-miterlimit="10" d="m89.32 67.547 3.065-3.055a7.697 7.697 0 0 1 10.86 0l29.941 29.853a1.565 1.565 0 0 1 0 2.219l-11.7 11.665a1.576 1.576 0 0 1-2.224 0L89.321 78.375a7.64 7.64 0 0 1 0-10.828Zm47.764 32.351-12.256 12.219c-.46.46-.46 1.205 0 1.664l3.347 3.337c.461.46 1.208.46 1.669 0l12.255-12.219a1.174 1.174 0 0 0 0-1.664l-3.347-3.337a1.18 1.18 0 0 0-1.668 0Z"/>
  <path fill="#fff" stroke="#263238" stroke-miterlimit="10" d="m123.163 103.788-2.467 2.46-29.401-29.316a1.74 1.74 0 0 1 0-2.46 1.75 1.75 0 0 1 2.466 0zm4.195-4.183-2.467 2.459L95.49 72.749a1.74 1.74 0 0 1 0-2.46 1.75 1.75 0 0 1 2.467 0zm4.199-4.184-2.466 2.46-29.402-29.316a1.74 1.74 0 0 1 0-2.46 1.75 1.75 0 0 1 2.467 0zm98.421 137.949h-2.388l-15.387-125.952h2.381zm18.59 0h-2.388l-15.387-125.952h2.381z"/>
  <path fill="#fff" stroke="#263238" stroke-miterlimit="10" d="M233.325 117.854h-18.584l-.471-3.885h18.583zm1.752 14.344h-18.584l-.472-3.886h18.584zm1.759 14.351h-18.591l-.472-3.885h18.584zm1.752 14.344h-18.584l-.479-3.885h18.584zm1.752 14.344h-18.584l-.479-3.885h18.591zm1.75 14.344h-18.583l-.472-3.886h18.583zm1.759 14.351h-18.59l-.472-3.885h18.583zm1.752 14.344h-18.583l-.479-3.885h18.583z"/>
  <path stroke="#263238" stroke-miterlimit="10" stroke-width=".5" d="M214.455 115.504h2.431m-1.859 1.133h4.719m13.292 0h-3.433m5.15 13.824h-3.146m-14.865.711h7.293m-6.006 13.394h6.292m-6.007 1.145h3.432m16.724 12.965h-3.861m3.576 1.14h-6.435m12.041 42.657h-5.898m-12.872-1.071h3.576m8.4 1.071h-4.647m-5.541 13.722h5.005m-3.933 1.246h5.72m-11.439-43.488h1.609m15.907-.355h-5.899"/>
  <path fill="#263238" stroke="#263238" stroke-linecap="round" stroke-linejoin="round" stroke-width="1.1" d="m90.65 158.054-2.831 3.679-61.585-47.944 2.832-3.672z"/>
  <path fill="#263238" stroke="#263238" stroke-linecap="round" stroke-linejoin="round" stroke-width="1.1" d="m26.234 158.054 2.832 3.679 61.584-47.944-2.831-3.672zm64.416 53.854-1.752 4.741-62.664-49.006 1.788-4.784z"/>
  <path fill="#263238" stroke="#263238" stroke-linecap="round" stroke-linejoin="round" stroke-width="1.1" d="m26.234 211.91.422 5.56 63.994-49.826-2.831-3.671z"/>
  <path fill="#263238" stroke="#263238" stroke-linecap="round" stroke-linejoin="round" stroke-width="1.1" d="M27.68 109.605h-2.502v123.764h2.502zm63.315 0h-2.503v123.764h2.503z"/>
  <path fill="#fff" stroke="#263238" stroke-linecap="round" stroke-linejoin="round" stroke-width="1.1" d="m78.603 158.054-2.839 3.679-61.584-47.944 2.831-3.672z"/>
  <path fill="#fff" stroke="#263238" stroke-linecap="round" stroke-linejoin="round" stroke-width="1.1" d="m14.18 158.054 2.831 3.679 61.592-47.944-2.839-3.672zm64.423 53.854-1.752 4.741-62.671-49.006.9-4.784z"/>
  <path fill="#fff" stroke="#263238" stroke-linecap="round" stroke-linejoin="round" stroke-width="1.1" d="m14.18 211.91.429 5.56 63.994-49.826-2.839-3.671z"/>
  <path fill="#fff" stroke="#263238" stroke-linecap="round" stroke-linejoin="round" stroke-width="1.1" d="M15.624 109.605H13.12v123.764h2.503zm63.316 0h-2.502v123.764h2.502z"/>
  <path fill="#fff" stroke="#263238" stroke-linecap="round" stroke-linejoin="round" stroke-width="1.1" d="M82.164 108.457H9.904v3.921h72.26z"/>
  <path fill="#263238" stroke="#263238" stroke-linecap="round" stroke-linejoin="round" stroke-width="1.1" d="M93.304 108.457H73.248v3.921h20.056z"/>
  <path fill="#fff" stroke="#263238" stroke-linecap="round" stroke-linejoin="round" stroke-width="1.1" d="M82.164 159.816H9.904v3.921h72.26z"/>
  <path fill="#263238" stroke="#263238" stroke-linecap="round" stroke-linejoin="round" stroke-width="1.1" d="M93.304 159.816H73.248v3.921h20.056z"/>
  <path fill="#263238" stroke="#263238" stroke-miterlimit="10" stroke-width=".97" d="M172.205 233.37h-5.656l7.543-44.073h5.663z"/>
  <path fill="#fff" stroke="#263238" stroke-miterlimit="10" stroke-width=".97" d="M183.524 233.37h5.663l-7.544-44.073h-5.663z"/>
  <path fill="#263238" stroke="#263238" stroke-miterlimit="10" stroke-width=".97" d="M252.515 233.37h-5.656l7.544-44.073h5.663z"/>
  <path fill="#fff" stroke="#263238" stroke-miterlimit="10" stroke-width=".97" d="M263.834 233.37h5.663l-7.543-44.073h-5.663z"/>
  <path fill="#FF626E" stroke="#263238" stroke-miterlimit="10" stroke-width=".97" d="M267.795 176.562H159.85v14.95h107.945z"/>
  <path fill="#FF626E" stroke="#263238" stroke-miterlimit="10" stroke-width=".97" d="M270.426 176.562H162.48v14.95h107.946z"/>
  <path fill="#263238" d="M164.246 191.505h9.159l4.734-14.943h-9.16zm36.265-14.943h-9.166l-4.734 14.943h9.167zm67.106 0h-9.167l-4.733 14.943h9.166zm-22.367 0h-9.167l-4.733 14.943h9.159zm-22.373 0h-9.159l-4.734 14.943h9.16z"/>
  <path stroke="#263238" stroke-miterlimit="10" d="M269.834 183.191h-17.861m17.545 2.497h-2.817m-104.678-.622h17.862m-17.547-2.816h22.559"/>
</svg>
