<svg xmlns="http://www.w3.org/2000/svg" viewBox="0 0 20 20">
  <path fill="currentColor" fill-rule="evenodd" d="M3.328 2.51c1.787.201 4.166.733 5.921 1.888v12.8c-1.755-1.154-4.134-1.686-5.921-1.888-.915-.103-1.662-.867-1.662-1.81V4.113c0-.943.747-1.707 1.662-1.604Zm9.197 13.786a9.7 9.7 0 0 0-1.776.903V4.398c1.755-1.155 4.135-1.687 5.922-1.889.915-.103 1.662.661 1.662 1.604v7.9a4.167 4.167 0 0 0-5.808 4.282ZM4.28 6.138a.75.75 0 0 0-.23 1.482c1.018.158 2.14.418 3.178.82a.75.75 0 1 0 .54-1.4c-1.165-.45-2.396-.733-3.488-.902m-.856 3.96a.75.75 0 0 1 .856-.627c.553.086 1.14.2 1.735.35a.75.75 0 0 1-.367 1.455 18 18 0 0 0-1.598-.323.75.75 0 0 1-.626-.856Zm12.408 5.11c.345 0 .625.28.625.625v2.5a.625.625 0 1 1-1.25 0v-2.5c0-.345.28-.625.625-.625m0-1.041a.833.833 0 1 0 0-1.667.833.833 0 0 0 0 1.667" clip-rule="evenodd"/>
</svg>
