<svg xmlns="http://www.w3.org/2000/svg" fill="none" viewBox="0 0 20 20">
  <path fill="currentColor" fill-rule="evenodd" d="M0 2.632a2.632 2.632 0 1 1 5.263 0 2.632 2.632 0 0 1-5.263 0m7.368 0a2.632 2.632 0 1 1 5.263 0 2.632 2.632 0 0 1-5.263 0m10-2.632a2.632 2.632 0 1 0 0 5.263 2.632 2.632 0 0 0 0-5.263M0 10a2.632 2.632 0 1 1 5.263 0A2.632 2.632 0 0 1 0 10m7.368 0a2.632 2.632 0 1 1 5.263 0 2.632 2.632 0 0 1-5.263 0m10-2.632a2.632 2.632 0 1 0 0 5.264 2.632 2.632 0 0 0 0-5.264m-2.631 10a2.632 2.632 0 1 1 5.263 0 2.632 2.632 0 0 1-5.263 0M2.632 14.737a2.632 2.632 0 1 0 0 5.263 2.632 2.632 0 0 0 0-5.263m7.368 0A2.632 2.632 0 1 0 10 20a2.632 2.632 0 0 0 0-5.263" clip-rule="evenodd"/>
</svg>
