<svg xmlns="http://www.w3.org/2000/svg" fill="none" viewBox="0 0 22 24">
  <path fill="#3D3D3D" stroke="#3D3D3D" stroke-width=".25" d="M11 .875c-4.69 0-8.504 3.815-8.504 8.504a8.5 8.5 0 0 0 3.867 7.126v5.85a.77.77 0 0 0 1.197.64L11 20.703l3.44 2.294a.77.77 0 0 0 1.197-.64v-5.851a8.5 8.5 0 0 0 3.867-7.126c0-4.69-3.815-8.504-8.504-8.504Zm3.098 20.043-2.671-1.781a.77.77 0 0 0-.854 0l-2.67 1.78v-3.619c.96.378 2.005.585 3.097.585a8.5 8.5 0 0 0 3.098-.585zM11 16.344a6.973 6.973 0 0 1-6.965-6.965A6.973 6.973 0 0 1 11 2.414a6.973 6.973 0 0 1 6.965 6.965A6.973 6.973 0 0 1 11 16.344Z"/>
  <path fill="#3D3D3D" stroke="#3D3D3D" stroke-width=".25" d="m16.126 7.871.119-.038a.77.77 0 0 1-.203.792l-1.957 1.863.461 2.625a.77.77 0 0 1-1.109.818L11 12.68l-2.437 1.25-.057-.11.057.11a.77.77 0 0 1-.808-.064zm0 0 .119-.038a.77.77 0 0 0-.625-.527L12.9 6.92l-1.213-2.4a.77.77 0 0 0-1.374 0m5.813 3.351L10.313 4.52m0 0L9.1 6.92l-2.72.386m3.933-2.786L6.38 7.306m0 0a.77.77 0 0 0-.422 1.32m.422-1.32-.422 1.32m0 0 1.957 1.862-.461 2.625.123.021m-1.62-4.509 1.62 4.51m0 0-.123-.022a.77.77 0 0 0 .301.753zm5.186-1.28-.265-1.507a.77.77 0 0 1 .227-.69l1.105-1.052-1.544-.219.018-.124zm0 0-1.412-.725a.77.77 0 0 0-.702 0l-1.412.725zM11 6.573l.707 1.4L9.19 9.748l.086-.09L8.17 8.605l1.544-.219a.77.77 0 0 0 .579-.414l-.112-.057.112.057z"/>
</svg>
