<svg xmlns="http://www.w3.org/2000/svg" fill="none" viewBox="0 0 20 20">
  <path fill="currentColor" fill-rule="evenodd" d="M9.686 1.52a.83.83 0 0 1 .628 0l7.708 3.133a.833.833 0 0 1 0 1.544l-7.707 3.141a.83.83 0 0 1-.63 0L1.978 6.197a.833.833 0 0 1 0-1.544zM4.502 5.426 10 7.666l5.498-2.24L10 3.191z" clip-rule="evenodd"/>
  <path fill="currentColor" fill-rule="evenodd" d="M1.827 4.733a.83.83 0 0 1 .78-.08l7.708 3.142a.83.83 0 0 1 .518.772v9.141a.833.833 0 0 1-1.147.772l-7.708-3.133a.83.83 0 0 1-.52-.772v-9.15c0-.277.138-.537.369-.692m1.298 1.932v7.35l6.042 2.455V9.127z" clip-rule="evenodd"/>
  <path fill="currentColor" fill-rule="evenodd" d="M18.173 4.733c.23.155.369.415.369.692v9.15c0 .34-.206.644-.52.772l-7.708 3.133a.833.833 0 0 1-1.147-.772V8.567c0-.34.205-.644.519-.772l7.708-3.142a.83.83 0 0 1 .78.08m-7.34 4.394v7.343l6.042-2.456v-7.35z" clip-rule="evenodd"/>
</svg>
