<svg xmlns="http://www.w3.org/2000/svg" fill="none" viewBox="0 0 16 16">
  <path fill="currentColor" d="M13.168 1.334a1.5 1.5 0 0 1 1.5 1.5v3.641c0 .575-.228 1.126-.635 1.532l-.28.28a2.3 2.3 0 0 0-.634-.78l.207-.207c.219-.219.342-.515.342-.825V2.834a.5.5 0 0 0-.5-.5H9.524c-.31 0-.606.123-.825.342L3.024 8.358a1.166 1.166 0 0 0 .01 1.641l2.974 2.97a1.17 1.17 0 0 0 1.651 0l.342-.342v1.342a2.17 2.17 0 0 1-2.7-.292l-2.974-2.97a2.166 2.166 0 0 1-.002-3.064L7.99 1.97a2.17 2.17 0 0 1 1.533-.636zm-1.833 2.335a1 1 0 1 1 0 2 1 1 0 0 1 0-2M10 10h-.333a1 1 0 0 0-1 1v3.333a1 1 0 0 0 1 1h4a1 1 0 0 0 1-1V11a1 1 0 0 0-1-1h-.333v-.667a1.667 1.667 0 0 0-3.334 0zm1-.667a.667.667 0 0 1 1.334 0V10H11zm1.334 3.333a.667.667 0 1 1-1.334 0 .667.667 0 0 1 1.334 0"/>
  <path fill="currentColor" fill-rule="evenodd" d="m14.128 8.1-.41.41-.083-.165a2.2 2.2 0 0 0-.598-.735l-.117-.093.312-.313a1.03 1.03 0 0 0 .303-.73V2.833a.367.367 0 0 0-.367-.367H9.525c-.274 0-.538.109-.731.303L3.12 8.449a1.034 1.034 0 0 0 .009 1.454l2.974 2.97a1.036 1.036 0 0 0 1.463 0l.569-.57v1.738l-.061.04a2.306 2.306 0 0 1-2.866-.311L2.234 10.8a2.3 2.3 0 0 1-.003-3.253l5.666-5.673a2.3 2.3 0 0 1 1.628-.675h3.643c.902 0 1.634.731 1.634 1.634v3.64a2.3 2.3 0 0 1-.674 1.627m-11.8 2.605 2.974 2.97a2.17 2.17 0 0 0 2.7.293v-1.343l-.342.342a1.17 1.17 0 0 1-1.651 0l-2.975-2.97a1.166 1.166 0 0 1-.01-1.64L8.7 2.674c.22-.22.516-.342.826-.342h3.643a.5.5 0 0 1 .5.5v3.64c0 .31-.122.607-.341.826l-.207.207q.053.04.102.086a2.3 2.3 0 0 1 .532.694l.28-.28a2.17 2.17 0 0 0 .634-1.532v-3.64a1.5 1.5 0 0 0-1.5-1.5H9.525c-.575 0-1.127.228-1.533.635L2.325 7.641a2.166 2.166 0 0 0 .003 3.064m9.007-7.171a1.133 1.133 0 1 1 0 2.267 1.133 1.133 0 0 1 0-2.267M9.668 9.866h.2v-.533a1.8 1.8 0 0 1 3.6 0v.533h.2c.626 0 1.134.507 1.134 1.133v3.334c0 .626-.508 1.133-1.133 1.133h-4a1.133 1.133 0 0 1-1.134-1.133v-3.334c0-.626.508-1.133 1.133-1.133m2-1.067a.533.533 0 0 0-.533.534v.533h1.067v-.533a.533.533 0 0 0-.534-.534m0 4.4a.533.533 0 1 0 0-1.066.533.533 0 0 0 0 1.066m.667-8.532a1 1 0 1 0-2 0 1 1 0 0 0 2 0M10.002 10v-.666a1.667 1.667 0 0 1 3.333 0V10h.333a1 1 0 0 1 1 1v3.334a1 1 0 0 1-1 1h-4a1 1 0 0 1-1-1V11a1 1 0 0 1 1-1zm1.666-1.333a.667.667 0 0 0-.666.667V10h1.333v-.666a.667.667 0 0 0-.667-.667m0 4.667a.667.667 0 1 0 0-1.334.667.667 0 0 0 0 1.334" clip-rule="evenodd"/>
</svg>
