<svg xmlns="http://www.w3.org/2000/svg" fill="none" viewBox="0 0 16 16">
  <g fill="#8160EB" clip-path="url(#a)">
    <path d="M14.667 6.334V13A1.667 1.667 0 0 1 13 14.667H3A1.667 1.667 0 0 1 1.334 13V6.334A1.667 1.667 0 0 1 3 4.667h2.917a.833.833 0 0 1 .833.833v1.734a1.4 1.4 0 0 0-.417-.067A1.25 1.25 0 0 0 5.45 9.3l1.667 1.667a1.25 1.25 0 0 0 1.766 0L10.55 9.3a1.25 1.25 0 0 0-.883-2.133 1.4 1.4 0 0 0-.417.067V5.5a.833.833 0 0 1 .834-.833H13a1.667 1.667 0 0 1 1.667 1.667"/>
    <path d="M9.958 8.125a.4.4 0 0 0-.583 0l-.958.95V1.75a.417.417 0 0 0-.834 0v7.325l-.958-.95a.413.413 0 0 0-.583.584l1.666 1.666a.4.4 0 0 0 .584 0L9.958 8.71a.4.4 0 0 0 0-.584"/>
  </g>
  <defs>
    <clipPath id="a">
      <path fill="#fff" d="M1.334 1.334h13.332v13.332H1.334z"/>
    </clipPath>
  </defs>
</svg>
