<svg xmlns="http://www.w3.org/2000/svg" fill="none" viewBox="0 0 12 12">
  <path fill="#666" d="M6.422 1.79v-.495a.299.299 0 0 0-.453-.253L4.285 2.063a.296.296 0 0 0 0 .505L5.969 3.59c.2.116.453-.02.453-.252v-.569a3.217 3.217 0 0 1 2.273 5.274.18.18 0 0 0 .01.242l.475.442c.073.064.19.064.252-.01.653-.758 1-1.726 1-2.737.01-2.253-1.768-4.084-4.01-4.19m.041 6.61a.298.298 0 0 0-.452.253v.568a3.217 3.217 0 0 1-2.274-5.274.18.18 0 0 0-.01-.242l-.474-.442c-.074-.063-.19-.063-.253.01a4.18 4.18 0 0 0-1 2.739c0 2.263 1.79 4.094 4.021 4.2v.495c0 .231.253.368.453.252l1.684-1.02a.296.296 0 0 0 0-.506z"/>
</svg>
