<svg xmlns="http://www.w3.org/2000/svg" fill="none" viewBox="0 0 20 20">
  <path fill="currentColor" d="M10.556 11.214V8.787a1.667 1.667 0 1 0-1.111 0v2.427a1.667 1.667 0 1 0 1.11 0M10 6.667a.555.555 0 1 1 0 1.11.555.555 0 0 1 0-1.11m0 6.666a.556.556 0 1 1 0-1.111.556.556 0 0 1 0 1.111"/>
  <path fill="currentColor" fill-rule="evenodd" d="M10.806 11.046a1.918 1.918 0 1 1-1.611 0V8.955a1.917 1.917 0 1 1 1.61 0zm-.25-2.26v2.428a1.667 1.667 0 1 1-1.111 0V8.787a1.667 1.667 0 1 1 1.11 0m-.386-1.818a.3.3 0 0 0-.17-.051v-.25.25a.306.306 0 0 0-.305.306h-.25m.385 5.809a.305.305 0 0 0 .476-.254h.25-.25a.305.305 0 1 0-.476.254" clip-rule="evenodd"/>
  <path fill="currentColor" d="M18.008 10.786a1.11 1.11 0 0 0 0-1.571L14.793 6l1.612-1.59a1.112 1.112 0 1 0-.801-.771l-1.596 1.575-3.222-3.222a1.11 1.11 0 0 0-1.571 0L6 5.207 4.41 3.596a1.112 1.112 0 1 0-.77.8l1.574 1.597-3.222 3.222a1.11 1.11 0 0 0 0 1.57l3.222 3.223-1.575 1.596a1.11 1.11 0 1 0 .77.8L6 14.795l3.215 3.214a1.11 1.11 0 0 0 1.571 0l3.222-3.221 1.596 1.575a1.11 1.11 0 1 0 .8-.77L14.795 14zM10 17.223 2.778 10 10 2.778 17.223 10z"/>
  <path fill="currentColor" fill-rule="evenodd" d="M18.185 10.963 15.148 14l1.34 1.321a1.36 1.36 0 1 1-1.158 1.121l-1.321-1.303-3.046 3.046a1.36 1.36 0 0 1-1.925 0l-3.037-3.037-1.321 1.34a1.36 1.36 0 1 1-1.121-1.158l1.303-1.321-3.046-3.046a1.36 1.36 0 0 1 0-1.925l3.046-3.046-1.303-1.32a1.362 1.362 0 1 1 1.12-1.159l1.322 1.34 3.037-3.037a1.36 1.36 0 0 1 1.925 0l3.046 3.046 1.32-1.304a1.362 1.362 0 1 1 1.158 1.121l-1.34 1.322 3.038 3.037a1.36 1.36 0 0 1 0 1.925m-.177-1.748a1.11 1.11 0 0 1 0 1.57l-3.215 3.216 1.612 1.59a1.11 1.11 0 1 1-.801.77l-1.596-1.574-3.222 3.221a1.11 1.11 0 0 1-1.571 0L6 14.793l-1.59 1.612a1.11 1.11 0 1 1-.77-.801l1.574-1.596-3.222-3.222a1.11 1.11 0 0 1 0-1.571l3.222-3.222L3.64 4.397a1.112 1.112 0 1 1 .77-.801L6 5.207l3.216-3.215a1.11 1.11 0 0 1 1.57 0l3.223 3.222 1.596-1.575a1.112 1.112 0 1 1 .8.77L14.795 6zM10 17.223 2.778 10 10 2.778 17.223 10zM16.87 10 10 16.87 3.132 10 10 3.132z" clip-rule="evenodd"/>
</svg>
