<svg width="79" height="16" viewBox="0 0 79 16" fill="none"
  xmlns="http://www.w3.org/2000/svg">
  <path d="M71.3809 8.93121V15.7653H68.1024V3.94416H71.227V6.0298H71.3655C71.6272 5.34228 72.0659 4.79843 72.6815 4.39823C73.2972 3.99291 74.0437 3.79024 74.9211 3.79024C75.742 3.79024 76.4577 3.96982 77.0683 4.32897C77.6788 4.68812 78.1534 5.20119 78.4921 5.86818C78.8307 6.53004 79 7.32017 79 8.23856V15.7653H75.7215V8.82346C75.7266 8.10003 75.5419 7.53566 75.1674 7.13033C74.7928 6.71988 74.2772 6.51465 73.6205 6.51465C73.1792 6.51465 72.7893 6.60957 72.4507 6.7994C72.1172 6.98924 71.8555 7.2663 71.6657 7.63058C71.481 7.98972 71.386 8.42327 71.3809 8.93121Z" fill="white"/>
  <path d="M58.9018 15.9885C58.1475 15.9885 57.4754 15.8577 56.8854 15.596C56.2954 15.3292 55.8285 14.9367 55.4847 14.4185C55.1461 13.8952 54.9768 13.2436 54.9768 12.4637C54.9768 11.807 55.0973 11.2554 55.3385 10.809C55.5796 10.3627 55.908 10.0035 56.3236 9.7316C56.7392 9.45967 57.2112 9.25444 57.7396 9.11591C58.2732 8.97739 58.8325 8.8799 59.4174 8.82346C60.1049 8.75163 60.659 8.68494 61.0797 8.62337C61.5005 8.55667 61.8057 8.45918 61.9956 8.33092C62.1854 8.20265 62.2803 8.01281 62.2803 7.76141V7.71523C62.2803 7.22782 62.1264 6.85071 61.8186 6.58391C61.5158 6.31711 61.0849 6.18372 60.5256 6.18372C59.9356 6.18372 59.4661 6.31455 59.1172 6.57622C58.7684 6.83275 58.5375 7.15599 58.4246 7.54592L55.3924 7.29964C55.5463 6.58135 55.849 5.96053 56.3005 5.4372C56.752 4.90874 57.3343 4.50341 58.0475 4.22122C58.7658 3.9339 59.597 3.79024 60.541 3.79024C61.1977 3.79024 61.8263 3.8672 62.4265 4.02113C63.032 4.17505 63.5681 4.41362 64.035 4.73686C64.507 5.06009 64.879 5.47568 65.151 5.98362C65.4229 6.48643 65.5588 7.08929 65.5588 7.79219V15.7653H62.4496V14.126H62.3573C62.1674 14.4955 61.9135 14.8213 61.5954 15.1034C61.2773 15.3805 60.895 15.5986 60.4487 15.7576C60.0023 15.9115 59.4867 15.9885 58.9018 15.9885ZM59.8407 13.7259C60.323 13.7259 60.7488 13.6309 61.1182 13.4411C61.4876 13.2461 61.7775 12.9845 61.9879 12.6561C62.1982 12.3277 62.3034 11.9558 62.3034 11.5402V10.2857C62.2008 10.3524 62.0597 10.414 61.8801 10.4704C61.7057 10.5217 61.5081 10.5705 61.2875 10.6166C61.0669 10.6577 60.8463 10.6962 60.6257 10.7321C60.4051 10.7629 60.205 10.7911 60.0254 10.8167C59.6406 10.8732 59.3045 10.963 59.0172 11.0861C58.7299 11.2092 58.5067 11.376 58.3476 11.5863C58.1886 11.7916 58.1091 12.0481 58.1091 12.356C58.1091 12.8023 58.2707 13.1435 58.5939 13.3795C58.9223 13.6104 59.3379 13.7259 59.8407 13.7259Z" fill="white"/>
  <path d="M48.1523 15.9962C46.9414 15.9962 45.8999 15.7397 45.0277 15.2266C44.1606 14.7084 43.4936 13.9901 43.0267 13.0717C42.565 12.1533 42.3341 11.0964 42.3341 9.90091C42.3341 8.69007 42.5675 7.62801 43.0344 6.71474C43.5064 5.79635 44.176 5.08062 45.0431 4.56754C45.9102 4.04934 46.9414 3.79024 48.1369 3.79024C49.1682 3.79024 50.0712 3.97751 50.8459 4.35205C51.6206 4.7266 52.2338 5.25249 52.6853 5.92975C53.1368 6.607 53.3856 7.40226 53.4318 8.31552H50.338C50.2507 7.72549 50.0199 7.2509 49.6453 6.89175C49.2759 6.52747 48.7911 6.34533 48.1908 6.34533C47.6828 6.34533 47.239 6.48386 46.8594 6.76092C46.4848 7.03285 46.1924 7.43048 45.982 7.95381C45.7716 8.47714 45.6665 9.11078 45.6665 9.85474C45.6665 10.6089 45.7691 11.2503 45.9743 11.7787C46.1847 12.3072 46.4797 12.71 46.8594 12.987C47.239 13.2641 47.6828 13.4026 48.1908 13.4026C48.5653 13.4026 48.9014 13.3257 49.199 13.1717C49.5017 13.0178 49.7505 12.7946 49.9455 12.5022C50.1456 12.2046 50.2764 11.848 50.338 11.4324H53.4318C53.3805 12.3354 53.1342 13.1307 52.693 13.8182C52.2569 14.5006 51.654 15.0342 50.8844 15.419C50.1148 15.8038 49.2041 15.9962 48.1523 15.9962Z" fill="white"/>
  <path d="M40.4774 7.31504L37.4759 7.49974C37.4246 7.24321 37.3143 7.01233 37.145 6.8071C36.9757 6.59674 36.7525 6.42999 36.4754 6.30685C36.2035 6.17859 35.8777 6.11445 35.4981 6.11445C34.9901 6.11445 34.5617 6.2222 34.2128 6.43769C33.8639 6.64804 33.6895 6.93023 33.6895 7.28425C33.6895 7.56644 33.8024 7.80502 34.0281 7.99999C34.2539 8.19495 34.6412 8.35144 35.1902 8.46944L37.3297 8.90042C38.479 9.13644 39.3358 9.51611 39.9002 10.0394C40.4646 10.5628 40.7468 11.2503 40.7468 12.102C40.7468 12.8767 40.5184 13.5565 40.0618 14.1414C39.6103 14.7263 38.9895 15.183 38.1994 15.5113C37.4144 15.8346 36.5088 15.9962 35.4827 15.9962C33.9178 15.9962 32.671 15.6704 31.7424 15.0188C30.8188 14.3621 30.2776 13.4693 30.1185 12.3406L33.3432 12.1712C33.4406 12.6484 33.6767 13.0127 34.0512 13.2641C34.4257 13.5104 34.9055 13.6335 35.4904 13.6335C36.065 13.6335 36.5268 13.5232 36.8756 13.3026C37.2297 13.0768 37.4092 12.7869 37.4144 12.4329C37.4092 12.1353 37.2835 11.8916 37.0373 11.7018C36.791 11.5068 36.4113 11.358 35.8982 11.2554L33.8511 10.8475C32.6967 10.6166 31.8373 10.2164 31.2729 9.64694C30.7137 9.07743 30.434 8.35144 30.434 7.46896C30.434 6.70961 30.6393 6.05545 31.0497 5.50646C31.4653 4.95748 32.0477 4.5342 32.7967 4.23661C33.551 3.93903 34.4334 3.79024 35.4442 3.79024C36.9372 3.79024 38.1121 4.10578 38.969 4.73686C39.8309 5.36793 40.3337 6.22733 40.4774 7.31504Z" fill="white"/>
  <path d="M10.8726 0.00378418H14.9823L19.3229 10.5936H19.5076L23.8481 0.00378418H27.9578V15.7653H24.7255V5.50646H24.5947L20.5158 15.6883H18.3147L14.2358 5.46798H14.1049V15.7653H10.8726V0.00378418Z" fill="white"/>
  <path d="M7.03419 0.00378418V15.7653H3.7018V3.16686H3.60945L0 5.4295V2.47422L3.9019 0.00378418H7.03419Z" fill="white"/>
</svg>
