<svg xmlns="http://www.w3.org/2000/svg" fill="none" viewBox="0 0 20 20">
  <path fill="currentColor" fill-rule="evenodd" d="M7.275 3.504c1.017-2.448 4.434-2.448 5.45 0l.51 1.228c.186.448.589.748 1.045.8l1.422.161c2.523.286 3.51 3.416 1.712 5.156l-1.208 1.169a1.36 1.36 0 0 0-.383 1.242l.292 1.476c.502 2.543-2.243 4.565-4.48 3.127l-.954-.613a1.25 1.25 0 0 0-1.361 0l-.954.613c-2.238 1.438-4.983-.584-4.48-3.127l.29-1.476a1.36 1.36 0 0 0-.382-1.242l-1.208-1.169c-1.798-1.74-.81-4.87 1.712-5.156l1.423-.161a1.3 1.3 0 0 0 1.045-.8zm3.91.639a1.273 1.273 0 0 0-2.37 0l-.51 1.228a2.96 2.96 0 0 1-2.397 1.817l-1.422.161c-1.07.121-1.566 1.504-.74 2.302l1.207 1.17a3.03 3.03 0 0 1 .859 2.762L5.52 15.06c-.236 1.194 1.022 1.995 1.945 1.402l.954-.613a2.92 2.92 0 0 1 3.162 0l.954.613c.923.593 2.18-.208 1.945-1.402l-.292-1.476a3.03 3.03 0 0 1 .86-2.763l1.207-1.169c.825-.798.33-2.18-.74-2.302l-1.423-.161a2.96 2.96 0 0 1-2.397-1.817z" clip-rule="evenodd"/>
</svg>
