<svg xmlns="http://www.w3.org/2000/svg" fill="none" viewBox="0 0 16 16">
  <path fill="currentColor" d="M6.688 2.182a1.438 1.438 0 0 1 2.623 0l.927 1.953c.213.449.625.76 1.101.832l2.074.313c1.2.181 1.678 1.714.81 2.593l-1.5 1.52c-.345.35-.502.853-.42 1.347l.353 2.146c.205 1.243-1.049 2.19-2.122 1.603L8.68 13.476a1.41 1.41 0 0 0-1.36 0l-1.855 1.013c-1.073.587-2.327-.36-2.122-1.603l.354-2.146a1.56 1.56 0 0 0-.42-1.346l-1.5-1.52c-.869-.88-.39-2.413.81-2.594l2.073-.313a1.47 1.47 0 0 0 1.101-.832z"/>
</svg>
