<svg xmlns="http://www.w3.org/2000/svg" fill="none" viewBox="0 0 18 18">
  <path fill="currentColor" d="M13.76 17.333a.6.6 0 0 1-.294-.075L9 14.798l-4.467 2.46a.61.61 0 0 1-.663-.051.66.66 0 0 1-.213-.285.7.7 0 0 1-.038-.36l.854-5.21-3.616-3.69a.69.69 0 0 1-.16-.677.66.66 0 0 1 .194-.301c.09-.08.2-.131.316-.149l4.994-.76 2.234-4.74a.65.65 0 0 1 .232-.269.61.61 0 0 1 .666 0c.1.065.18.158.233.269l2.233 4.74 4.994.76c.117.018.226.07.316.149a.66.66 0 0 1 .193.3.69.69 0 0 1-.16.678l-3.614 3.69.853 5.21a.7.7 0 0 1-.14.537.6.6 0 0 1-.216.173.6.6 0 0 1-.265.061"/>
</svg>
