<svg xmlns="http://www.w3.org/2000/svg" fill="none" viewBox="0 0 16 16">
  <path fill="url(#a)" fill-rule="evenodd" d="M12.8 11.714c0 .316-.269.572-.6.572s-.6-.256-.6-.572v-8c0-.315.269-.571.6-.571s.6.256.6.571zM12.8 2h-1.2c-.663 0-1.2.511-1.2 1.143v9.143c0 .631.537 1.143 1.2 1.143h1.2c.663 0 1.2-.512 1.2-1.143V3.143C14 2.51 13.463 2 12.8 2m-4.2 9.714c0 .316-.269.572-.6.572s-.6-.256-.6-.572V6c0-.315.269-.571.6-.571s.6.256.6.571zm0-7.428H7.4c-.663 0-1.2.511-1.2 1.143v6.857c0 .631.537 1.143 1.2 1.143h1.2c.663 0 1.2-.512 1.2-1.143V5.429c0-.632-.537-1.143-1.2-1.143m-4.2 7.428c0 .316-.269.572-.6.572s-.6-.256-.6-.572V9.43c0-.316.269-.572.6-.572s.6.256.6.572zm0-4H3.2c-.663 0-1.2.512-1.2 1.143v3.429c0 .631.537 1.143 1.2 1.143h1.2c.663 0 1.2-.512 1.2-1.143V8.857c0-.631-.537-1.143-1.2-1.143" clip-rule="evenodd"/>
  <defs>
    <linearGradient id="a" x1="10.745" x2="1.785" y1="2" y2="5.481" gradientUnits="userSpaceOnUse">
      <stop stop-color="#BD0F36"/>
      <stop offset="1" stop-color="#9C163A"/>
    </linearGradient>
  </defs>
</svg>
