<svg xmlns="http://www.w3.org/2000/svg" fill="none" viewBox="0 0 20 20">
  <path fill="currentColor" fill-rule="evenodd" d="M14.334 1.667H5.667a4 4 0 0 0-4 4v8.667a4 4 0 0 0 4 4h8.667a4 4 0 0 0 4-4V5.667a4 4 0 0 0-4-4m-3.109 3.725a.625.625 0 0 1 .884 0l1.667 1.666a.625.625 0 0 1-.442 1.067h-5c-.576 0-1.042.467-1.042 1.042V10a.625.625 0 1 1-1.25 0v-.833a2.29 2.29 0 0 1 2.292-2.292h3.49l-.599-.6a.625.625 0 0 1 0-.883m-5 7.55 1.667 1.667a.625.625 0 1 0 .884-.884l-.6-.6h3.491a2.29 2.29 0 0 0 2.292-2.291V10a.625.625 0 0 0-1.25 0v.834c0 .575-.467 1.041-1.042 1.041h-5a.625.625 0 0 0-.442 1.067" clip-rule="evenodd"/>
</svg>
