<svg xmlns="http://www.w3.org/2000/svg" fill="none" viewBox="0 0 21 20">
  <path fill="currentColor" fill-rule="evenodd" d="M14.832 17.778c.46 0 .833-.373.833-.833V15h1.945a.833.833 0 1 0 0-1.667h-2.778a.833.833 0 0 0-.833.834v2.778c0 .46.373.833.833.833M2.888 5.833c0-.46.373-.833.833-.833h1.945V3.055a.833.833 0 1 1 1.667 0v2.778c0 .46-.373.834-.834.834H3.721a.833.833 0 0 1-.833-.834M13.34 7.327a.833.833 0 0 1 0 1.179l-4.167 4.167a.833.833 0 1 1-1.179-1.179l4.167-4.167a.833.833 0 0 1 1.178 0" clip-rule="evenodd"/>
  <path fill="currentColor" fill-rule="evenodd" d="M15.632 5.034a3.095 3.095 0 0 0-4.377 0l-1.39 1.389a.833.833 0 1 1-1.178-1.179l1.39-1.389a4.762 4.762 0 0 1 6.733 6.734l-1.388 1.39a.833.833 0 0 1-1.179-1.18l1.389-1.388a3.095 3.095 0 0 0 0-4.377M5.7 14.966a3.095 3.095 0 0 0 4.377 0l1.39-1.389a.833.833 0 1 1 1.178 1.179l-1.39 1.389A4.762 4.762 0 1 1 4.523 9.41L5.91 8.02A.833.833 0 0 1 7.088 9.2L5.7 10.588a3.095 3.095 0 0 0 0 4.377" clip-rule="evenodd"/>
</svg>
