<svg xmlns="http://www.w3.org/2000/svg" fill="none" viewBox="0 0 20 20">
  <path fill="currentColor" fill-rule="evenodd" d="M9.997 4.167a1.667 1.667 0 1 0 0 3.333 1.667 1.667 0 0 0 0-3.333M6.664 5.833a3.333 3.333 0 1 1 6.667 0 3.333 3.333 0 0 1-6.667 0m3.335 5.834c-1.291 0-3.096.472-4.187.88-.482.18-.813.665-.813 1.252v2.868a.833.833 0 0 1-1.667 0v-2.868c0-1.208.696-2.364 1.896-2.813 1.176-.44 3.195-.986 4.77-.986 1.623 0 3.377.582 4.634 1.003 1.26.423 2.033 1.614 2.033 2.889v2.775a.833.833 0 0 1-1.666 0v-2.775c0-.615-.367-1.13-.897-1.309-1.305-.437-2.799-.916-4.103-.916" clip-rule="evenodd"/>
</svg>
