<svg xmlns="http://www.w3.org/2000/svg" fill="none" viewBox="0 0 20 20">
  <path fill="currentColor" d="M10 1.666a8.333 8.333 0 1 0 8.333 8.333A8.343 8.343 0 0 0 10 1.666m0 15.278a6.944 6.944 0 1 1 6.944-6.945A6.95 6.95 0 0 1 10 16.944"/>
  <path fill="currentColor" fill-rule="evenodd" d="M10 1.5a8.51 8.51 0 0 1 8.5 8.5A8.5 8.5 0 1 1 10 1.5m8.333 8.5A8.333 8.333 0 1 1 10 1.667 8.34 8.34 0 0 1 18.333 10M6.234 15.636A6.8 6.8 0 0 0 10 16.778 6.786 6.786 0 0 0 16.778 10a6.778 6.778 0 1 0-10.544 5.636M10 16.944A6.944 6.944 0 1 1 16.944 10 6.95 6.95 0 0 1 10 16.944" clip-rule="evenodd"/>
  <path fill="currentColor" d="m12.981 7.425-4.37 4.37-1.592-1.592a.694.694 0 0 0-.982.982l2.083 2.083a.694.694 0 0 0 .982 0l4.861-4.86a.694.694 0 0 0-.982-.983"/>
  <path fill="currentColor" fill-rule="evenodd" d="M12.865 7.304a.861.861 0 0 1 1.218 1.218l-.002.002-4.861 4.861a.86.86 0 0 1-1.218 0L5.917 11.3a.861.861 0 0 1 1.217-1.218l.002.002 1.475 1.475zm-4.254 4.49-1.593-1.592a.694.694 0 0 0-.982.982l2.084 2.083a.694.694 0 0 0 .982 0l4.86-4.86a.694.694 0 0 0-.981-.983z" clip-rule="evenodd"/>
</svg>
