<svg xmlns="http://www.w3.org/2000/svg" fill="none" viewBox="0 0 24 24">
  <circle cx="12" cy="12" r="10"/>
  <path fill="currentColor" d="M19.645 10.992 18.557 9.73a1.77 1.77 0 0 1-.376-1.008V7.36a1.55 1.55 0 0 0-1.544-1.543h-1.36c-.312 0-.768-.168-1.008-.376l-1.264-1.088c-.553-.472-1.457-.472-2.017 0L9.733 5.45c-.24.2-.696.368-1.008.368H7.34A1.55 1.55 0 0 0 5.796 7.36v1.37c0 .312-.168.76-.368 1L4.348 11c-.464.552-.464 1.448 0 2l1.08 1.271c.2.24.368.688.368 1v1.368a1.55 1.55 0 0 0 1.544 1.544h1.384c.312 0 .768.167 1.008.375l1.265 1.088c.552.472 1.456.472 2.016 0l1.264-1.088c.24-.208.688-.375 1.008-.375h1.36a1.55 1.55 0 0 0 1.544-1.544v-1.36c0-.312.168-.768.376-1.008l1.088-1.263c.464-.552.464-1.464-.008-2.016"/>
  <path fill="background" fill-rule="evenodd" d="M15.707 9.293a1 1 0 0 1 0 1.414l-4 4a1 1 0 0 1-1.414 0l-2-2a1 1 0 1 1 1.414-1.414L11 12.586l3.293-3.293a1 1 0 0 1 1.414 0" clip-rule="evenodd"/>
</svg>
