<svg xmlns="http://www.w3.org/2000/svg" fill="none" viewBox="0 0 20 20">
  <path fill="currentColor" fill-rule="evenodd" d="M5.834 6.667a3.6 3.6 0 0 0-.571.043c-.876.11-1.553.483-2.013 1.022-.46.542-.75 1.305-.75 2.268v4.167c0 1.06.35 1.88.902 2.431s1.371.902 2.432.902h8.333c1.06 0 1.88-.35 2.432-.902s.902-1.37.902-2.431V10c0-.97-.294-1.737-.763-2.28-.467-.542-1.154-.914-2.042-1.017l-.04-.006a3 3 0 0 0-.489-.03zm-.79-1.61Q5.43 5 5.834 5h8.333c.228 0 .482.008.741.05 1.254.15 2.33.698 3.092 1.58.765.886 1.167 2.056 1.167 3.37v4.167c0 1.439-.483 2.703-1.39 3.61-.906.906-2.17 1.39-3.61 1.39H5.834c-1.44 0-2.704-.484-3.61-1.39-.907-.907-1.39-2.171-1.39-3.61V10c0-1.303.395-2.465 1.148-3.349.753-.883 1.818-1.434 3.062-1.593" clip-rule="evenodd"/>
  <path fill="currentColor" fill-rule="evenodd" d="M8.94 3.105 7.052 5h6.633a2 2 0 0 0-.327-.415l-.008-.008-1.455-1.472a2.104 2.104 0 0 0-2.955.001M5.054 4.643l2.71-2.719a3.77 3.77 0 0 1 5.308 0l.005.005 1.455 1.472a3.65 3.65 0 0 1 1.093 2.433.833.833 0 0 1-.97.862 3 3 0 0 0-.487-.03H5.835q-.291 0-.549.04a.833.833 0 0 1-.872-1.197c.166-.33.392-.619.64-.866m8.28 7.439c0-1.377 1.123-2.5 2.5-2.5h2.5a.833.833 0 0 1 0 1.667h-2.5a.84.84 0 0 0-.833.833c0 .457.377.833.833.833h2.5a.833.833 0 0 1 0 1.667h-2.5a2.505 2.505 0 0 1-2.5-2.5" clip-rule="evenodd"/>
</svg>
