<svg xmlns="http://www.w3.org/2000/svg" fill="none" viewBox="0 0 52 41">
  <path fill="currentColor" d="M45.548 0H6.45a6.48 6.48 0 0 0-4.558 1.88A6.4 6.4 0 0 0 0 6.416v28.17a6.4 6.4 0 0 0 1.891 4.534A6.48 6.48 0 0 0 6.451 41h39.096a6.48 6.48 0 0 0 4.562-1.882A6.4 6.4 0 0 0 52 34.58V6.418a6.4 6.4 0 0 0-1.892-4.536A6.48 6.48 0 0 0 45.548 0m0 1.763c1.24.002 2.43.492 3.307 1.365a4.65 4.65 0 0 1 1.372 3.29v4.812h-4.182V6.414a6.36 6.36 0 0 0-2.021-4.652zm4.68 26.243H37.932a5.12 5.12 0 0 1-3.602-1.486 5.06 5.06 0 0 1-1.495-3.583v-4.875a5.06 5.06 0 0 1 1.495-3.583 5.12 5.12 0 0 1 3.602-1.486h12.294zM1.772 34.584V6.414a4.64 4.64 0 0 1 1.371-3.288A4.7 4.7 0 0 1 6.45 1.762h33.167a4.7 4.7 0 0 1 3.291 1.372 4.64 4.64 0 0 1 1.364 3.28v4.814h-6.34a6.9 6.9 0 0 0-4.855 2.004 6.82 6.82 0 0 0-2.013 4.83v4.875a6.82 6.82 0 0 0 2.014 4.829 6.9 6.9 0 0 0 4.855 2.003h6.34v4.815a4.64 4.64 0 0 1-1.365 3.28 4.7 4.7 0 0 1-3.291 1.372H6.45a4.7 4.7 0 0 1-3.305-1.364 4.64 4.64 0 0 1-1.372-3.288m43.775 4.652h-1.525a6.36 6.36 0 0 0 2.02-4.651v-4.816h4.184v4.812a4.65 4.65 0 0 1-1.372 3.29 4.7 4.7 0 0 1-3.307 1.365"/>
  <path fill="currentColor" d="M41.532 23.977a3.5 3.5 0 0 0 1.943-.587 3.5 3.5 0 0 0 1.287-1.56 3.46 3.46 0 0 0-.758-3.79 3.51 3.51 0 0 0-3.81-.754 3.5 3.5 0 0 0-1.57 1.281 3.464 3.464 0 0 0 .436 4.39 3.5 3.5 0 0 0 2.472 1.02m0-5.192a1.73 1.73 0 0 1 1.592 1.058 1.71 1.71 0 0 1-.374 1.869 1.73 1.73 0 0 1-1.878.371 1.708 1.708 0 0 1-.558-2.796 1.73 1.73 0 0 1 1.218-.502"/>
</svg>
