<svg xmlns="http://www.w3.org/2000/svg" fill="none" viewBox="0 0 895 895">
  <path fill="#224874" d="M487.884 243.233c0 22.355-18.122 40.478-40.477 40.478s-40.478-18.123-40.478-40.478 18.123-40.478 40.478-40.478 40.477 18.123 40.477 40.478"/>
  <path fill="#224874" fill-rule="evenodd" d="M566.085 70.257c-51.391-93.676-185.965-93.676-237.357 0L256.14 202.57a135.37 135.37 0 0 1-53.57 53.57L70.257 328.728c-93.676 51.392-93.676 185.966 0 237.357l132.313 72.589a135.37 135.37 0 0 1 53.57 53.57l72.588 132.313c51.392 93.675 185.966 93.676 237.357 0l72.589-132.313a135.36 135.36 0 0 1 53.57-53.57l132.313-72.589c93.675-51.391 93.676-185.965 0-237.357L692.244 256.14a135.37 135.37 0 0 1-53.57-53.57zm-54.388 97.425c-22.165-59.901-106.889-59.901-129.055 0L335.5 295.083a68.8 68.8 0 0 1-40.65 40.65l-127.401 47.142c-59.901 22.166-59.901 106.89 0 129.055l127.401 47.143a68.8 68.8 0 0 1 40.65 40.65l47.142 127.4c22.166 59.902 106.89 59.902 129.055 0l47.143-127.4a68.8 68.8 0 0 1 40.65-40.65l127.4-47.143c59.902-22.165 59.902-106.889 0-129.055l-127.4-47.142a68.8 68.8 0 0 1-40.65-40.65z" clip-rule="evenodd"/>
</svg>
