<svg xmlns="http://www.w3.org/2000/svg" fill="none" viewBox="0 0 20 20">
  <path fill="currentColor" fill-rule="evenodd" d="M2.5 14.333V5.667a4 4 0 0 1 4-4h2.676c.352 0 .699.046 1.032.135V5a3.96 3.96 0 0 0 3.959 3.958h3.198q.134.502.135 1.032v4.343a4 4 0 0 1-4 4h-7a4 4 0 0 1-4-4M11.458 5V2.381q.292.203.547.457l4.323 4.324a4 4 0 0 1 .457.546h-2.618A2.71 2.71 0 0 1 11.458 5m-4.202 9.806q.339.144.853.144.451 0 .801-.134.35-.133.545-.385a.96.96 0 0 0 .2-.606.94.94 0 0 0-.133-.52.93.93 0 0 0-.421-.339 3.2 3.2 0 0 0-.756-.22 4 4 0 0 1-.447-.119.6.6 0 0 1-.231-.133.27.27 0 0 1-.067-.18q0-.164.123-.242a.66.66 0 0 1 .355-.082q.21 0 .34.087.132.082.164.196.03.046.071.066.042.021.098.021h.678q.046 0 .078-.03.03-.037.03-.078a.7.7 0 0 0-.102-.334 1.1 1.1 0 0 0-.278-.329 1.4 1.4 0 0 0-.457-.247 1.9 1.9 0 0 0-.622-.092q-.437 0-.755.139a1.2 1.2 0 0 0-.499.385.95.95 0 0 0-.175.56q0 .319.144.535.144.21.416.344.277.129.669.21.303.063.483.124a.7.7 0 0 1 .267.134q.082.072.082.185 0 .159-.154.252-.15.092-.447.092a1 1 0 0 1-.303-.041.6.6 0 0 1-.196-.118.6.6 0 0 1-.113-.15.3.3 0 0 0-.072-.066.2.2 0 0 0-.108-.026H6.67a.11.11 0 0 0-.082.036.1.1 0 0 0-.031.072.9.9 0 0 0 .185.504q.175.236.514.385m3.561-.01a1.2 1.2 0 0 1-.544-.463q-.195-.313-.216-.78a19 19 0 0 1 0-.89q.02-.462.216-.776.2-.319.55-.478.349-.159.817-.159.462 0 .812.16.354.158.555.477.2.315.215.776a10 10 0 0 1 0 .89q-.02.466-.215.78-.195.309-.545.463a2 2 0 0 1-.822.154q-.474 0-.823-.154m.823-.586a.6.6 0 0 0 .442-.165q.174-.165.185-.524a10 10 0 0 0 0-.842.9.9 0 0 0-.093-.391.5.5 0 0 0-.216-.226.7.7 0 0 0-.318-.072.7.7 0 0 0-.314.072.52.52 0 0 0-.22.226.9.9 0 0 0-.093.39 18 18 0 0 0 0 .843q.015.36.185.524t.442.165m2.317.689a.13.13 0 0 1-.093-.036.13.13 0 0 1-.035-.093v-3.34q0-.057.035-.093a.13.13 0 0 1 .093-.036h.545q.088 0 .123.041a.2.2 0 0 1 .052.057l1.253 1.979V11.43q0-.057.036-.093a.13.13 0 0 1 .093-.036h.616q.057 0 .093.036a.13.13 0 0 1 .036.093v3.34a.14.14 0 0 1-.036.093.13.13 0 0 1-.093.036h-.55q-.081 0-.123-.041l-.046-.057-1.254-1.901v1.87a.13.13 0 0 1-.036.093.13.13 0 0 1-.092.036zm-9.389.051q-.293 0-.56-.072a1.5 1.5 0 0 1-.467-.226 1.1 1.1 0 0 1-.33-.37 1.2 1.2 0 0 1-.128-.514q0-.046.031-.077a.1.1 0 0 1 .082-.036h.694q.072 0 .108.036.041.036.067.108a.5.5 0 0 0 .097.236.5.5 0 0 0 .18.134q.114.04.252.041a.49.49 0 0 0 .396-.165q.139-.17.139-.493v-1.485H3.464a.14.14 0 0 1-.093-.036.13.13 0 0 1-.036-.092v-.51q0-.056.036-.092a.14.14 0 0 1 .093-.036H5.95q.056 0 .092.036a.12.12 0 0 1 .041.093v2.148q0 .447-.195.755-.195.303-.534.463a1.9 1.9 0 0 1-.787.154" clip-rule="evenodd"/>
</svg>
