<svg xmlns="http://www.w3.org/2000/svg" fill="none" viewBox="0 0 24 24">
  <path fill="currentColor" fill-rule="evenodd" stroke="currentColor" stroke-linecap="round" stroke-linejoin="round" stroke-width=".4" d="M6.4 2.933a.156.156 0 0 0-.155.156v10.844a.467.467 0 0 1-.934 0V3.09A1.09 1.09 0 0 1 6.401 2h7.474a.47.47 0 0 1 .322.137l4.355 4.355a.47.47 0 0 1 .137.33v7.111a.467.467 0 0 1-.933 0V7.29h-3.89a.467.467 0 0 1-.466-.467v-3.89zm7.933.66v2.763h2.763z" clip-rule="evenodd"/>
  <path fill="currentColor" fill-rule="evenodd" d="M13.224 18.185v.628q0 .462-.12.771c-.067.19-.181.352-.328.465a.8.8 0 0 1-.48.152.8.8 0 0 1-.48-.152 1.03 1.03 0 0 1-.326-.465 2.2 2.2 0 0 1-.12-.77v-.629q0-.464.12-.77c.068-.19.181-.352.327-.466a.8.8 0 0 1 .48-.155q.27 0 .479.155c.146.113.26.275.329.465q.12.307.12.771Zm.82.625v-.617q0-.681-.21-1.17a1.67 1.67 0 0 0-.602-.758Q12.845 16 12.297 16q-.544 0-.939.265a1.65 1.65 0 0 0-.6.755q-.21.489-.21 1.173v.616q0 .677.21 1.17.209.49.6.754.395.26.94.26c.545 0 .676-.086.935-.26q.393-.264.601-.753.21-.495.21-1.17" clip-rule="evenodd"/>
  <path fill="currentColor" fill-rule="evenodd" d="M11.22 16.056q.467-.307 1.077-.306c.406 0 .77.1 1.075.308.306.205.545.51.693.868q.23.547.229 1.267v.616q.001.716-.23 1.268v.001a1.9 1.9 0 0 1-.691.862c-.307.207-.67.304-1.076.304-.404 0-.766-.097-1.077-.303h-.001a1.9 1.9 0 0 1-.692-.863c-.156-.367-.23-.793-.23-1.268v-.617q-.002-.721.23-1.27a1.9 1.9 0 0 1 .693-.866Zm1.077.194c-.32 0-.583.078-.8.223a1.4 1.4 0 0 0-.509.642l-.001.004c-.123.287-.19.642-.19 1.074v.616c0 .426.066.781.19 1.073.123.287.294.498.51.643.216.143.479.219.8.219.324 0 .586-.077.797-.219.216-.145.387-.355.51-.643.123-.292.19-.647.19-1.073v-.616c0-.429-.067-.784-.19-1.073v-.002a1.43 1.43 0 0 0-.511-.646h-.001c-.21-.144-.472-.222-.795-.222m-.33.898a.8.8 0 0 0-.242.35l-.002.007c-.065.167-.103.39-.103.68v.635c-.006.234.03.466.106.68a.8.8 0 0 0 .24.349c.102.07.215.104.325.102h.011a.55.55 0 0 0 .325-.102.77.77 0 0 0 .242-.349l.002-.006q.101-.25.103-.68v-.629c0-.29-.037-.514-.102-.68l-.003-.007a.77.77 0 0 0-.244-.35.54.54 0 0 0-.329-.104h-.005a.54.54 0 0 0-.324.104m.332-.604a1.04 1.04 0 0 0-.63.203l-.007.005a1.3 1.3 0 0 0-.406.575 2.4 2.4 0 0 0-.136.858v.625a2.4 2.4 0 0 0 .134.857v.001c.083.23.223.433.408.578l.01.008c.185.13.4.2.624.197.224.004.44-.066.625-.198l.008-.006c.187-.144.328-.346.41-.576.093-.243.135-.532.135-.858v-.628a2.4 2.4 0 0 0-.135-.858 1.26 1.26 0 0 0-.41-.576l-.004-.003a1.03 1.03 0 0 0-.626-.204" clip-rule="evenodd"/>
  <path fill="currentColor" d="M17.06 21v-1h1.301a.5.5 0 0 1 .5.5v.5zm-.699 0a.5.5 0 0 1-.5-.5v-3.9a.6.6 0 0 1 1.199 0V21z"/>
  <path fill="currentColor" fill-rule="evenodd" d="M18.861 21v-.5a.5.5 0 0 0-.5-.5H17.06v-3.4a.6.6 0 0 0-1.199 0v3.9a.5.5 0 0 0 .5.5zm-1.701-1.1v-3.3a.7.7 0 0 0-1.399 0v3.9a.6.6 0 0 0 .6.6h2.6v-.6a.6.6 0 0 0-.6-.6z" clip-rule="evenodd"/>
  <path fill="currentColor" stroke="currentColor" stroke-linecap="round" stroke-linejoin="round" stroke-width=".4" d="M6.468 17.532c0-.192.067-.316.163-.398.104-.09.286-.166.562-.166.332 0 .655.108.921.307a.484.484 0 0 0 .579-.776A2.5 2.5 0 0 0 7.195 16h-.001c-.45 0-.873.125-1.192.399-.328.28-.502.68-.502 1.133 0 .244.067.464.196.651.124.182.29.309.452.401.29.165.657.262.949.34l.053.013c.339.09.589.163.76.267.135.083.17.15.17.264 0 .25-.086.352-.19.419-.138.089-.372.145-.696.145a1.55 1.55 0 0 1-.92-.307.484.484 0 0 0-.58.776A2.52 2.52 0 0 0 7.192 21h.002c.402 0 .853-.064 1.218-.298.4-.256.636-.677.636-1.234 0-.532-.287-.878-.635-1.09-.31-.189-.699-.292-1.003-.373l-.012-.003c-.344-.091-.597-.16-.772-.26a.4.4 0 0 1-.132-.106c-.013-.018-.026-.045-.026-.104"/>
</svg>
