<svg xmlns="http://www.w3.org/2000/svg" fill="none" viewBox="0 0 20 20">
  <path fill="#1A1A1A"
    d="M19.353 10.582a9.28 9.28 0 0 1-3.146 6.432 10 10 0 0 1-.819.644c-.909-.805-1.675-1.167-2.243-1.323a6.53 6.53 0 0 0 3.415-5.747c0-.44-.044-.881-.132-1.31.848-.458 1.757-.804 2.752-1.157.163.8.225 1.625.173 2.461M8.367 16.927a6.6 6.6 0 0 0 1.528.204v2.228a9.32 9.32 0 0 1-5.32-1.725c1.008-.869 1.879-1.14 2.467-1.204q.625.317 1.325.497m-5.388-.726A9.28 9.28 0 0 1 .795 8.268c.902.285 1.877.613 2.771 1.065a6.54 6.54 0 0 0 3.161 6.927c-.608.12-1.413.449-2.327 1.247a9.5 9.5 0 0 1-1.421-1.306m1.26-13.563c.82.888 1.468 1.722 2.011 2.586a6.5 6.5 0 0 0-2.638 3.898C2.71 8.67 1.734 8.345.834 8.06a9.34 9.34 0 0 1 3.405-5.423m11.355-.135c-.822.891-1.474 1.73-2.02 2.598a6.53 6.53 0 0 0-3.47-1.055V.657q.235.002.472.017a9.3 9.3 0 0 1 5.018 1.83m-5.49 14.628a6.6 6.6 0 0 0 2.745-.645c.543.105 1.361.42 2.36 1.294a9.3 9.3 0 0 1-5.104 1.576zM4.15 9.652c1.016.609 1.846 1.38 2.576 2.397q-.007.009-.012.019l.045.027-.045-.027a3.3 3.3 0 0 0-.492 1.72c0 .622.177 1.213.495 1.729a5.91 5.91 0 0 1-2.567-5.865m2.425-3.889c.77 1.349 1.337 2.836 1.826 4.87a3.7 3.7 0 0 0-1.551 1.23c-.753-1.031-1.61-1.815-2.662-2.432a5.88 5.88 0 0 1 2.387-3.668m3.321-1.717a6.53 6.53 0 0 0-3.471 1.06c-.546-.867-1.197-1.704-2.017-2.594A9.34 9.34 0 0 1 9.895.658zm1.5 6.515a4 4 0 0 0-1.29-.252V4.673a5.9 5.9 0 0 1 3.144.965c-.783 1.367-1.359 2.87-1.854 4.923m.196.08c.49-2.041 1.059-3.532 1.831-4.884a5.88 5.88 0 0 1 2.388 3.635c-1.051.65-1.909 1.458-2.662 2.509a3.7 3.7 0 0 0-1.557-1.26m.503 5.262a2.3 2.3 0 0 0-.378-.906c.36-.874.743-1.635 1.16-2.31.16.347.244.722.244 1.1 0 .825-.379 1.584-1.026 2.116m-4.976-3.267c.427.679.815 1.45 1.181 2.34a2.3 2.3 0 0 0-.396.946c-.663-.534-1.053-1.302-1.053-2.134 0-.398.093-.79.268-1.152m1.997 1.65a2.1 2.1 0 0 0-.667.504 15 15 0 0 0-1.216-2.366l.016-.028c.305-.496.76-.888 1.296-1.141.198.897.386 1.897.571 3.03m.78-3.35v3.15q-.304.016-.581.116a55 55 0 0 0-.575-3.032c.361-.143.752-.224 1.156-.234m0-.628c-.45.01-.89.095-1.298.246-.495-2.047-1.069-3.546-1.85-4.91a5.9 5.9 0 0 1 3.148-.971zm.785 3.892a2 2 0 0 0-.575-.114v-3.15c.402.014.79.097 1.147.241-.2.896-.387 1.894-.572 3.023m2.085-1.73a16 16 0 0 0-1.197 2.338c-.193-.22-.427-.4-.69-.526.185-1.128.372-2.124.57-3.018.54.26.996.661 1.298 1.17q.01.018.02.036m3.167-1.882a5.9 5.9 0 0 1-2.717 4.977c.341-.53.534-1.142.534-1.777 0-.585-.16-1.163-.462-1.673l-.017-.026c.732-1.036 1.563-1.833 2.58-2.475q.08.483.082.974m1.089-6.774a9.3 9.3 0 0 1 2.115 4.1c-.994.353-1.903.697-2.756 1.152a6.5 6.5 0 0 0-2.633-3.848c.543-.864 1.193-1.698 2.014-2.587.45.352.873.746 1.26 1.183m.47-.416a9.94 9.94 0 0 0-6.876-3.35C5.11-.291.357 3.902.018 9.394a9.9 9.9 0 0 0 2.49 7.223 9.94 9.94 0 0 0 7.505 3.37c2.439 0 4.766-.877 6.609-2.503a9.9 9.9 0 0 0 3.358-6.863 9.9 9.9 0 0 0-2.49-7.223" />
</svg>