<svg xmlns="http://www.w3.org/2000/svg" fill="none" class="text-slate-50" viewBox="0 0 96 97">
    <g fill="#8CC63F" clip-path="url(#a)">
        <path d="m29.217 65.11-4.513-.988c-1.732-.37-2.597-1.11-2.597-2.096 0-.617.247-1.172.742-1.542.494-.37 1.175-.617 1.978-.617.928 0 1.608.247 2.103.74.494.493.742 1.172.742 1.974h7.048c0-1.666-.433-3.084-1.237-4.317-.803-1.234-1.916-2.159-3.338-2.837-1.422-.679-3.092-.987-4.947-.987s-3.648.308-5.193.925c-1.546.617-2.72 1.542-3.586 2.714-.866 1.171-1.299 2.59-1.299 4.255 0 2.097.557 3.7 1.67 4.81 1.113 1.049 2.782 1.85 4.946 2.344l4.452.987c.927.185 1.484.493 1.73.801.248.37.434.679.434 1.049 0 .616-.248 1.11-.804 1.48-.557.37-1.422.555-2.535.555-1.113 0-1.979-.247-2.597-.74-.618-.494-.927-1.11-.99-1.974h-7.171c0 2.467.927 4.44 2.782 5.983 1.855 1.541 4.39 2.281 7.605 2.281 2.102 0 3.957-.308 5.564-.986 1.608-.679 2.845-1.604 3.772-2.837.928-1.234 1.36-2.714 1.36-4.44 0-1.913-.556-3.393-1.545-4.38-.99-.986-2.597-1.726-4.576-2.158Zm17.374-10.67h-7.42v24.854h7.42V54.44Zm13.046-11.47h-7.42v36.324h7.42V42.969Zm29.245 17.575c-1.175-1.911-2.72-3.392-4.699-4.44-1.978-1.048-4.266-1.603-6.863-1.603-2.597 0-4.884.555-6.863 1.603-2.04 1.049-3.586 2.529-4.76 4.44-1.114 1.912-1.732 4.132-1.732 6.661 0 2.528.556 4.749 1.731 6.66 1.175 1.912 2.72 3.392 4.761 4.44 1.979 1.05 4.328 1.604 6.863 1.604s4.885-.555 6.863-1.603c1.979-1.049 3.586-2.529 4.7-4.44 1.112-1.912 1.73-4.133 1.73-6.661 0-2.529-.556-4.749-1.73-6.66Zm-6.492 9.868a5.138 5.138 0 0 1-2.04 2.097c-.866.493-1.855.74-3.03.74-1.175 0-2.164-.247-3.03-.74-.865-.494-1.545-1.234-2.04-2.097-.495-.925-.742-1.974-.742-3.207 0-1.233.248-2.282.742-3.207a5.138 5.138 0 0 1 2.04-2.097c.866-.493 1.855-.74 3.03-.74 1.175 0 2.164.247 3.03.74A5.138 5.138 0 0 1 82.39 64c.495.925.742 1.974.742 3.207 0 1.233-.247 2.282-.742 3.207ZM36.946 13.922c-12.551 0-22.691 10.114-22.691 22.633h45.444c0-12.52-10.14-22.633-22.691-22.633h-.062Zm9.645 29.048h-7.42v7.4h7.42v-7.4Z"/>
    </g>
    <defs>
        <clipPath id="a">
            <path fill="#fff" d="M14.255 13.922h76.359v66.05h-76.36z"/>
        </clipPath>
    </defs>
</svg>