<svg xmlns="http://www.w3.org/2000/svg" fill="none" class="logo" viewBox="0 0 32 32">
  <path fill="#000" d="M15.998 0C7.163 0 0 7.157 0 15.984c0 5.742 3.032 10.775 7.585 13.594a4.5 4.5 0 0 1-.055-.706V11.976c0-.517.106-1.018.316-1.491 1.437-3.23 4.527-5.237 8.069-5.237 3.541 0 6.628 2.007 8.068 5.237q.316.71.316 1.487V28.87c0 .28-.029.553-.073.822C28.884 26.898 32 21.802 32 15.98 31.996 7.157 24.834 0 15.998 0"/>
  <path fill="#000" d="M14.453 15.547c-2.094-.182-3.883-.73-4.738-1.473v4.023c0 .44.157.81.266.974.443.659 2.581 1.582 5.94 1.582s5.506-.927 5.95-1.582c.108-.163.363-.567.363-1.004l-.03-1.55V16.5l-.028-1.475c-1.542.861-3.85 1.338-6.672 1.338a1.09 1.09 0 0 1-1.051-.815"/>
  <path fill="#000" d="M22.263 19.73c-.964.97-3.523 1.654-6.341 1.654s-5.163-.629-6.21-1.538v3.044c0 .534 0 .93.138 1.134.596.873 2.821 1.753 6.45 1.753.44 0 .818.262.989.637 2.785-.258 5.065-1.27 5.047-2.48v-.124q-.001-.13-.008-.26c-.006-.136-.012-.271-.003-.402-.018-1.11-.04-2.277-.062-3.422z"/>
  <path fill="#000" d="M17.354 27.149a1.09 1.09 0 0 1-1.05.81c-2.771 0-5.047-.458-6.589-1.29v2.389c0 1.804 2.73 2.804 5.676 2.931h.01q.168.006.335.007l.131.002.131.002c.771 0 1.553-.098 2.295-.204 2.276-.349 4.115-1.262 4.115-2.742 0-.6-.018-1.938-.043-3.615-.727.858-2.687 1.51-5.01 1.702zM9.98 13.303c.379.56 1.986 1.313 4.531 1.524a1.09 1.09 0 0 1 .993-.644c3.628 0 5.854-.88 6.45-1.752a.85.85 0 0 0 .163-.47c0-.08-.01-.16-.021-.236l-.01-.042-.016-.063a2 2 0 0 0-.05-.157l-.01-.034-.009-.035c-1.076-2.444-3.41-3.964-6.083-3.964s-4.992 1.51-6.072 3.942a1.5 1.5 0 0 0-.127.604v.353c0 .44.156.81.265.974z"/>
</svg>
