<svg xmlns="http://www.w3.org/2000/svg" fill="none" viewBox="0 0 24 24">
  <g clip-path="url(#a)">
    <path fill="#0A0A0A" fill-rule="evenodd" d="M9.097 23.64c6.429 1.604 12.94-2.309 14.543-8.737 1.602-6.43-2.31-12.941-8.738-14.544S1.962 2.669.36 9.099C-1.243 15.526 2.67 22.037 9.097 23.64m5.555-16.377c1.662.572 2.878 1.43 2.639 3.027-.173 1.17-.82 1.735-1.681 1.934 1.181.614 1.782 1.558 1.21 3.193-.711 2.03-2.4 2.202-4.644 1.777l-.545 2.183-1.317-.328.538-2.154q-.51-.127-1.05-.272l-.539 2.164-1.315-.328.545-2.188-.372-.096-.567-.146-1.713-.427.653-1.507s.97.258.957.239c.373.092.539-.151.604-.313l.86-3.452.095.023.045.011a1 1 0 0 0-.137-.043l.614-2.465c.016-.28-.08-.632-.613-.765.02-.014-.956-.238-.956-.238l.35-1.406 1.816.453-.002.007q.41.1.84.197l.54-2.162 1.316.328-.529 2.12c.354.08.71.162 1.055.248l.525-2.106 1.317.329zm-4.165 7.842c1.075.284 3.422.904 3.796-.596.382-1.534-1.895-2.045-3.006-2.294q-.188-.042-.323-.075l-.724 2.898q.111.027.257.067M11.5 10.87c.896.239 2.85.76 3.19-.603.348-1.395-1.551-1.815-2.479-2.02l-.271-.063-.656 2.63q.094.022.216.056" clip-rule="evenodd"/>
  </g>
  <defs>
    <clipPath id="a">
      <path fill="#fff" d="M0 0h24v24H0z"/>
    </clipPath>
  </defs>
</svg>
