<svg xmlns="http://www.w3.org/2000/svg" fill="none" viewBox="0 0 24 24">
  <path fill="#000" d="m12.195 20.496.974-3.84H9.375l-3.642 2.847v-2.846h-.718c-.602 0-1.091-.49-1.091-1.096v-5.052c0-.606.489-1.095 1.09-1.095h8.721c.602 0 1.091.49 1.091 1.095v4.06l2.923-2.924V6.876H1v13.678c0 .8.647 1.446 1.446 1.446h13.858c.799 0 1.446-.647 1.446-1.446v-2.317l-1.137 1.136zM17.749 3.446c0-.8-.647-1.446-1.446-1.446H2.446C1.646 2 1 2.647 1 3.446v2.532h16.749zM3.447 4.883a.717.717 0 1 1 0-1.433.717.717 0 1 1 0 1.432m3.103 0a.717.717 0 1 1 .006-1.431.717.717 0 0 1-.006 1.43m9.313-.265h-5.85a.45.45 0 0 1-.45-.45.45.45 0 0 1 .45-.448h5.85a.45.45 0 0 1 .449.449.45.45 0 0 1-.45.449"/>
  <path fill="#000" d="m14.125 16.535-.687 2.717 2.717-.692.34-.34-2.024-2.03zM15.104 15.556l2.03 2.025 4.005-4.005-2.025-2.03zM22.428 10.258a1.437 1.437 0 0 0-2.025 0l-.656.656 2.03 2.025.65-.651c.284-.279.423-.647.423-1.015s-.14-.737-.422-1.015M12.439 11.551h-5.89a.449.449 0 1 0 0 .898h5.891a.449.449 0 1 0-.001-.898M12.439 13.521h-5.89a.449.449 0 1 0 0 .898h5.891a.449.449 0 1 0-.001-.898"/>
</svg>
