<svg xmlns="http://www.w3.org/2000/svg" fill="none" viewBox="0 0 24 24">
  <path fill="currentColor" fill-rule="evenodd" d="M20.59 14.774c.245-.016.482-.099.684-.238h.004q.297-.189.511-.484C21.927 13.39 22 12.703 22 12c0-5.523-4.477-10-10-10S2 6.477 2 12c0 1.55.352 3.017.981 4.326l5.643-9.058c.733-1.118 1.486-1.178 1.989-1.03.76.22 1.161.96 1.191 2.195v5.356l2.712-4.388.02-.034c.457-.73 1.59-2.544 3.1-2.102.907.264 1.449 1.239 1.449 2.608v2.852c0 .93.278 1.613.793 1.905.22.11.465.16.711.144Zm-.018 2.38a3.7 3.7 0 0 1-1.808-.442c-1.28-.717-2.009-2.17-2.009-3.987v-2.48q-.121.173-.264.408l-3.013 4.877c-1.014 1.647-1.982 1.774-2.614 1.59-.633-.184-1.386-.813-1.386-2.758v-4.047L4.392 18.49A9.98 9.98 0 0 0 12 22a10 10 0 0 0 8.572-4.847Z" clip-rule="evenodd"/>
</svg>
