<svg xmlns="http://www.w3.org/2000/svg" fill="none" viewBox="0 0 24 24">
  <path fill="currentColor" d="m8.074 22 .128-3.79a13.3 13.3 0 0 1-5.491 1.181v.805a1.803 1.803 0 0 0 1.803 1.805h3.56Z"/>
  <path fill="currentColor" fill-rule="evenodd" d="M7.631 2h2.797a9.95 9.95 0 0 1 4.552 1.094 13.2 13.2 0 0 0-1.871 2.688.87.87 0 0 0-.633.03.942.942 0 0 0-1.806 0 .92.92 0 0 0-1.09.287 1 1 0 0 0-.126.207c-.24-.328-.586-.533-.96-.754-.309-.183-.637-.377-.937-.661a.266.266 0 0 0-.406.02.53.53 0 0 0-.058.54c.323.762.72 1.305 1.075 1.787q.172.232.325.454a.67.67 0 0 0 .488.316 3 3 0 0 0-.417 1.13c-.458.124-.805.676-.805 1.341 0 .59.276 1.096.66 1.286l-.217 6.446a13.3 13.3 0 0 1-5.491 1.18V6.922A4.924 4.924 0 0 0 7.63 2Zm-.514 6.574a.46.46 0 0 0-.11-.345.5.5 0 0 0-.149-.11L5.591 7.55a.304.304 0 0 0-.304.524l1.127.814a.44.44 0 0 0 .522-.003.5.5 0 0 0 .125-.136.5.5 0 0 0 .056-.175m-.11 7.395a.5.5 0 0 0 .092-.16h-.002a.46.46 0 0 0-.038-.359.445.445 0 0 0-.646-.138l-1.128.812a.304.304 0 0 0 .305.525l1.267-.57a.5.5 0 0 0 .15-.11M4.33 12.372l.484.166a.544.544 0 1 0 0-1.032l-.484.166a.37.37 0 0 0 0 .7" clip-rule="evenodd"/>
  <path fill="currentColor" fill-rule="evenodd" d="M14.98 3.094A9.99 9.99 0 0 1 20.422 12a10 10 0 0 1-5.394 8.877l-.304-9.017v-.096a.4.4 0 0 0 .065-.038c.352-.211.595-.692.595-1.247q0-.099-.01-.198c-.061-.575-.382-1.032-.795-1.144a3 3 0 0 0-.409-1.13.67.67 0 0 0 .496-.316c.101-.15.211-.3.326-.458.35-.481.745-1.022 1.066-1.768l.018-.042a.37.37 0 0 0-.044-.38.373.373 0 0 0-.566-.035c-.294.28-.607.457-.9.623-.34.194-.652.37-.874.674a.97.97 0 0 0-.583-.523c.51-.97 1.138-1.873 1.871-2.688m3.348 9.442.486-.166a.37.37 0 0 0 0-.7l-.486-.166a.545.545 0 1 0 0 1.032m-.708 4.122a.304.304 0 0 0 .084-.536l-1.127-.813a.443.443 0 0 0-.645.139.443.443 0 0 0 .202.628l1.268.57a.3.3 0 0 0 .218.012M15.985 8.23a.45.45 0 0 0-.11.345.44.44 0 0 0 .182.313.45.45 0 0 0 .521.002l1.128-.814a.304.304 0 0 0-.304-.524l-1.268.57a.5.5 0 0 0-.15.108Z" clip-rule="evenodd"/>
  <path fill="currentColor" d="M6.19 5.48A4.92 4.92 0 0 0 7.63 2H4.514A1.803 1.803 0 0 0 2.71 3.803v3.119a4.92 4.92 0 0 0 3.479-1.443Zm6.286 5.224-.507.466a.3.3 0 0 0-.09.152c-.033.134-.099.397-.152.647a.15.15 0 0 1-.152.115.15.15 0 0 1-.152-.115l-.162-.647a.3.3 0 0 0-.09-.152l-.506-.466a.15.15 0 0 1-.033-.175.15.15 0 0 1 .156-.086l.76.103h.042l.06-.007.7-.096a.15.15 0 0 1 .153.085.15.15 0 0 1-.035.176m.76-.17a1.8 1.8 0 0 1 .271-.927.6.6 0 0 0 .05-.503l-.036.032a.89.89 0 0 1-1.086.009c0 .313-.286.572-.66.618a1 1 0 0 1-.118 0c-.427 0-.776-.28-.776-.626a.89.89 0 0 1-1.086-.009.7.7 0 0 1-.114-.12.6.6 0 0 0-.034.628c.147.277.224.585.223.898 0 .327-.087.648-.253.93a.61.61 0 0 0 .056.689c.437.525 1.135.961 1.803 1.02h.165c.773 0 1.38-.482 1.813-1.114a.6.6 0 0 0 .026-.626 1.9 1.9 0 0 1-.228-.897"/>
</svg>
