<svg xmlns="http://www.w3.org/2000/svg" fill="none" viewBox="0 0 24 24">
  <path stroke="currentColor" stroke-width=".8" d="M20.133 10.988a22 22 0 0 0-1.62-4.36.3.3 0 0 0-.1-.108 12.3 12.3 0 0 0-2.142-1.008C14.891 5.01 14.238 5 14.211 5a.28.28 0 0 0-.281.242l-.084.586a18.7 18.7 0 0 0-3.696 0l-.084-.586A.28.28 0 0 0 9.785 5c-.027 0-.68 0-2.06.508-.743.267-1.459.607-2.136 1.012a.3.3 0 0 0-.1.108 22 22 0 0 0-1.62 4.36C3.142 13.924 3 15.393 3 15.454a.28.28 0 0 0 .069.21 7.8 7.8 0 0 0 2.56 1.792c.888.378 1.824.634 2.782.762a.28.28 0 0 0 .27-.14l.76-1.301a15 15 0 0 0 2.559.21 15 15 0 0 0 2.559-.213l.76 1.303a.28.28 0 0 0 .241.141h.028a10.7 10.7 0 0 0 2.782-.756 7.8 7.8 0 0 0 2.559-1.792.28.28 0 0 0 .069-.21c.001-.067-.132-1.536-.866-4.473Zm-1.977 5.95c-.785.325-1.606.557-2.446.69l-.574-.983c.659-.175 2.028-.628 3.07-1.575a.283.283 0 0 0-.378-.422c-1.245 1.138-3.097 1.512-3.176 1.528h-.01c-.87.169-1.755.252-2.641.248a13.6 13.6 0 0 1-2.641-.24h-.01c-.02 0-1.905-.37-3.178-1.528a.283.283 0 1 0-.378.422c1.042.948 2.412 1.406 3.07 1.575l-.574.984a10.7 10.7 0 0 1-2.445-.692 7.4 7.4 0 0 1-2.271-1.567c.046-.41.236-1.838.844-4.253a22 22 0 0 1 1.535-4.168 12.4 12.4 0 0 1 1.969-.916 8.6 8.6 0 0 1 1.628-.449l.05.336c-.563.14-1.948.543-3.045 1.34a.281.281 0 0 0 .332.454c1.23-.894 2.925-1.268 3.07-1.3h.004A17 17 0 0 1 12 6.304q1.024-.005 2.04.118c.128.026 1.828.398 3.074 1.3a.281.281 0 1 0 .332-.454c-1.097-.797-2.476-1.198-3.044-1.34l.049-.336a8.7 8.7 0 0 1 1.627.449c.681.247 1.34.554 1.968.916a22 22 0 0 1 1.547 4.168c.603 2.415.793 3.843.844 4.253a7.4 7.4 0 0 1-2.282 1.56ZM9.36 10.652c-.866 0-1.57.787-1.57 1.755s.703 1.753 1.57 1.753 1.57-.786 1.57-1.753c0-.968-.705-1.755-1.57-1.755Zm0 2.953c-.562 0-1.008-.534-1.008-1.191s.451-1.193 1.008-1.193 1.007.535 1.007 1.193-.451 1.184-1.007 1.184zm3.71-1.198c0-.968.704-1.755 1.57-1.755.865 0 1.57.787 1.57 1.755s-.705 1.753-1.57 1.753c-.867 0-1.57-.786-1.57-1.753Zm.562.007c0 .657.445 1.19 1.007 1.19V13.6c.557 0 1.008-.526 1.008-1.184s-.452-1.193-1.008-1.193c-.555 0-1.007.536-1.007 1.193Z" clip-rule="evenodd"/>
</svg>
