<svg xmlns="http://www.w3.org/2000/svg" fill="none" viewBox="0 0 24 24">
  <g clip-path="url(#a)">
    <mask id="b" width="24" height="24" x="0" y="0" maskUnits="userSpaceOnUse" style="mask-type:luminance">
      <path fill="#fff" d="M24 0H0v24h24z"/>
    </mask>
    <g mask="url(#b)">
      <path fill="#fff" d="M22.724 11.282c0 5.99-4.855 10.844-10.844 10.844S1.036 17.271 1.036 11.282 5.891.438 11.88.438s10.844 4.855 10.844 10.844"/>
      <path fill="#0086FF" d="M12.104 0C5.394-.056-.056 5.394 0 12.104c.056 6.516 5.38 11.84 11.894 11.894 6.71.058 12.162-5.394 12.104-12.104C23.944 5.38 18.62.056 12.104 0M8.516 5.972a5.72 5.72 0 0 1 1.228 3.55c0 1.16-.344 2.24-.936 3.142h-4.16zM21.2 14.146c0 .056-.03.104-.082.126-.282.12-1.212.552-1.6 1.09-.998 1.39-1.76 3.574-3.464 3.574h-7.11a4.606 4.606 0 0 1-4.622-4.66c0-.066.056-.12.122-.12h3.37c.116 0 .208.094.208.208v.65c0 .346.28.626.626.626h2.556v-1.488H9.458a7.44 7.44 0 0 0 1.602-4.626c0-1.95-.748-3.728-1.972-5.058.74.086 1.448.234 2.116.43v-.414a.778.778 0 1 1 1.556 0v.998c2.386 1.114 3.948 2.962 3.948 5.052 0 1.226-.536 2.368-1.462 3.328a.95.95 0 0 1-.682.288H12.76v1.486h2.264c.488 0 1.364-.926 1.78-1.484 0 0 .018-.028.066-.042s4.158-.958 4.158-.958a.136.136 0 0 1 .172.13z"/>
    </g>
  </g>
  <defs>
    <clipPath id="a">
      <path fill="#fff" d="M0 0h24v24H0z"/>
    </clipPath>
  </defs>
</svg>
