<svg xmlns="http://www.w3.org/2000/svg" fill="none" viewBox="0 0 20 20">
  <path fill="currentColor" fill-rule="evenodd" d="M16.976 3.021a.833.833 0 0 1 0 1.179l-5.694 5.694a.833.833 0 0 1-1.178-1.178l5.694-5.695a.833.833 0 0 1 1.178 0" clip-rule="evenodd"/>
  <path fill="currentColor" fill-rule="evenodd" d="M12.781 3.056c0-.46.373-.833.834-.833h3.333c.46 0 .833.373.833.833v3.333a.833.833 0 1 1-1.666 0v-2.5h-2.5a.833.833 0 0 1-.834-.833m-9.19.539c1.014-1.014 2.504-1.372 4.322-1.372h1.39a.833.833 0 1 1 0 1.666h-1.39c-1.654 0-2.595.336-3.143.885-.549.548-.885 1.49-.885 3.143v4.167c0 1.654.336 2.595.885 3.143.548.549 1.49.884 3.143.884h4.167c1.654 0 2.595-.335 3.143-.884.549-.548.885-1.49.885-3.143v-1.39a.833.833 0 1 1 1.666 0v1.39c0 1.818-.358 3.308-1.372 4.322s-2.504 1.372-4.322 1.372H7.913c-1.818 0-3.308-.358-4.322-1.372S2.22 13.902 2.22 12.084V7.917c0-1.818.358-3.308 1.372-4.322" clip-rule="evenodd"/>
</svg>
