<svg xmlns="http://www.w3.org/2000/svg" fill="none" viewBox="0 0 24 24">
  <g clip-path="url(#a)">
    <g clip-path="url(#b)">
      <path fill="#FF4500" d="M12 0C5.373 0 0 5.373 0 12c0 3.314 1.343 6.314 3.515 8.485l-2.286 2.286A.72.72 0 0 0 1.74 24H12c6.627 0 12-5.373 12-12S18.627 0 12 0"/>
      <path fill="#fff" fill-rule="evenodd" d="M16.389 7.184a1.986 1.986 0 1 0-1.944-2.394 3.23 3.23 0 0 0-2.896 3.22c-1.758.074-3.364.574-4.638 1.364a2.802 2.802 0 1 0-2.902 4.756C4.102 17.385 7.647 20 12.007 20c4.362 0 7.91-2.62 7.998-5.876a2.802 2.802 0 1 0-2.91-4.754c-1.286-.796-2.91-1.297-4.686-1.363V8a2.37 2.37 0 0 1 2.047-2.344 1.986 1.986 0 0 0 1.933 1.528m-4.382 8.296c-.992 0-1.943.048-2.822.135a.222.222 0 0 0-.188.305 3.26 3.26 0 0 0 3.01 1.965c1.355 0 2.516-.811 3.01-1.965a.222.222 0 0 0-.188-.305 29 29 0 0 0-2.822-.135M9.64 13.417c-.046 1.016-.721 1.385-1.506 1.385s-1.385-.52-1.338-1.536.722-1.69 1.507-1.69 1.384.824 1.337 1.84M15.88 14.8c.785 0 1.384-.52 1.338-1.536s-.721-1.69-1.507-1.69-1.385.825-1.338 1.84c.046 1.018.721 1.386 1.507 1.386" clip-rule="evenodd"/>
    </g>
  </g>
  <defs>
    <clipPath id="a">
      <path fill="#fff" d="M0 0h24v24H0z"/>
    </clipPath>
    <clipPath id="b">
      <path fill="#fff" d="M0 0h24v24H0z"/>
    </clipPath>
  </defs>
</svg>
