<svg xmlns="http://www.w3.org/2000/svg" fill="none" viewBox="0 0 24 24">
  <path fill="currentColor" fill-rule="evenodd" d="M22.01 12c0 5.523-4.477 10-10 10s-10-4.477-10-10 4.477-10 10-10 10 4.477 10 10m-9.73-3.495a526 526 0 0 0-6.445 2.776q-.784.313-.822.61c-.042.337.38.47.953.65l.241.076c.564.184 1.323.398 1.718.407q.537.012 1.198-.443 4.515-3.047 4.661-3.08c.069-.016.164-.036.229.022.064.057.058.166.051.195-.041.178-1.694 1.715-2.55 2.51-.267.248-.456.424-.494.464q-.131.135-.26.257c-.524.505-.917.884.021 1.503.452.297.813.543 1.173.789.393.267.786.535 1.293.867q.194.129.374.259c.457.326.869.62 1.377.573.295-.027.6-.305.755-1.133.366-1.957 1.086-6.197 1.252-7.944a2 2 0 0 0-.019-.435.47.47 0 0 0-.157-.3c-.132-.107-.337-.13-.428-.128-.416.007-1.053.23-4.122 1.505Z" clip-rule="evenodd"/>
</svg>
