<svg xmlns="http://www.w3.org/2000/svg" fill="none" viewBox="0 0 24 24">
  <g clip-path="url(#a)">
    <path fill="#000" d="M12 1.5A7.5 7.5 0 0 0 4.5 9v.75c0 .412-.338.75-.75.75A.75.75 0 0 1 3 9.75V9c0-4.969 4.031-9 9-9s9 4.031 9 9v.75A5.247 5.247 0 0 1 15.75 15h-4.5c-.83 0-1.5-.67-1.5-1.5s.67-1.5 1.5-1.5h1.5c.83 0 1.5.67 1.5 1.5h1.5a3.75 3.75 0 0 0 3.75-3.75V9c0-4.144-3.356-7.5-7.5-7.5M6 9a6 6 0 1 1 12 0 6 6 0 0 1-.295 1.866A2.25 2.25 0 0 1 15.75 12h-.403a3 3 0 0 0-2.597-1.5h-1.5a3.003 3.003 0 0 0-2.995 3.188A5.99 5.99 0 0 1 6 9m6 7.5h4.2c3.478 0 6.3 2.822 6.3 6.3 0 .66-.54 1.2-1.2 1.2H2.7c-.66 0-1.2-.54-1.2-1.2 0-3.478 2.822-6.3 6.3-6.3H12"/>
  </g>
  <defs>
    <clipPath id="a">
      <path fill="#fff" d="M1.5 0h21v24h-21z"/>
    </clipPath>
  </defs>
</svg>
