<svg xmlns="http://www.w3.org/2000/svg" fill="none" viewBox="0 0 22 22">
  <path fill="currentColor" fill-rule="evenodd" stroke="currentColor" d="M18.067 3.928A9.98 9.98 0 0 0 10.997 1 9.98 9.98 0 0 0 3.93 3.928 9.97 9.97 0 0 0 1 11.003a9.97 9.97 0 0 0 2.929 7.069A9.98 9.98 0 0 0 10.998 21a9.98 9.98 0 0 0 7.069-2.928 9.97 9.97 0 0 0 2.928-7.07 9.97 9.97 0 0 0-2.928-7.074Zm-.554 13.59a9.2 9.2 0 0 1-6.516 2.702 9.2 9.2 0 0 1-6.515-2.702 9.18 9.18 0 0 1-2.701-6.515 9.18 9.18 0 0 1 2.7-6.521 9.18 9.18 0 0 1 6.517-2.696 9.18 9.18 0 0 1 6.515 2.696 9.18 9.18 0 0 1 2.701 6.52c0 2.542-1.03 4.85-2.701 6.516Z" clip-rule="evenodd"/>
  <path fill="currentColor" fill-rule="evenodd" d="M15.825 7.067c-.404.238-.858.41-1.334.504a2.1 2.1 0 0 0-1.534-.654c-1.151 0-2.093.925-2.093 2.06 0 .166.028.32.061.47a5.95 5.95 0 0 1-4.318-2.153c-.177.31-.287.659-.287 1.035 0 .72.411 1.35.965 1.716-.343-.005-.703-.1-.911-.255v.028c0 .266.014.51.108.742a2.06 2.06 0 0 0 1.522 1.273 2 2 0 0 1-.563.078 2 2 0 0 1-.397-.045 2.11 2.11 0 0 0 1.952 1.44c-.72.553-1.618.88-2.598.88-.171 0-.332-.011-.504-.028.93.581 2.031.925 3.21.925 3.272 0 5.283-2.265 5.808-4.617.095-.42.129-.836.129-1.246v-.265a4.2 4.2 0 0 0 1.05-1.069 4.4 4.4 0 0 1-1.196.327c.437-.26.774-.659.93-1.146" clip-rule="evenodd"/>
</svg>
