<svg xmlns="http://www.w3.org/2000/svg" fill="none" viewBox="0 0 24 24">
  <path fill="currentColor" fill-rule="evenodd" d="M12.005 22c5.523 0 10-4.477 10-10s-4.477-10-10-10-10 4.477-10 10 4.477 10 10 10m5.011-12.322q.724-.526 1.234-1.27a5 5 0 0 1-1.416.38 2.4 2.4 0 0 0 1.081-1.355 4.8 4.8 0 0 1-1.56.593 2.37 2.37 0 0 0-1.798-.776q-1.02 0-1.74.72a2.37 2.37 0 0 0-.72 1.739q0 .273.062.563a6.9 6.9 0 0 1-2.83-.757 7 7 0 0 1-2.241-1.816 2.4 2.4 0 0 0-.335 1.24 2.46 2.46 0 0 0 1.096 2.048 2.44 2.44 0 0 1-1.112-.312v.031q0 .89.56 1.564t1.412.849a2.5 2.5 0 0 1-.647.084q-.213 0-.464-.038.235.738.868 1.214a2.4 2.4 0 0 0 1.431.49 4.8 4.8 0 0 1-3.053 1.051q-.327 0-.594-.03a6.83 6.83 0 0 0 3.777 1.104 7.2 7.2 0 0 0 2.459-.415q1.15-.415 1.964-1.112a7.4 7.4 0 0 0 1.405-1.602 7.1 7.1 0 0 0 .88-1.892 7 7 0 0 0 .282-2.295Z" clip-rule="evenodd"/>
</svg>
