<svg xmlns="http://www.w3.org/2000/svg" fill="none" viewBox="0 0 24 24">
  <path fill="#000" d="M12.458 6.084a.566.566 0 0 1-.569-.568V2H3.553C2.984 2 2.5 2.463 2.5 3.032v15.2c0 .568.463 1.031 1.053 1.031h7.642l.084-.547c.042-.253.147-.463.295-.674l4.4-5.726V6.084zm-2.695.105v2.653c0 .042-.02.063-.063.084l-1.937.885c-.063.02-.147-.022-.147-.085V7.074c0-.042.02-.063.063-.085l1.937-.884c.084-.042.147 0 .147.084m-4.316-.757 1.832-.843h.084l1.832.843c.084.02.084.147 0 .168l-1.832.842a.064.064 0 0 1-.084 0L5.447 5.6c-.063-.021-.063-.147 0-.168m-.568.757c0-.063.084-.126.147-.084l1.937.884c.021.022.063.043.063.085v2.652c0 .063-.063.127-.126.085l-1.937-.885c-.02-.02-.063-.042-.063-.084V6.19zm5.537 10.127h-4.99a.566.566 0 0 1-.568-.569c0-.315.253-.568.568-.568h4.969c.316 0 .568.253.568.568a.536.536 0 0 1-.547.569m2.631-3.41h-7.62a.566.566 0 0 1-.57-.57c0-.315.254-.568.57-.568h7.62c.316 0 .569.253.569.569a.566.566 0 0 1-.569.568"/>
  <path fill="#000" d="M13.005 2.316v2.631h2.632zM12.48 18.737a.4.4 0 0 0-.085.168l-.442 2.632a.42.42 0 0 0 .147.379.32.32 0 0 0 .232.084c.063 0 .105-.021.168-.042l2.442-1.095c.063-.02.105-.063.148-.126l.19-.253-2.611-2.02zM20.627 11.832l-.969-.737a1.053 1.053 0 0 0-1.474.19L13.342 17.6l2.632 2 4.842-6.316c.337-.442.253-1.116-.19-1.452"/>
</svg>
