<svg width="32" height="32" viewBox="0 0 32 32" fill="none" xmlns="http://www.w3.org/2000/svg">
  <path d="M16 0C24.8366 0 32 7.16344 32 16C32 24.8366 24.8366 32 16 32C7.16344 32 0 24.8366 0 16C0 7.16344 7.16344 0 16 0ZM16 2.88722C8.75801 2.88722 2.88722 8.75801 2.88722 16C2.88722 23.242 8.75801 29.1128 16 29.1128C20.3652 29.1128 24.232 26.9798 26.6155 23.6992H21.6344C21.3488 24.4046 20.6574 24.9023 19.8496 24.9023C18.7866 24.9023 17.9248 24.0405 17.9248 22.9774C17.9248 21.9144 18.7866 21.0526 19.8496 21.0526C20.6574 21.0526 21.3488 21.5503 21.6344 22.2556H27.5273C28.1337 21.1405 28.583 19.9276 28.8455 18.6466H16.9624L16.9253 18.6457C16.5439 18.6264 16.2406 18.311 16.2406 17.9248V16.2207C15.5352 15.9352 15.0376 15.2438 15.0376 14.4361C15.0376 13.373 15.8994 12.5113 16.9624 12.5113C18.0254 12.5113 18.8872 13.373 18.8872 14.4361C18.8872 15.2438 18.3896 15.9352 17.6842 16.2207V17.203H20.9716C20.9722 17.2017 20.9728 17.2002 20.9734 17.1989L22.7939 13.5398C22.6055 13.2423 22.4962 12.8896 22.4962 12.5113C22.4962 11.4482 23.358 10.5865 24.4211 10.5865C25.2288 10.5865 25.9203 11.0841 26.2058 11.7895H28.4221C28.0433 10.6716 27.5179 9.62132 26.8687 8.66165H18.8675C18.5819 9.36703 17.8905 9.86466 17.0827 9.86466C16.0197 9.86466 15.1579 9.00289 15.1579 7.93985C15.1579 6.87681 16.0197 6.01504 17.0827 6.01504C17.8905 6.01504 18.5819 6.51267 18.8675 7.21805H25.7375C23.3377 4.55876 19.8641 2.88722 16 2.88722ZM13.2331 7.09774C13.6317 7.09774 13.9549 7.42091 13.9549 7.81955V24.6617C13.9549 25.0603 13.6317 25.3835 13.2331 25.3835C12.8344 25.3835 12.5113 25.0603 12.5113 24.6617V8.54135H11.7835L8.30075 11.0397V11.7895H10.2256C10.6242 11.7895 10.9474 12.1126 10.9474 12.5113V24.6617C10.9474 25.0603 10.6242 25.3835 10.2256 25.3835C9.82692 25.3835 9.50376 25.0603 9.50376 24.6617V21.5338H8.34774C8.09811 21.9652 7.632 22.2556 7.09774 22.2556C6.30046 22.2556 5.65414 21.6093 5.65414 20.812C5.65414 20.0147 6.30046 19.3684 7.09774 19.3684C7.632 19.3684 8.09811 19.6588 8.34774 20.0902H9.50376V17.3233H7.35362C7.06241 17.8267 6.51813 18.1654 5.89474 18.1654C4.96457 18.1654 4.21053 17.4114 4.21053 16.4812C4.21053 15.551 4.96457 14.797 5.89474 14.797C6.61297 14.797 7.22613 15.2466 7.46828 15.8797H9.50376V13.2331H7.57895C7.18031 13.2331 6.85714 12.9099 6.85714 12.5113C6.85714 12.5072 6.85731 12.5032 6.85738 12.4992C6.85731 12.4952 6.85714 12.4912 6.85714 12.4872V10.6827C6.85715 10.5104 6.91749 10.3522 7.01821 10.2281C7.06244 10.1673 7.11694 10.1124 7.18139 10.0661L11.0929 7.25999C11.2172 7.15858 11.3759 7.09774 11.5489 7.09774H13.2331ZM26.2058 13.2331C25.9203 13.9385 25.2288 14.4361 24.4211 14.4361C24.2711 14.4361 24.1252 14.4188 23.9851 14.3864L22.5838 17.203H29.0582C29.0942 16.8068 29.1128 16.4056 29.1128 16C29.1128 15.0507 29.0117 14.1251 28.8201 13.2331H26.2058Z" fill="white"/>
  </svg>
  