<svg width="117" height="32" viewBox="0 0 117 32" fill="none"
  xmlns="http://www.w3.org/2000/svg">
  <path d="M16 0C24.8366 0 32 7.16344 32 16C32 24.8366 24.8366 32 16 32C7.16344 32 0 24.8366 0 16C0 7.16344 7.16344 0 16 0ZM16 2.88722C8.75801 2.88722 2.88722 8.75801 2.88722 16C2.88722 23.242 8.75801 29.1128 16 29.1128C20.3652 29.1128 24.2321 26.9798 26.6155 23.6992H21.6344C21.3488 24.4046 20.6574 24.9023 19.8496 24.9023C18.7866 24.9023 17.9248 24.0405 17.9248 22.9774C17.9248 21.9144 18.7866 21.0526 19.8496 21.0526C20.6574 21.0526 21.3488 21.5503 21.6344 22.2556H27.5273C28.1337 21.1405 28.583 19.9276 28.8455 18.6466H16.9624L16.9253 18.6457C16.5439 18.6264 16.2406 18.311 16.2406 17.9248V16.2207C15.5352 15.9352 15.0376 15.2438 15.0376 14.4361C15.0376 13.373 15.8994 12.5113 16.9624 12.5113C18.0255 12.5113 18.8872 13.373 18.8872 14.4361C18.8872 15.2438 18.3896 15.9352 17.6842 16.2207V17.203H20.9716C20.9722 17.2017 20.9728 17.2002 20.9734 17.1989L22.7939 13.5398C22.6055 13.2423 22.4962 12.8896 22.4962 12.5113C22.4962 11.4482 23.358 10.5865 24.4211 10.5865C25.2288 10.5865 25.9203 11.0841 26.2058 11.7895H28.4221C28.0433 10.6716 27.5179 9.62132 26.8687 8.66165H18.8675C18.5819 9.36703 17.8905 9.86466 17.0827 9.86466C16.0197 9.86466 15.1579 9.00289 15.1579 7.93985C15.1579 6.87681 16.0197 6.01504 17.0827 6.01504C17.8905 6.01504 18.5819 6.51267 18.8675 7.21805H25.7375C23.3377 4.55876 19.8641 2.88722 16 2.88722ZM13.2331 7.09774C13.6317 7.09774 13.9549 7.42091 13.9549 7.81955V24.6617C13.9549 25.0603 13.6317 25.3835 13.2331 25.3835C12.8344 25.3835 12.5113 25.0603 12.5113 24.6617V8.54135H11.7835L8.30075 11.0397V11.7895H10.2256C10.6242 11.7895 10.9474 12.1126 10.9474 12.5113V24.6617C10.9474 25.0603 10.6242 25.3835 10.2256 25.3835C9.82692 25.3835 9.50376 25.0603 9.50376 24.6617V21.5338H8.34774C8.09811 21.9652 7.632 22.2556 7.09774 22.2556C6.30046 22.2556 5.65414 21.6093 5.65414 20.812C5.65414 20.0147 6.30046 19.3684 7.09774 19.3684C7.632 19.3684 8.09811 19.6588 8.34774 20.0902H9.50376V17.3233H7.35362C7.06241 17.8267 6.51813 18.1654 5.89474 18.1654C4.96457 18.1654 4.21053 17.4114 4.21053 16.4812C4.21053 15.551 4.96457 14.797 5.89474 14.797C6.61297 14.797 7.22613 15.2466 7.46828 15.8797H9.50376V13.2331H7.57895C7.18031 13.2331 6.85714 12.9099 6.85714 12.5113C6.85714 12.5072 6.85731 12.5032 6.85738 12.4992C6.85731 12.4952 6.85714 12.4912 6.85714 12.4872V10.6827C6.85715 10.5104 6.91749 10.3522 7.01821 10.2281C7.06244 10.1673 7.11694 10.1124 7.18139 10.0661L11.0929 7.25999C11.2172 7.15858 11.3759 7.09774 11.5489 7.09774H13.2331ZM26.2058 13.2331C25.9203 13.9385 25.2288 14.4361 24.4211 14.4361C24.2711 14.4361 24.1252 14.4188 23.9851 14.3864L22.5838 17.203H29.0582C29.0942 16.8068 29.1128 16.4056 29.1128 16C29.1128 15.0507 29.0117 14.1251 28.8201 13.2331H26.2058Z" fill="#2ADBDB"/>
  <path d="M109.381 15.9312V22.7653H106.102V10.9442H109.227V13.0298H109.366C109.627 12.3423 110.066 11.7984 110.682 11.3982C111.297 10.9929 112.044 10.7902 112.921 10.7902C113.742 10.7902 114.458 10.9698 115.068 11.329C115.679 11.6881 116.153 12.2012 116.492 12.8682C116.831 13.53 117 14.3202 117 15.2386V22.7653H113.721V15.8235C113.727 15.1 113.542 14.5357 113.167 14.1303C112.793 13.7199 112.277 13.5146 111.62 13.5146C111.179 13.5146 110.789 13.6096 110.451 13.7994C110.117 13.9892 109.855 14.2663 109.666 14.6306C109.481 14.9897 109.386 15.4233 109.381 15.9312Z" fill="white"/>
  <path d="M96.9018 22.9885C96.1475 22.9885 95.4754 22.8577 94.8854 22.596C94.2954 22.3292 93.8285 21.9367 93.4847 21.4185C93.1461 20.8952 92.9768 20.2436 92.9768 19.4637C92.9768 18.807 93.0973 18.2554 93.3385 17.809C93.5796 17.3627 93.908 17.0035 94.3236 16.7316C94.7392 16.4597 95.2112 16.2544 95.7397 16.1159C96.2732 15.9774 96.8325 15.8799 97.4174 15.8235C98.1049 15.7516 98.659 15.6849 99.0797 15.6234C99.5005 15.5567 99.8057 15.4592 99.9956 15.3309C100.185 15.2026 100.28 15.0128 100.28 14.7614V14.7152C100.28 14.2278 100.126 13.8507 99.8186 13.5839C99.5158 13.3171 99.0849 13.1837 98.5256 13.1837C97.9356 13.1837 97.4661 13.3145 97.1172 13.5762C96.7684 13.8328 96.5375 14.156 96.4246 14.5459L93.3924 14.2996C93.5463 13.5813 93.849 12.9605 94.3005 12.4372C94.752 11.9087 95.3343 11.5034 96.0475 11.2212C96.7658 10.9339 97.597 10.7902 98.541 10.7902C99.1977 10.7902 99.8263 10.8672 100.427 11.0211C101.032 11.175 101.568 11.4136 102.035 11.7369C102.507 12.0601 102.879 12.4757 103.151 12.9836C103.423 13.4864 103.559 14.0893 103.559 14.7922V22.7653H100.45V21.126H100.357C100.167 21.4955 99.9135 21.8213 99.5954 22.1034C99.2773 22.3805 98.895 22.5986 98.4487 22.7576C98.0023 22.9115 97.4867 22.9885 96.9018 22.9885ZM97.8407 20.7259C98.323 20.7259 98.7488 20.6309 99.1182 20.4411C99.4876 20.2461 99.7775 19.9845 99.9879 19.6561C100.198 19.3277 100.303 18.9558 100.303 18.5402V17.2857C100.201 17.3524 100.06 17.414 99.8801 17.4704C99.7057 17.5217 99.5081 17.5705 99.2875 17.6166C99.0669 17.6577 98.8463 17.6962 98.6257 17.7321C98.4051 17.7629 98.205 17.7911 98.0254 17.8167C97.6406 17.8732 97.3045 17.963 97.0172 18.0861C96.7299 18.2092 96.5067 18.376 96.3476 18.5863C96.1886 18.7916 96.1091 19.0481 96.1091 19.356C96.1091 19.8023 96.2707 20.1435 96.5939 20.3795C96.9223 20.6104 97.3379 20.7259 97.8407 20.7259Z" fill="white"/>
  <path d="M86.1523 22.9962C84.9414 22.9962 83.8999 22.7397 83.0277 22.2266C82.1606 21.7084 81.4936 20.9901 81.0267 20.0717C80.565 19.1533 80.3341 18.0964 80.3341 16.9009C80.3341 15.6901 80.5675 14.628 81.0344 13.7147C81.5064 12.7963 82.176 12.0806 83.0431 11.5675C83.9102 11.0493 84.9414 10.7902 86.1369 10.7902C87.1682 10.7902 88.0712 10.9775 88.8459 11.3521C89.6206 11.7266 90.2338 12.2525 90.6853 12.9297C91.1368 13.607 91.3856 14.4023 91.4318 15.3155H88.338C88.2507 14.7255 88.0199 14.2509 87.6453 13.8918C87.2759 13.5275 86.7911 13.3453 86.1908 13.3453C85.6828 13.3453 85.239 13.4839 84.8594 13.7609C84.4848 14.0328 84.1924 14.4305 83.982 14.9538C83.7716 15.4771 83.6665 16.1108 83.6665 16.8547C83.6665 17.6089 83.7691 18.2503 83.9743 18.7787C84.1847 19.3072 84.4797 19.71 84.8594 19.987C85.239 20.2641 85.6828 20.4026 86.1908 20.4026C86.5653 20.4026 86.9014 20.3257 87.199 20.1717C87.5017 20.0178 87.7505 19.7946 87.9455 19.5022C88.1456 19.2046 88.2764 18.848 88.338 18.4324H91.4318C91.3805 19.3354 91.1342 20.1307 90.693 20.8182C90.2569 21.5006 89.654 22.0342 88.8844 22.419C88.1148 22.8038 87.2041 22.9962 86.1523 22.9962Z" fill="white"/>
  <path d="M78.4774 14.315L75.4759 14.4997C75.4246 14.2432 75.3143 14.0123 75.145 13.8071C74.9757 13.5967 74.7525 13.43 74.4754 13.3069C74.2035 13.1786 73.8777 13.1145 73.4981 13.1145C72.9901 13.1145 72.5617 13.2222 72.2128 13.4377C71.8639 13.648 71.6895 13.9302 71.6895 14.2843C71.6895 14.5664 71.8024 14.805 72.0281 15C72.2539 15.195 72.6412 15.3514 73.1902 15.4694L75.3297 15.9004C76.479 16.1364 77.3358 16.5161 77.9002 17.0394C78.4646 17.5628 78.7468 18.2503 78.7468 19.102C78.7468 19.8767 78.5184 20.5565 78.0618 21.1414C77.6103 21.7263 76.9895 22.183 76.1994 22.5113C75.4144 22.8346 74.5088 22.9962 73.4827 22.9962C71.9178 22.9962 70.671 22.6704 69.7424 22.0188C68.8188 21.3621 68.2776 20.4693 68.1185 19.3406L71.3432 19.1712C71.4406 19.6484 71.6767 20.0127 72.0512 20.2641C72.4257 20.5104 72.9055 20.6335 73.4904 20.6335C74.065 20.6335 74.5268 20.5232 74.8756 20.3026C75.2297 20.0768 75.4092 19.7869 75.4144 19.4329C75.4092 19.1353 75.2835 18.8916 75.0373 18.7018C74.791 18.5068 74.4113 18.358 73.8982 18.2554L71.8511 17.8475C70.6967 17.6166 69.8373 17.2164 69.2729 16.6469C68.7137 16.0774 68.434 15.3514 68.434 14.469C68.434 13.7096 68.6393 13.0554 69.0497 12.5065C69.4653 11.9575 70.0477 11.5342 70.7967 11.2366C71.5509 10.939 72.4334 10.7902 73.4442 10.7902C74.9372 10.7902 76.1121 11.1058 76.969 11.7369C77.8309 12.3679 78.3337 13.2273 78.4774 14.315Z" fill="white"/>
  <path d="M48.8726 7.00378H52.9823L57.3229 17.5936H57.5076L61.8481 7.00378H65.9578V22.7653H62.7255V12.5065H62.5947L58.5158 22.6883H56.3147L52.2358 12.468H52.1049V22.7653H48.8726V7.00378Z" fill="white"/>
  <path d="M45.0342 7.00378V22.7653H41.7018V10.1669H41.6094L38 12.4295V9.47422L41.9019 7.00378H45.0342Z" fill="white"/>
</svg>
