<svg width="37" height="36" viewBox="0 0 37 36" fill="none" xmlns="http://www.w3.org/2000/svg">
<path fill-rule="evenodd" clip-rule="evenodd" d="M13.6933 4.37119C13.6933 4.39197 13.6925 4.4126 13.6911 4.43305H16.1404C19.1173 4.43305 21.4632 5.71936 21.5389 8.51552C21.577 9.92048 20.8773 10.5428 20.3334 11.0267C19.9491 11.3686 19.6424 11.6414 19.7283 12.0722C19.8108 12.4858 20.1097 12.8517 20.4416 13.2578C20.9449 13.8737 21.5239 14.5823 21.5389 15.6908C21.5639 17.5303 21.5389 17.299 21.5389 17.299C21.5389 19.5196 19.623 21.3197 17.2597 21.3197H13.6226C13.6258 21.3502 13.6275 21.3811 13.6275 21.4124C13.6275 21.9249 13.1853 22.3403 12.6399 22.3403C12.0946 22.3403 11.6524 21.9249 11.6524 21.4124C11.6524 21.3811 11.6541 21.3502 11.6573 21.3197H9.47988H9.31529C9.11779 21.3197 8.47423 21.2896 8.48831 21.2747C5.96976 21.0254 4.09425 19.7325 4.02674 17.2372C3.98868 15.8322 4.6883 15.2099 5.23227 14.726C5.61654 14.3841 5.92321 14.1113 5.83732 13.6805C5.75483 13.2669 5.45594 12.901 5.12407 12.4949C4.62079 11.879 4.04178 11.1704 4.02674 10.0619C4.00173 8.22244 4.02674 8.45367 4.02674 8.45367C4.02674 6.23315 5.94263 4.43305 8.30598 4.43305H8.5582H11.7204C11.719 4.4126 11.7183 4.39197 11.7183 4.37119C11.7183 3.85877 12.1604 3.44336 12.7058 3.44336C13.2512 3.44336 13.6933 3.85877 13.6933 4.37119Z" fill="white"/>
<path fill-rule="evenodd" clip-rule="evenodd" d="M0 8.27358C0 3.96633 3.71632 0.474609 8.30063 0.474609H27.8864C32.4707 0.474609 36.187 3.96633 36.187 8.27358V27.7272C36.187 32.0344 32.4707 35.5262 27.8864 35.5262H8.30063C3.71632 35.5262 0 32.0344 0 27.7272V8.27358ZM19.3992 5.99523C19.3992 6.02467 19.3981 6.05389 19.3961 6.08286H19.3962C19.3482 6.76794 18.7415 7.30966 18.0002 7.30966C17.2589 7.30966 16.6523 6.76794 16.6043 6.08286H16.6043C16.6028 6.06073 16.6018 6.03846 16.6014 6.01606C16.6013 6.00913 16.6013 6.00218 16.6013 5.99523C16.6013 5.26929 17.2276 4.6808 18.0002 4.6808C18.0485 4.6808 18.0962 4.68309 18.1433 4.68758C18.4482 4.71668 18.7242 4.83778 18.9393 5.02089C19.0891 5.14843 19.2093 5.30604 19.2893 5.48359C19.3601 5.64085 19.3992 5.81375 19.3992 5.99523ZM20.61 6.08286C20.5609 7.39736 19.4113 8.44884 18.0002 8.44884C17.758 8.44884 17.5234 8.41784 17.3008 8.35982C17.2561 8.3482 17.2138 8.3313 17.1729 8.31498C17.0874 8.28086 17.0082 8.24925 16.9277 8.27358C16.8086 8.30955 16.6577 8.44884 16.6577 8.44884L16.1862 8.88698C16.1862 8.88698 15.9484 9.10605 15.995 9.19368C16.0417 9.28131 16.3681 9.28131 16.3681 9.28131L23.1897 9.31836C23.1897 9.31836 23.3815 9.33004 23.5495 9.28131C23.6725 9.24566 23.7017 9.23209 23.7456 9.21175C23.7617 9.20429 23.7798 9.19591 23.8051 9.1852C24.1257 9.04989 24.4811 8.97461 24.8553 8.97461C26.2718 8.97461 27.4201 10.0535 27.4201 11.3844C27.4201 12.7153 26.2718 13.7942 24.8553 13.7942C24.0875 13.7942 23.5066 13.4202 23.0366 12.9179C22.969 12.8457 22.9174 12.773 22.87 12.7064C22.8034 12.6127 22.7453 12.531 22.6635 12.4798C22.5236 12.3921 21.8241 12.3921 21.8241 12.3921H14.8769H13.71H13.337C13.337 12.3921 13.1504 12.3921 13.0105 12.4798C12.8706 12.5674 12.5908 12.999 12.5908 13.4086C12.5908 14.0385 13.0624 14.5648 13.6918 14.6932C13.6918 14.6933 13.6918 14.6935 13.6918 14.6936C13.6917 14.6937 13.6917 14.6939 13.6917 14.694L13.6916 14.6944C13.6916 14.6946 13.6915 14.6947 13.6915 14.6949L16.4751 15.8704C16.4751 15.8704 16.746 16.0154 16.9743 16.0287C17.1605 16.0396 17.2727 16.0124 17.392 15.9835C17.419 15.977 17.4464 15.9703 17.4751 15.964C17.6737 15.9204 17.8807 15.8973 18.0935 15.8973C19.5873 15.8973 20.7982 17.035 20.7982 18.4385C20.7982 18.472 20.7982 18.5262 20.8448 18.57C20.8915 18.6138 21.1463 18.7272 21.1463 18.7272L23.2639 19.6215C23.2639 19.6215 23.3416 19.6358 23.4342 19.648C23.5042 19.6572 23.5827 19.6653 23.6428 19.6653C23.6951 19.6653 23.7945 19.6408 23.9189 19.6102L23.9193 19.6101L23.9195 19.61C24.1277 19.5587 24.4058 19.4901 24.6505 19.4901C26.1543 19.4901 27.3734 20.6355 27.3734 22.0484V24.5287C27.3734 25.8112 26.2669 26.8509 24.9019 26.8509H23.5962C23.4685 26.8509 23.2231 26.8509 23.0832 26.9385L20.4754 29.1698C20.4754 29.1698 20.4718 29.1731 20.4251 29.2169C20.4251 29.2169 20.3785 29.2607 20.3785 29.3045C20.3785 29.3628 20.3927 29.3985 20.4088 29.4389C20.4169 29.4593 20.4254 29.4809 20.4329 29.5072C20.4783 29.6669 20.5063 29.8338 20.5153 30.0055H24.4516C27.7997 30.0055 30.5138 27.4554 30.5138 24.3097C30.5138 24.3097 30.5493 24.6372 30.5138 22.0313C30.4925 20.461 29.6723 19.4572 28.9593 18.5846C28.4891 18.0092 28.0657 17.491 27.9489 16.905C27.8272 16.2946 28.2616 15.9082 28.806 15.4239L28.806 15.4239L28.8061 15.4238C29.5767 14.7383 30.5678 13.8567 30.5138 11.8664C30.4066 7.90514 27.0832 6.08286 22.8659 6.08286H20.61ZM16.5149 30.0055C16.5104 30.0488 16.508 30.0926 16.508 30.137C16.508 30.8629 17.1343 31.4514 17.907 31.4514C18.6796 31.4514 19.306 30.8629 19.306 30.137C19.306 30.0926 19.3036 30.0488 19.299 30.0055H19.2991C19.2289 29.3413 18.6324 28.8225 17.907 28.8225C17.1816 28.8225 16.5851 29.3413 16.5149 30.0055ZM15.2992 30.0055H13.4302H13.1971C12.9173 30.0055 12.0056 29.963 12.0255 29.9419C8.45755 29.5887 5.80058 27.7571 5.70494 24.222C5.65103 22.2317 6.64209 21.3501 7.4127 20.6646L7.41278 20.6645L7.41282 20.6645C7.95718 20.1802 8.39161 19.7938 8.26993 19.1834C8.15307 18.5974 7.72964 18.0792 7.25949 17.5037C6.54652 16.6312 5.72626 15.6274 5.70494 14.0571C5.66951 11.4512 5.70494 11.7787 5.70494 11.7787C5.70494 8.63299 8.41912 6.08286 11.7672 6.08286H12.1245H15.3901C15.3963 6.27009 15.4251 6.45175 15.4743 6.62498C15.4818 6.65127 15.4904 6.67287 15.4985 6.69328C15.5145 6.73372 15.5287 6.76946 15.5287 6.8277C15.5287 6.87152 15.4821 6.91533 15.4821 6.91533C15.4354 6.95915 15.4318 6.96245 15.4318 6.96245L13.0572 9.06224C12.9173 9.14987 12.6719 9.14987 12.5442 9.14987H11.2385C9.87348 9.14987 8.76696 10.1895 8.76696 11.472V13.9524C8.76696 15.3653 9.98606 16.5107 11.4899 16.5107C11.7345 16.5107 12.0127 16.4421 12.2209 16.3908L12.2211 16.3907L12.2215 16.3906C12.3459 16.3599 12.4453 16.3354 12.4976 16.3354C12.5577 16.3354 12.6362 16.3435 12.7062 16.3528C12.7988 16.365 12.8765 16.3792 12.8765 16.3792L14.994 17.2735C14.994 17.2735 15.4354 17.4308 15.4821 17.6499C15.5113 17.7871 15.4887 17.8465 15.4607 17.9205C15.4439 17.9646 15.4252 18.0139 15.4143 18.088C15.3975 18.2026 15.3888 18.3196 15.3888 18.4385C15.3888 19.842 16.5997 20.9798 18.0935 20.9798C18.7066 20.9798 19.272 20.7881 19.7257 20.4651C19.7293 20.4625 19.7329 20.4599 19.7365 20.4574C19.8198 20.398 19.889 20.3486 20.0055 20.3225C20.1269 20.2954 20.328 20.4102 20.328 20.4102L22.4488 21.3058L22.4488 21.3063L22.4487 21.3067C22.4487 21.3069 22.4486 21.3071 22.4486 21.3073C22.4486 21.3074 22.4486 21.3075 22.4486 21.3076C23.078 21.4359 23.5495 21.9623 23.5495 22.5921C23.5495 23.0017 23.2697 23.4334 23.1298 23.521C22.9899 23.6086 22.8034 23.6086 22.8034 23.6086H22.4304H21.2635H14.3163C14.3163 23.6086 13.6168 23.6086 13.4769 23.521C13.3951 23.4698 13.337 23.3881 13.2704 23.2943L13.2703 23.2943C13.223 23.2277 13.1714 23.155 13.1038 23.0829C12.6338 22.5806 12.0529 22.2066 11.2851 22.2066C9.86863 22.2066 8.72033 23.2855 8.72033 24.6164C8.72033 25.9473 9.86863 27.0262 11.2851 27.0262C11.6593 27.0262 12.0147 26.9509 12.3352 26.8156C12.3606 26.8049 12.3787 26.7965 12.3948 26.789C12.4386 26.7687 12.4679 26.7551 12.5908 26.7195C12.7589 26.6707 12.9507 26.6824 12.9507 26.6824L19.7723 26.7195C19.7723 26.7195 20.0987 26.7195 20.1453 26.8071C20.192 26.8947 19.9542 27.1138 19.9542 27.1138L19.2495 27.6834C19.2495 27.6834 19.0986 27.8227 18.9795 27.8586C18.899 27.883 18.8198 27.8514 18.7343 27.8172C18.6934 27.8009 18.6511 27.784 18.6065 27.7724C18.3838 27.7144 18.1493 27.6834 17.907 27.6834C16.5117 27.6834 15.3719 28.7116 15.2992 30.0055Z" fill="url(#paint0_linear_1569_12248)"/>
<defs>
<linearGradient id="paint0_linear_1569_12248" x1="18.0935" y1="0.474609" x2="18.0935" y2="35.5262" gradientUnits="userSpaceOnUse">
<stop stop-color="#FF4357"/>
<stop offset="1" stop-color="#B0002C"/>
</linearGradient>
</defs>
</svg>
