<svg width="177" height="36" viewBox="0 0 177 36" fill="none" xmlns="http://www.w3.org/2000/svg">
<path d="M52.8391 26.7146C51.1591 26.7146 49.7591 26.4826 48.6391 26.0186C47.5351 25.5386 46.7031 24.9226 46.1431 24.1706C45.5991 23.4026 45.3111 22.5946 45.2791 21.7466C45.2791 21.6026 45.3271 21.4826 45.4231 21.3866C45.5191 21.2906 45.6391 21.2426 45.7831 21.2426H49.5991C49.8231 21.2426 49.9991 21.2826 50.1271 21.3626C50.2551 21.4266 50.3911 21.5226 50.5351 21.6506C50.6791 21.8266 50.8471 21.9946 51.0391 22.1546C51.2311 22.2986 51.4791 22.4186 51.7831 22.5146C52.0871 22.5946 52.4391 22.6346 52.8391 22.6346C53.5751 22.6346 54.1431 22.5386 54.5431 22.3466C54.9431 22.1386 55.1431 21.8586 55.1431 21.5066C55.1431 21.2346 55.0311 21.0106 54.8071 20.8346C54.5991 20.6586 54.2391 20.4986 53.7271 20.3546C53.2151 20.2106 52.5191 20.0586 51.6391 19.8986C50.4071 19.6906 49.3431 19.3866 48.4471 18.9866C47.5511 18.5706 46.8631 18.0186 46.3831 17.3306C45.9191 16.6266 45.6871 15.7626 45.6871 14.7386C45.6871 13.6986 45.9751 12.7786 46.5511 11.9786C47.1431 11.1786 47.9591 10.5546 48.9991 10.1066C50.0551 9.65861 51.2791 9.43461 52.6711 9.43461C53.8231 9.43461 54.8391 9.58661 55.7191 9.89061C56.6151 10.1946 57.3671 10.5946 57.9751 11.0906C58.5831 11.5706 59.0471 12.0906 59.3671 12.6506C59.6871 13.2106 59.8551 13.7466 59.8711 14.2586C59.8711 14.4026 59.8151 14.5306 59.7031 14.6426C59.6071 14.7386 59.4951 14.7866 59.3671 14.7866H55.3591C55.1671 14.7866 54.9991 14.7546 54.8551 14.6906C54.7271 14.6266 54.6071 14.5226 54.4951 14.3786C54.4151 14.1546 54.2151 13.9546 53.8951 13.7786C53.5751 13.6026 53.1671 13.5146 52.6711 13.5146C52.1271 13.5146 51.7111 13.6106 51.4231 13.8026C51.1351 13.9786 50.9911 14.2426 50.9911 14.5946C50.9911 14.8346 51.0791 15.0426 51.2551 15.2186C51.4311 15.3946 51.7431 15.5546 52.1911 15.6986C52.6391 15.8266 53.2631 15.9706 54.0631 16.1306C55.5831 16.3546 56.8071 16.6746 57.7351 17.0906C58.6791 17.5066 59.3671 18.0506 59.7991 18.7226C60.2311 19.3946 60.4471 20.2346 60.4471 21.2426C60.4471 22.3786 60.1191 23.3546 59.4631 24.1706C58.8071 24.9866 57.9031 25.6186 56.7511 26.0666C55.6151 26.4986 54.3111 26.7146 52.8391 26.7146ZM63.1276 26.4746C62.9676 26.4746 62.8236 26.4186 62.6956 26.3066C62.5676 26.1786 62.5036 26.0266 62.5036 25.8506V10.2986C62.5036 10.1226 62.5676 9.97861 62.6956 9.86661C62.8236 9.73861 62.9676 9.67461 63.1276 9.67461H74.8876C75.0636 9.67461 75.2156 9.73861 75.3436 9.86661C75.4716 9.97861 75.5356 10.1226 75.5356 10.2986V13.1306C75.5356 13.2906 75.4716 13.4346 75.3436 13.5626C75.2156 13.6906 75.0636 13.7546 74.8876 13.7546H67.4716V16.1306H74.3596C74.5356 16.1306 74.6876 16.1946 74.8156 16.3226C74.9436 16.4346 75.0076 16.5786 75.0076 16.7546V19.3466C75.0076 19.5226 74.9436 19.6746 74.8156 19.8026C74.6876 19.9146 74.5356 19.9706 74.3596 19.9706H67.4716V22.3946H75.0796C75.2556 22.3946 75.4076 22.4586 75.5356 22.5866C75.6636 22.7146 75.7276 22.8666 75.7276 23.0426V25.8506C75.7276 26.0266 75.6636 26.1786 75.5356 26.3066C75.4076 26.4186 75.2556 26.4746 75.0796 26.4746H63.1276ZM78.8073 26.4746C78.6473 26.4746 78.5033 26.4186 78.3753 26.3066C78.2473 26.1786 78.1833 26.0266 78.1833 25.8506V10.2986C78.1833 10.1226 78.2473 9.97861 78.3753 9.86661C78.5033 9.73861 78.6473 9.67461 78.8073 9.67461H82.8873C83.0633 9.67461 83.2073 9.73861 83.3193 9.86661C83.4473 9.97861 83.5113 10.1226 83.5113 10.2986V25.8506C83.5113 26.0266 83.4473 26.1786 83.3193 26.3066C83.2073 26.4186 83.0633 26.4746 82.8873 26.4746H78.8073ZM90.8242 26.4746C90.6482 26.4746 90.4962 26.4186 90.3682 26.3066C90.2562 26.1786 90.2002 26.0266 90.2002 25.8506V14.1386H86.0722C85.8962 14.1386 85.7442 14.0826 85.6162 13.9706C85.5042 13.8426 85.4482 13.6906 85.4482 13.5146V10.2986C85.4482 10.1226 85.5042 9.97861 85.6162 9.86661C85.7442 9.73861 85.8962 9.67461 86.0722 9.67461H99.5602C99.7362 9.67461 99.8802 9.73861 99.9922 9.86661C100.12 9.97861 100.184 10.1226 100.184 10.2986V13.5146C100.184 13.6906 100.12 13.8426 99.9922 13.9706C99.8802 14.0826 99.7362 14.1386 99.5602 14.1386H95.4322V25.8506C95.4322 26.0266 95.3682 26.1786 95.2402 26.3066C95.1282 26.4186 94.9842 26.4746 94.8082 26.4746H90.8242ZM102.76 26.4746C102.6 26.4746 102.456 26.4186 102.328 26.3066C102.2 26.1786 102.136 26.0266 102.136 25.8506V10.2986C102.136 10.1226 102.2 9.97861 102.328 9.86661C102.456 9.73861 102.6 9.67461 102.76 9.67461H109.6C111.776 9.67461 113.48 10.1706 114.712 11.1626C115.96 12.1546 116.584 13.5386 116.584 15.3146C116.584 16.4346 116.328 17.3866 115.816 18.1706C115.304 18.9546 114.632 19.5706 113.8 20.0186L116.92 25.6826C116.968 25.7786 116.992 25.8666 116.992 25.9466C116.992 26.0906 116.944 26.2186 116.848 26.3306C116.752 26.4266 116.632 26.4746 116.488 26.4746H112.432C112.128 26.4746 111.896 26.4026 111.736 26.2586C111.576 26.0986 111.472 25.9546 111.424 25.8266L109.024 20.8826H107.296V25.8506C107.296 26.0266 107.232 26.1786 107.104 26.3066C106.992 26.4186 106.848 26.4746 106.672 26.4746H102.76ZM107.296 16.9226H109.576C110.136 16.9226 110.552 16.7706 110.824 16.4666C111.096 16.1466 111.232 15.7546 111.232 15.2906C111.232 14.8106 111.096 14.4026 110.824 14.0666C110.568 13.7306 110.152 13.5626 109.576 13.5626H107.296V16.9226ZM118.241 26.4746C118.097 26.4746 117.969 26.4266 117.857 26.3306C117.761 26.2186 117.713 26.0906 117.713 25.9466C117.713 25.8826 117.729 25.8266 117.761 25.7786L123.233 10.4186C123.281 10.2426 123.385 10.0746 123.545 9.91461C123.721 9.75461 123.953 9.67461 124.241 9.67461H128.633C128.937 9.67461 129.169 9.75461 129.329 9.91461C129.489 10.0746 129.593 10.2426 129.641 10.4186L135.137 25.7786C135.153 25.8266 135.161 25.8826 135.161 25.9466C135.161 26.0906 135.105 26.2186 134.993 26.3306C134.897 26.4266 134.777 26.4746 134.633 26.4746H130.937C130.665 26.4746 130.465 26.4106 130.337 26.2826C130.209 26.1546 130.121 26.0346 130.073 25.9226L129.329 23.9066H123.545L122.801 25.9226C122.753 26.0346 122.665 26.1546 122.537 26.2826C122.425 26.4106 122.225 26.4746 121.937 26.4746H118.241ZM124.649 19.8506H128.225L126.425 14.4506L124.649 19.8506ZM143.627 26.7146C142.107 26.7146 140.779 26.4826 139.643 26.0186C138.507 25.5386 137.611 24.8186 136.955 23.8586C136.315 22.8986 135.963 21.6826 135.899 20.2106C135.883 19.5546 135.875 18.8506 135.875 18.0986C135.875 17.3466 135.883 16.6266 135.899 15.9386C135.963 14.4986 136.323 13.2986 136.979 12.3386C137.651 11.3626 138.555 10.6346 139.691 10.1546C140.843 9.67461 142.155 9.43461 143.627 9.43461C144.683 9.43461 145.667 9.56261 146.579 9.81861C147.507 10.0586 148.331 10.4346 149.051 10.9466C149.771 11.4426 150.339 12.0666 150.755 12.8186C151.171 13.5546 151.387 14.4186 151.403 15.4106C151.403 15.5546 151.347 15.6746 151.235 15.7706C151.139 15.8666 151.019 15.9146 150.875 15.9146H146.819C146.579 15.9146 146.403 15.8666 146.291 15.7706C146.179 15.6746 146.083 15.5066 146.003 15.2666C145.795 14.5786 145.491 14.1146 145.091 13.8746C144.691 13.6346 144.203 13.5146 143.627 13.5146C142.923 13.5146 142.363 13.7066 141.947 14.0906C141.531 14.4586 141.307 15.1146 141.275 16.0586C141.227 17.3706 141.227 18.7146 141.275 20.0906C141.307 21.0346 141.531 21.6986 141.947 22.0826C142.363 22.4506 142.923 22.6346 143.627 22.6346C144.203 22.6346 144.691 22.5066 145.091 22.2506C145.507 21.9946 145.811 21.5386 146.003 20.8826C146.067 20.6266 146.155 20.4586 146.267 20.3786C146.395 20.2826 146.579 20.2346 146.819 20.2346H150.875C151.019 20.2346 151.139 20.2826 151.235 20.3786C151.347 20.4746 151.403 20.5946 151.403 20.7386C151.387 21.7306 151.171 22.6026 150.755 23.3546C150.339 24.0906 149.771 24.7146 149.051 25.2266C148.331 25.7226 147.507 26.0986 146.579 26.3546C145.667 26.5946 144.683 26.7146 143.627 26.7146ZM154.229 26.4746C154.069 26.4746 153.925 26.4186 153.797 26.3066C153.669 26.1786 153.605 26.0266 153.605 25.8506V10.2986C153.605 10.1226 153.669 9.97861 153.797 9.86661C153.925 9.73861 154.069 9.67461 154.229 9.67461H165.989C166.165 9.67461 166.317 9.73861 166.445 9.86661C166.573 9.97861 166.637 10.1226 166.637 10.2986V13.1306C166.637 13.2906 166.573 13.4346 166.445 13.5626C166.317 13.6906 166.165 13.7546 165.989 13.7546H158.573V16.1306H165.461C165.637 16.1306 165.789 16.1946 165.917 16.3226C166.045 16.4346 166.109 16.5786 166.109 16.7546V19.3466C166.109 19.5226 166.045 19.6746 165.917 19.8026C165.789 19.9146 165.637 19.9706 165.461 19.9706H158.573V22.3946H166.181C166.357 22.3946 166.509 22.4586 166.637 22.5866C166.765 22.7146 166.829 22.8666 166.829 23.0426V25.8506C166.829 26.0266 166.765 26.1786 166.637 26.3066C166.509 26.4186 166.357 26.4746 166.181 26.4746H154.229Z" fill="#0A0A0A"/>
<path fill-rule="evenodd" clip-rule="evenodd" d="M13.6933 4.37119C13.6933 4.39197 13.6925 4.4126 13.6911 4.43305H16.1404C19.1173 4.43305 21.4632 5.71936 21.5389 8.51552C21.577 9.92048 20.8773 10.5428 20.3334 11.0267C19.9491 11.3686 19.6424 11.6414 19.7283 12.0722C19.8108 12.4858 20.1097 12.8517 20.4416 13.2578C20.9449 13.8737 21.5239 14.5823 21.5389 15.6908C21.5639 17.5303 21.5389 17.299 21.5389 17.299C21.5389 19.5196 19.623 21.3197 17.2597 21.3197H13.6226C13.6258 21.3502 13.6275 21.3811 13.6275 21.4124C13.6275 21.9249 13.1853 22.3403 12.6399 22.3403C12.0946 22.3403 11.6524 21.9249 11.6524 21.4124C11.6524 21.3811 11.6541 21.3502 11.6573 21.3197H9.47988H9.31529C9.11779 21.3197 8.47423 21.2896 8.48831 21.2747C5.96976 21.0254 4.09425 19.7325 4.02674 17.2372C3.98868 15.8322 4.6883 15.2099 5.23227 14.726C5.61654 14.3841 5.92321 14.1113 5.83732 13.6805C5.75483 13.2669 5.45594 12.901 5.12407 12.4949C4.62079 11.879 4.04178 11.1704 4.02674 10.0619C4.00173 8.22244 4.02674 8.45367 4.02674 8.45367C4.02674 6.23315 5.94263 4.43305 8.30598 4.43305H8.5582H11.7204C11.719 4.4126 11.7183 4.39197 11.7183 4.37119C11.7183 3.85877 12.1604 3.44336 12.7058 3.44336C13.2512 3.44336 13.6933 3.85877 13.6933 4.37119Z" fill="white"/>
<path fill-rule="evenodd" clip-rule="evenodd" d="M0 8.27358C0 3.96633 3.71632 0.474609 8.30063 0.474609H27.8864C32.4707 0.474609 36.187 3.96633 36.187 8.27358V27.7272C36.187 32.0344 32.4707 35.5262 27.8864 35.5262H8.30063C3.71632 35.5262 0 32.0344 0 27.7272V8.27358ZM19.3992 5.99523C19.3992 6.02467 19.3981 6.05389 19.3961 6.08286H19.3962C19.3482 6.76794 18.7415 7.30966 18.0002 7.30966C17.2589 7.30966 16.6523 6.76794 16.6043 6.08286H16.6043C16.6028 6.06073 16.6018 6.03846 16.6014 6.01606C16.6013 6.00913 16.6013 6.00218 16.6013 5.99523C16.6013 5.26929 17.2276 4.6808 18.0002 4.6808C18.0485 4.6808 18.0962 4.68309 18.1433 4.68758C18.4482 4.71668 18.7242 4.83778 18.9393 5.02089C19.0891 5.14843 19.2093 5.30604 19.2893 5.48359C19.3601 5.64085 19.3992 5.81375 19.3992 5.99523ZM20.61 6.08286C20.5609 7.39736 19.4113 8.44884 18.0002 8.44884C17.758 8.44884 17.5234 8.41784 17.3008 8.35982C17.2561 8.3482 17.2138 8.3313 17.1729 8.31498C17.0874 8.28086 17.0082 8.24925 16.9277 8.27358C16.8086 8.30955 16.6577 8.44884 16.6577 8.44884L16.1862 8.88698C16.1862 8.88698 15.9484 9.10605 15.995 9.19368C16.0417 9.28131 16.3681 9.28131 16.3681 9.28131L23.1897 9.31836C23.1897 9.31836 23.3815 9.33004 23.5495 9.28131C23.6725 9.24566 23.7017 9.23209 23.7456 9.21175C23.7617 9.20429 23.7798 9.19591 23.8051 9.1852C24.1257 9.04989 24.4811 8.97461 24.8553 8.97461C26.2718 8.97461 27.4201 10.0535 27.4201 11.3844C27.4201 12.7153 26.2718 13.7942 24.8553 13.7942C24.0875 13.7942 23.5066 13.4202 23.0366 12.9179C22.969 12.8457 22.9174 12.773 22.87 12.7064C22.8034 12.6127 22.7453 12.531 22.6635 12.4798C22.5236 12.3921 21.8241 12.3921 21.8241 12.3921H14.8769H13.71H13.337C13.337 12.3921 13.1504 12.3921 13.0105 12.4798C12.8706 12.5674 12.5908 12.999 12.5908 13.4086C12.5908 14.0385 13.0624 14.5648 13.6918 14.6932C13.6918 14.6933 13.6918 14.6935 13.6918 14.6936C13.6917 14.6937 13.6917 14.6939 13.6917 14.694L13.6916 14.6944C13.6916 14.6946 13.6915 14.6947 13.6915 14.6949L16.4751 15.8704C16.4751 15.8704 16.746 16.0154 16.9743 16.0287C17.1605 16.0396 17.2727 16.0124 17.392 15.9835C17.419 15.977 17.4464 15.9703 17.4751 15.964C17.6737 15.9204 17.8807 15.8973 18.0935 15.8973C19.5873 15.8973 20.7982 17.035 20.7982 18.4385C20.7982 18.472 20.7982 18.5262 20.8448 18.57C20.8915 18.6138 21.1463 18.7272 21.1463 18.7272L23.2639 19.6215C23.2639 19.6215 23.3416 19.6358 23.4342 19.648C23.5042 19.6572 23.5827 19.6653 23.6428 19.6653C23.6951 19.6653 23.7945 19.6408 23.9189 19.6102L23.9193 19.6101L23.9195 19.61C24.1277 19.5587 24.4058 19.4901 24.6505 19.4901C26.1543 19.4901 27.3734 20.6355 27.3734 22.0484V24.5287C27.3734 25.8112 26.2669 26.8509 24.9019 26.8509H23.5962C23.4685 26.8509 23.2231 26.8509 23.0832 26.9385L20.4754 29.1698C20.4754 29.1698 20.4718 29.1731 20.4251 29.2169C20.4251 29.2169 20.3785 29.2607 20.3785 29.3045C20.3785 29.3628 20.3927 29.3985 20.4088 29.4389C20.4169 29.4593 20.4254 29.4809 20.4329 29.5072C20.4783 29.6669 20.5063 29.8338 20.5153 30.0055H24.4516C27.7997 30.0055 30.5138 27.4554 30.5138 24.3097C30.5138 24.3097 30.5493 24.6372 30.5138 22.0313C30.4925 20.461 29.6723 19.4572 28.9593 18.5846C28.4891 18.0092 28.0657 17.491 27.9489 16.905C27.8272 16.2946 28.2616 15.9082 28.806 15.4239L28.806 15.4239L28.8061 15.4238C29.5767 14.7383 30.5678 13.8567 30.5138 11.8664C30.4066 7.90514 27.0832 6.08286 22.8659 6.08286H20.61ZM16.5149 30.0055C16.5104 30.0488 16.508 30.0926 16.508 30.137C16.508 30.8629 17.1343 31.4514 17.907 31.4514C18.6796 31.4514 19.306 30.8629 19.306 30.137C19.306 30.0926 19.3036 30.0488 19.299 30.0055H19.2991C19.2289 29.3413 18.6324 28.8225 17.907 28.8225C17.1816 28.8225 16.5851 29.3413 16.5149 30.0055ZM15.2992 30.0055H13.4302H13.1971C12.9173 30.0055 12.0056 29.963 12.0255 29.9419C8.45755 29.5887 5.80058 27.7571 5.70494 24.222C5.65103 22.2317 6.64209 21.3501 7.4127 20.6646L7.41278 20.6645L7.41282 20.6645C7.95718 20.1802 8.39161 19.7938 8.26993 19.1834C8.15307 18.5974 7.72964 18.0792 7.25949 17.5037C6.54652 16.6312 5.72626 15.6274 5.70494 14.0571C5.66951 11.4512 5.70494 11.7787 5.70494 11.7787C5.70494 8.63299 8.41912 6.08286 11.7672 6.08286H12.1245H15.3901C15.3963 6.27009 15.4251 6.45175 15.4743 6.62498C15.4818 6.65127 15.4904 6.67287 15.4985 6.69328C15.5145 6.73372 15.5287 6.76946 15.5287 6.8277C15.5287 6.87152 15.4821 6.91533 15.4821 6.91533C15.4354 6.95915 15.4318 6.96245 15.4318 6.96245L13.0572 9.06224C12.9173 9.14987 12.6719 9.14987 12.5442 9.14987H11.2385C9.87348 9.14987 8.76696 10.1895 8.76696 11.472V13.9524C8.76696 15.3653 9.98606 16.5107 11.4899 16.5107C11.7345 16.5107 12.0127 16.4421 12.2209 16.3908L12.2211 16.3907L12.2215 16.3906C12.3459 16.3599 12.4453 16.3354 12.4976 16.3354C12.5577 16.3354 12.6362 16.3435 12.7062 16.3528C12.7988 16.365 12.8765 16.3792 12.8765 16.3792L14.994 17.2735C14.994 17.2735 15.4354 17.4308 15.4821 17.6499C15.5113 17.7871 15.4887 17.8465 15.4607 17.9205C15.4439 17.9646 15.4252 18.0139 15.4143 18.088C15.3975 18.2026 15.3888 18.3196 15.3888 18.4385C15.3888 19.842 16.5997 20.9798 18.0935 20.9798C18.7066 20.9798 19.272 20.7881 19.7257 20.4651C19.7293 20.4625 19.7329 20.4599 19.7365 20.4574C19.8198 20.398 19.889 20.3486 20.0055 20.3225C20.1269 20.2954 20.328 20.4102 20.328 20.4102L22.4488 21.3058L22.4488 21.3063L22.4487 21.3067C22.4487 21.3069 22.4486 21.3071 22.4486 21.3073C22.4486 21.3074 22.4486 21.3075 22.4486 21.3076C23.078 21.4359 23.5495 21.9623 23.5495 22.5921C23.5495 23.0017 23.2697 23.4334 23.1298 23.521C22.9899 23.6086 22.8034 23.6086 22.8034 23.6086H22.4304H21.2635H14.3163C14.3163 23.6086 13.6168 23.6086 13.4769 23.521C13.3951 23.4698 13.337 23.3881 13.2704 23.2943L13.2703 23.2943C13.223 23.2277 13.1714 23.155 13.1038 23.0829C12.6338 22.5806 12.0529 22.2066 11.2851 22.2066C9.86863 22.2066 8.72033 23.2855 8.72033 24.6164C8.72033 25.9473 9.86863 27.0262 11.2851 27.0262C11.6593 27.0262 12.0147 26.9509 12.3352 26.8156C12.3606 26.8049 12.3787 26.7965 12.3948 26.789C12.4386 26.7687 12.4679 26.7551 12.5908 26.7195C12.7589 26.6707 12.9507 26.6824 12.9507 26.6824L19.7723 26.7195C19.7723 26.7195 20.0987 26.7195 20.1453 26.8071C20.192 26.8947 19.9542 27.1138 19.9542 27.1138L19.2495 27.6834C19.2495 27.6834 19.0986 27.8227 18.9795 27.8586C18.899 27.883 18.8198 27.8514 18.7343 27.8172C18.6934 27.8009 18.6511 27.784 18.6065 27.7724C18.3838 27.7144 18.1493 27.6834 17.907 27.6834C16.5117 27.6834 15.3719 28.7116 15.2992 30.0055Z" fill="url(#paint0_linear_1569_12245)"/>
<defs>
<linearGradient id="paint0_linear_1569_12245" x1="18.0935" y1="0.474609" x2="18.0935" y2="35.5262" gradientUnits="userSpaceOnUse">
<stop stop-color="#FF4357"/>
<stop offset="1" stop-color="#B0002C"/>
</linearGradient>
</defs>
</svg>
