<svg width="93" height="20" viewBox="0 0 93 20" fill="none" xmlns="http://www.w3.org/2000/svg">
    <path d="M83.2365 11.2417V19.1252H79.4545V5.48881H83.059V7.89471H83.2188C83.5206 7.10162 84.0266 6.47425 84.7369 6.01261C85.4471 5.54504 86.3082 5.31126 87.3203 5.31126C88.2673 5.31126 89.0929 5.51841 89.7972 5.93271C90.5015 6.34701 91.049 6.93886 91.4396 7.70827C91.8303 8.47177 92.0256 9.38323 92.0256 10.4426V19.1252H88.2436V11.1174C88.2495 10.2828 88.0365 9.63181 87.6044 9.16424C87.1723 8.69076 86.5775 8.45401 85.82 8.45401C85.311 8.45401 84.8612 8.56351 84.4705 8.78249C84.0858 9.00148 83.784 9.32108 83.565 9.7413C83.3519 10.1556 83.2424 10.6557 83.2365 11.2417Z" fill="#008383"/>
    <path d="M68.8411 19.3826C67.9711 19.3826 67.1957 19.2317 66.5151 18.9299C65.8345 18.6221 65.2959 18.1693 64.8993 17.5716C64.5087 16.9679 64.3134 16.2162 64.3134 15.3166C64.3134 14.559 64.4525 13.9228 64.7306 13.4078C65.0088 12.8929 65.3876 12.4786 65.867 12.165C66.3464 11.8513 66.8909 11.6145 67.5005 11.4547C68.1161 11.2949 68.7612 11.1825 69.4359 11.1174C70.229 11.0345 70.8682 10.9576 71.3535 10.8865C71.8388 10.8096 72.191 10.6971 72.41 10.5492C72.629 10.4012 72.7385 10.1822 72.7385 9.89222V9.83896C72.7385 9.27669 72.5609 8.84168 72.2058 8.53391C71.8566 8.22615 71.3594 8.07227 70.7143 8.07227C70.0337 8.07227 69.4921 8.22319 69.0897 8.52504C68.6872 8.82096 68.4209 9.19383 68.2907 9.64364L64.7928 9.35955C64.9704 8.53095 65.3195 7.81481 65.8404 7.21112C66.3612 6.6015 67.033 6.13394 67.8556 5.80842C68.6842 5.47698 69.6431 5.31126 70.7321 5.31126C71.4896 5.31126 72.2147 5.40004 72.9071 5.57759C73.6055 5.75515 74.224 6.03036 74.7626 6.40323C75.3071 6.7761 75.7362 7.2555 76.0499 7.84144C76.3636 8.42146 76.5204 9.11689 76.5204 9.92773V19.1252H72.9338V17.2342H72.8272C72.6083 17.6603 72.3153 18.0362 71.9483 18.3617C71.5814 18.6813 71.1404 18.9328 70.6255 19.1163C70.1106 19.2939 69.5158 19.3826 68.8411 19.3826ZM69.9242 16.7725C70.4805 16.7725 70.9718 16.6631 71.3979 16.4441C71.824 16.2192 72.1584 15.9173 72.4011 15.5385C72.6438 15.1597 72.7651 14.7306 72.7651 14.2512V12.8042C72.6467 12.8811 72.484 12.9521 72.2768 13.0172C72.0756 13.0764 71.8477 13.1326 71.5932 13.1859C71.3387 13.2333 71.0842 13.2776 70.8297 13.3191C70.5752 13.3546 70.3444 13.3871 70.1373 13.4167C69.6934 13.4818 69.3057 13.5854 68.9743 13.7275C68.6428 13.8695 68.3854 14.0618 68.2019 14.3045C68.0184 14.5413 67.9267 14.8372 67.9267 15.1923C67.9267 15.7072 68.1131 16.1008 68.486 16.373C68.8648 16.6394 69.3442 16.7725 69.9242 16.7725Z" fill="#008383"/>
    <path d="M56.441 19.3915C55.0442 19.3915 53.8427 19.0956 52.8366 18.5037C51.8363 17.906 51.0669 17.0774 50.5283 16.0179C49.9957 14.9585 49.7293 13.7393 49.7293 12.3603C49.7293 10.9635 49.9986 9.73834 50.5372 8.68484C51.0817 7.62541 51.8541 6.79978 52.8543 6.20792C53.8546 5.61015 55.0442 5.31126 56.4232 5.31126C57.6128 5.31126 58.6545 5.52729 59.5482 5.95934C60.4419 6.39139 61.1492 6.99805 61.67 7.7793C62.1908 8.56055 62.4779 9.47792 62.5312 10.5314H58.9623C58.8617 9.85079 58.5953 9.30333 58.1633 8.88903C57.7371 8.46881 57.1778 8.2587 56.4854 8.2587C55.8994 8.2587 55.3875 8.4185 54.9495 8.7381C54.5174 9.05179 54.1801 9.51048 53.9374 10.1142C53.6948 10.7179 53.5734 11.4488 53.5734 12.307C53.5734 13.177 53.6918 13.9168 53.9285 14.5265C54.1712 15.1361 54.5115 15.6007 54.9495 15.9203C55.3875 16.2399 55.8994 16.3997 56.4854 16.3997C56.9174 16.3997 57.3051 16.3109 57.6483 16.1333C57.9975 15.9558 58.2846 15.6983 58.5095 15.361C58.7403 15.0177 58.8912 14.6064 58.9623 14.127H62.5312C62.472 15.1686 62.1879 16.086 61.6789 16.8791C61.1758 17.6663 60.4804 18.2818 59.5926 18.7257C58.7048 19.1696 57.6543 19.3915 56.441 19.3915Z" fill="#008383"/>
    <path d="M47.5875 9.37731L44.1252 9.59038C44.066 9.29445 43.9387 9.02811 43.7434 8.79137C43.5481 8.54871 43.2907 8.35636 42.9711 8.21431C42.6574 8.06635 42.2815 7.99237 41.8436 7.99237C41.2576 7.99237 40.7634 8.11666 40.361 8.36523C39.9585 8.6079 39.7573 8.93342 39.7573 9.3418C39.7573 9.66732 39.8875 9.94253 40.1479 10.1674C40.4083 10.3923 40.8552 10.5729 41.4885 10.709L43.9565 11.2061C45.2823 11.4784 46.2707 11.9164 46.9217 12.5201C47.5727 13.1238 47.8983 13.9168 47.8983 14.8993C47.8983 15.793 47.6349 16.5772 47.1081 17.252C46.5873 17.9267 45.8712 18.4534 44.9597 18.8322C44.0542 19.2051 43.0095 19.3915 41.8258 19.3915C40.0207 19.3915 38.5824 19.0157 37.5112 18.264C36.4458 17.5065 35.8214 16.4766 35.638 15.1745L39.3578 14.9792C39.4702 15.5297 39.7425 15.9499 40.1745 16.2399C40.6066 16.524 41.16 16.666 41.8347 16.666C42.4976 16.666 43.0302 16.5388 43.4327 16.2843C43.8411 16.0239 44.0482 15.6895 44.0542 15.2811C44.0482 14.9378 43.9032 14.6567 43.6191 14.4377C43.335 14.2128 42.8971 14.0411 42.3052 13.9228L39.9437 13.4522C38.612 13.1859 37.6207 12.7243 36.9696 12.0673C36.3245 11.4103 36.002 10.5729 36.002 9.55487C36.002 8.67892 36.2387 7.9243 36.7122 7.29102C37.1916 6.65773 37.8633 6.16945 38.7275 5.82617C39.5975 5.4829 40.6155 5.31126 41.7814 5.31126C43.5037 5.31126 44.8591 5.67525 45.8475 6.40323C46.8418 7.13122 47.4218 8.12257 47.5875 9.37731Z" fill="#008383"/>
    <path d="M13.4367 0.943359H18.1775L23.1846 13.1593H23.3976L28.4047 0.943359H33.1455V19.1252H29.4168V7.29102H29.2659L24.5606 19.0364H22.0216L17.3163 7.24663H17.1654V19.1252H13.4367V0.943359Z" fill="#008383"/>
    <path d="M9.00888 0.943359V19.1252H5.16477V4.59215H5.05824L0.894531 7.20224V3.79315L5.3956 0.943359H9.00888Z" fill="#008383"/>
    </svg>
    