<svg width="28" height="28" viewBox="0 0 28 28" fill="none" xmlns="http://www.w3.org/2000/svg">
<path fill-rule="evenodd" clip-rule="evenodd" d="M16.2234 1.96265C14.9787 0.898707 13.0213 0.90581 11.7734 1.95729L11.7658 1.96373L9.94057 3.55588C9.89484 3.59166 9.77475 3.66426 9.59667 3.72943C9.40929 3.79802 9.27006 3.81727 9.22325 3.81727H7.20479C5.32406 3.81727 3.78632 5.35401 3.78632 7.23504V9.22954C3.78632 9.27486 3.76769 9.40983 3.69995 9.59278C3.63402 9.77082 3.55932 9.89234 3.52217 9.93803L1.95195 11.7868L1.94824 11.7912C0.906583 13.0301 0.906572 14.97 1.94823 16.2088L3.52218 18.062C3.55932 18.1077 3.63403 18.2292 3.69995 18.4073C3.76769 18.5902 3.78632 18.7252 3.78632 18.7705V20.765C3.78632 22.646 5.32406 24.1828 7.20479 24.1828H9.22325C9.26952 24.1828 9.40755 24.2018 9.59141 24.2701C9.77513 24.3384 9.89262 24.4142 9.92938 24.4461L9.93238 24.4486L11.7759 26.0349L11.7788 26.0374C13.0234 27.1013 14.9809 27.0943 16.2288 26.0428L18.0814 24.4486L18.0844 24.4461C18.1241 24.4117 18.241 24.3362 18.42 24.2694C18.5988 24.2026 18.7369 24.1828 18.7905 24.1828H20.774C22.6547 24.1828 24.1925 22.646 24.1925 20.765V18.7822C24.1925 18.7361 24.2115 18.5982 24.2798 18.4145C24.348 18.2309 24.4238 18.1135 24.4557 18.0768L24.4583 18.0738L26.0451 16.2309L26.0539 16.2205C27.096 14.9811 27.0972 13.0129 26.0358 11.7721L24.4466 9.92628L24.444 9.92329C24.4096 9.88363 24.3342 9.76678 24.2674 9.588C24.2006 9.40928 24.1808 9.27138 24.1808 9.21788V7.23504C24.1808 5.35401 22.643 3.81727 20.7623 3.81727H18.7789C18.7326 3.81727 18.5946 3.79821 18.4107 3.72991C18.227 3.66167 18.1095 3.58584 18.0727 3.55398L16.2263 1.96514L16.2234 1.96265ZM11.4503 5.3353L13.283 3.73661C13.6691 3.41723 14.3423 3.42553 14.7061 3.73533L14.7073 3.7363L16.5448 5.3175L16.5464 5.31884C16.8594 5.58956 17.2487 5.78739 17.5982 5.91721C17.9481 6.0472 18.3701 6.15061 18.7789 6.15061H20.7623C21.3551 6.15061 21.8475 6.64336 21.8475 7.23504V9.21788C21.8475 9.63093 21.9502 10.0529 22.0817 10.4049C22.213 10.756 22.4112 11.1398 22.6793 11.4498L22.681 11.4517L24.2627 13.2887L24.2637 13.2899C24.5769 13.6576 24.5789 14.3439 24.2714 14.7147L22.6926 16.5483L22.6909 16.5503C22.4203 16.8632 22.2225 17.2522 22.0926 17.6015C21.9626 17.9514 21.8591 18.3734 21.8591 18.7822V20.765C21.8591 21.3567 21.3667 21.8494 20.774 21.8494H18.7905C18.3775 21.8494 17.9556 21.9521 17.6035 22.0836C17.2522 22.2148 16.8682 22.413 16.5581 22.6811L16.5565 22.6825L14.7216 24.2615C14.3358 24.5828 13.6606 24.5751 13.296 24.2647L13.2949 24.2637L11.4573 22.6825L11.4558 22.6812C11.1428 22.4105 10.7534 22.2127 10.4039 22.0828C10.054 21.9528 9.63199 21.8494 9.22325 21.8494H7.20479C6.61204 21.8494 6.11966 21.3567 6.11966 20.765V18.7705C6.11966 18.3609 6.01578 17.9419 5.88809 17.597C5.75981 17.2506 5.56775 16.8717 5.31247 16.5655L3.73415 14.7072L3.73268 14.7054C3.42289 14.3349 3.42288 13.6652 3.73267 13.2947L3.73415 13.2929L5.30556 11.4428L5.31243 11.4345C5.56772 11.1283 5.75981 10.7495 5.88809 10.403C6.01578 10.0582 6.11966 9.63911 6.11966 9.22954V7.23504C6.11966 6.64336 6.61204 6.15061 7.20479 6.15061H9.22325C9.63146 6.15061 10.0523 6.04739 10.3987 5.92061C10.7459 5.79352 11.1305 5.60166 11.4401 5.34378L11.4503 5.3353ZM18.9086 12.4916C19.3642 12.036 19.3642 11.2973 18.9086 10.8417C18.453 10.3861 17.7143 10.3861 17.2587 10.8417L12.8337 15.2668L10.1586 12.5917C9.703 12.1361 8.96431 12.1361 8.5087 12.5917C8.05309 13.0473 8.05309 13.786 8.5087 14.2416L12.0087 17.7416C12.4643 18.1973 13.203 18.1973 13.6586 17.7416L18.9086 12.4916Z" fill="#3D3D3D"/>
</svg>
