<svg width="28" height="28" viewBox="0 0 28 28" fill="none" xmlns="http://www.w3.org/2000/svg">
<path d="M25.1486 12.5304L23.5618 10.6875C23.2585 10.3376 23.0135 9.68439 23.0135 9.21784V7.235C23.0135 5.99864 21.9984 4.9839 20.7617 4.9839H18.7782C18.3232 4.9839 17.6581 4.73896 17.3081 4.4357L15.4647 2.84943C14.6596 2.16127 13.3412 2.16127 12.5245 2.84943L10.6927 4.44737C10.3427 4.73896 9.67762 4.9839 9.22259 4.9839H7.20413C5.96739 4.9839 4.95233 5.99864 4.95233 7.235V9.2295C4.95233 9.68439 4.70732 10.3376 4.41563 10.6875L2.84054 12.542C2.16383 13.3468 2.16383 14.6532 2.84054 15.458L4.41563 17.3125C4.70732 17.6624 4.95233 18.3156 4.95233 18.7705V20.765C4.95233 22.0013 5.96739 23.0161 7.20413 23.0161H9.22259C9.67762 23.0161 10.3427 23.261 10.6927 23.5643L12.5362 25.1505C13.3412 25.8387 14.6596 25.8387 15.4763 25.1505L17.3198 23.5643C17.6698 23.261 18.3232 23.0161 18.7899 23.0161H20.7733C22.0101 23.0161 23.0251 22.0013 23.0251 20.765V18.7821C23.0251 18.3272 23.2701 17.6624 23.5735 17.3125L25.1603 15.4696C25.837 14.6648 25.837 13.3352 25.1486 12.5304ZM18.8482 11.7955L13.2129 17.4291C13.0495 17.5924 12.8279 17.6857 12.5945 17.6857C12.3612 17.6857 12.1395 17.5924 11.9761 17.4291L9.15258 14.6065C8.81423 14.2683 8.81423 13.7084 9.15258 13.3701C9.49094 13.0319 10.051 13.0319 10.3893 13.3701L12.5945 15.5746L17.6115 10.5592C17.9498 10.2209 18.5099 10.2209 18.8482 10.5592C19.1866 10.8974 19.1866 11.4573 18.8482 11.7955Z" fill="#3E8DF9"/>
</svg>
