<svg width="28" height="28" viewBox="0 0 28 28" fill="none" xmlns="http://www.w3.org/2000/svg">
<path d="M11.3391 4.88969C12.3266 3.03677 15.6728 3.03677 16.6602 4.88968L25.4402 21.365C26.2345 22.8555 24.8389 24.5 22.7796 24.5H5.21973C3.16049 24.5 1.76487 22.8555 2.55918 21.365L11.3391 4.88969Z" fill="#F45959"/>
<path fill-rule="evenodd" clip-rule="evenodd" d="M12.833 15.1666C12.833 15.811 13.3553 16.3333 13.9997 16.3333C14.644 16.3333 15.1663 15.811 15.1663 15.1666V10.5C15.1663 9.85565 14.644 9.33331 13.9997 9.33331C13.3553 9.33331 12.833 9.85565 12.833 10.5V15.1666ZM12.833 19.8333C12.833 19.189 13.3553 18.6666 13.9997 18.6666C14.644 18.6666 15.1663 19.189 15.1663 19.8333C15.1663 20.4776 14.644 21 13.9997 21C13.3553 21 12.833 20.4776 12.833 19.8333Z" fill="white"/>
</svg>
