<svg width="28" height="28" viewBox="0 0 28 28" fill="none" xmlns="http://www.w3.org/2000/svg">
<path fill-rule="evenodd" clip-rule="evenodd" d="M13.9997 23.3333C8.84502 23.3333 4.66634 19.1547 4.66634 14C4.66634 8.84535 8.84502 4.66668 13.9997 4.66668C19.1543 4.66668 23.333 8.84535 23.333 14C23.333 19.1547 19.1543 23.3333 13.9997 23.3333ZM2.33301 14C2.33301 7.55669 7.55635 2.33334 13.9997 2.33334C20.443 2.33334 25.6663 7.55669 25.6663 14C25.6663 20.4433 20.443 25.6667 13.9997 25.6667C7.55635 25.6667 2.33301 20.4433 2.33301 14ZM13.9997 11.1763C13.5567 11.1763 13.1976 11.5354 13.1976 11.9784V12.4797C13.1976 13.1442 12.6589 13.6828 11.9945 13.6828C11.33 13.6828 10.7913 13.1442 10.7913 12.4797V11.9784C10.7913 10.2065 12.2278 8.77005 13.9997 8.77005C15.7716 8.77005 17.208 10.2065 17.208 11.9784V12.1C17.208 12.9832 16.8572 13.8302 16.2327 14.4547L14.8504 15.8369C14.3806 16.3068 13.6188 16.3068 13.1489 15.8369C12.6791 15.3671 12.6791 14.6053 13.1489 14.1355L14.5312 12.7532C14.7044 12.58 14.8018 12.345 14.8018 12.1V11.9784C14.8018 11.5354 14.4427 11.1763 13.9997 11.1763ZM15.1663 18.0833C15.1663 18.7277 14.644 19.25 13.9997 19.25C13.3553 19.25 12.833 18.7277 12.833 18.0833C12.833 17.439 13.3553 16.9167 13.9997 16.9167C14.644 16.9167 15.1663 17.439 15.1663 18.0833Z" fill="#3D3D3D"/>
</svg>
