<svg xmlns="http://www.w3.org/2000/svg" fill="none" viewBox="0 0 16 16">
  <path fill="currentColor" fill-rule="evenodd" d="M2.666 4.001c0-.736.597-1.333 1.333-1.333h1.334c.736 0 1.333.597 1.333 1.333v1.334c0 .736-.597 1.333-1.333 1.333H3.999a1.333 1.333 0 0 1-1.333-1.333zm8-1.333c-.736 0-1.333.597-1.333 1.333v1.334c0 .736.597 1.333 1.333 1.333h1.333c.737 0 1.334-.597 1.334-1.333V4c0-.736-.597-1.333-1.334-1.333zm.667 10.667a2 2 0 1 0 0-4 2 2 0 0 0 0 4m-7.334-4c-.736 0-1.333.597-1.333 1.333v1.333c0 .737.597 1.334 1.333 1.334h1.334c.736 0 1.333-.597 1.333-1.334v-1.333c0-.736-.597-1.333-1.333-1.333z" clip-rule="evenodd"/>
</svg>
