<svg xmlns="http://www.w3.org/2000/svg" fill="none" viewBox="0 0 17 16">
  <path fill="currentColor" fill-rule="evenodd" d="M2.57 7.702a.667.667 0 0 1 .895-.298L8.5 9.92l5.035-2.517a.667.667 0 0 1 .597 1.192l-5.334 2.667a.67.67 0 0 1-.596 0L2.869 8.596a.667.667 0 0 1-.298-.894Z" clip-rule="evenodd"/>
  <path fill="currentColor" fill-rule="evenodd" d="M2.57 10.368a.667.667 0 0 1 .895-.298L8.5 12.588l5.035-2.518a.667.667 0 1 1 .597 1.193L8.798 13.93a.67.67 0 0 1-.596 0l-5.333-2.667a.667.667 0 0 1-.298-.895ZM8.202 2.07a.67.67 0 0 1 .596 0l5.334 2.667a.667.667 0 0 1 0 1.193L8.798 8.596a.67.67 0 0 1-.596 0L2.869 5.93a.667.667 0 0 1 0-1.193z" clip-rule="evenodd"/>
</svg>
