<svg xmlns="http://www.w3.org/2000/svg" fill="none" viewBox="0 0 514 167">
  <path fill="#EBEBEB" d="M40.479 41.74h421.857v83.477H40.479z"/>
  <path fill="#fff" fill-rule="evenodd" d="M85.356 52.229q0 .117-.008.233h9.022c10.967 0 19.608 4.855 19.887 15.409.14 5.303-2.437 7.651-4.441 9.478-1.415 1.29-2.545 2.32-2.229 3.946.304 1.561 1.405 2.942 2.628 4.475 1.854 2.325 3.987 4.999 4.042 9.183.092 6.942 0 6.07 0 6.07 0 8.381-7.058 15.175-15.764 15.175H85.096q.018.173.018.35c0 1.934-1.628 3.502-3.637 3.502s-3.638-1.568-3.638-3.502q0-.177.018-.35H69.23c-.728 0-3.099-.114-3.047-.17-9.277-.941-16.186-5.821-16.435-15.239-.14-5.302 2.437-7.651 4.44-9.478 1.416-1.29 2.546-2.32 2.23-3.946-.304-1.561-1.405-2.942-2.628-4.475-1.854-2.325-3.987-4.999-4.042-9.183-.092-6.942 0-6.07 0-6.07 0-8.38 7.058-15.175 15.764-15.175h12.577a4 4 0 0 1-.007-.234c0-1.934 1.628-3.501 3.637-3.501s3.638 1.568 3.638 3.502" clip-rule="evenodd"/>
  <path fill="url(#a)" fill-rule="evenodd" d="M40.479 60.136c0-10.24 8.572-18.542 19.148-18.542h45.181c10.576 0 19.149 8.302 19.149 18.542v46.25c0 10.24-8.573 18.542-19.149 18.542H59.627c-10.576 0-19.149-8.302-19.149-18.542zm44.75-5.417q0 .105-.006.209c-.111 1.628-1.51 2.916-3.22 2.916s-3.11-1.288-3.22-2.916l-.007-.16v-.049c0-1.726 1.444-3.125 3.227-3.125q.165 0 .33.016c.703.07 1.34.358 1.836.793.345.303.623.678.807 1.1.163.374.254.785.254 1.216m2.794.209c-.113 3.125-2.765 5.625-6.02 5.625-.56 0-1.1-.074-1.614-.212-.103-.028-.2-.068-.295-.107-.197-.08-.38-.156-.566-.098-.274.085-.623.417-.623.417l-1.087 1.041s-.549.521-.441.73c.107.208.86.208.86.208l15.737.088s.442.028.83-.088c.284-.085.351-.117.452-.166l.138-.063a6.05 6.05 0 0 1 2.422-.5c3.268 0 5.917 2.565 5.917 5.729s-2.649 5.729-5.917 5.729c-1.771 0-3.111-.89-4.195-2.083-.156-.172-.275-.345-.385-.503-.153-.223-.287-.417-.476-.54-.323-.207-1.936-.207-1.936-.207h-19.58s-.43 0-.753.208-.968 1.234-.968 2.208c0 1.498 1.088 2.75 2.54 3.054v.003l6.42 2.796s.625.345 1.152.376c.43.026.688-.038.963-.107l.192-.046a6.5 6.5 0 0 1 1.427-.16c3.446 0 6.239 2.706 6.239 6.043 0 .08 0 .208.108.312.107.104.695.374.695.374l4.885 2.126s.18.034.393.063c.161.022.342.041.481.041.12 0 .35-.058.637-.13.48-.123 1.123-.286 1.688-.286 3.469 0 6.281 2.723 6.281 6.082v5.897c0 3.049-2.553 5.521-5.701 5.521H94.91c-.294 0-.86 0-1.183.208l-6.016 5.305-.116.112s-.107.104-.107.208c0 .138.033.223.07.32.018.048.038.099.055.162q.159.57.19 1.185h9.08c7.724 0 13.986-6.063 13.986-13.542 0 0 .081.779 0-5.417-.05-3.733-1.942-6.12-3.587-8.194-1.084-1.368-2.061-2.6-2.33-3.993-.281-1.451.721-2.37 1.977-3.522 1.777-1.63 4.064-3.726 3.94-8.457-.248-9.418-7.914-13.75-17.643-13.75zm-9.447 56.875a3 3 0 0 0-.016.312c0 1.726 1.445 3.125 3.227 3.125 1.783 0 3.228-1.399 3.228-3.125q0-.158-.016-.312c-.162-1.58-1.538-2.813-3.212-2.813-1.673 0-3.049 1.233-3.211 2.813m-2.804 0h-4.85c-.645 0-2.748-.102-2.702-.152-8.231-.84-14.36-5.194-14.581-13.598-.124-4.732 2.162-6.828 3.94-8.458 1.255-1.151 2.258-2.07 1.977-3.522-.27-1.393-1.246-2.625-2.33-3.993-1.646-2.074-3.538-4.46-3.587-8.194-.082-6.196 0-5.417 0-5.417 0-7.479 6.261-13.541 13.985-13.541h8.357c.015.445.081.877.195 1.288.017.063.037.114.055.163.037.096.07.18.07.32 0 .104-.108.208-.108.208l-.116.112L70.6 62.01c-.323.208-.89.208-1.184.208h-3.012c-3.149 0-5.701 2.472-5.701 5.521v5.897c0 3.36 2.812 6.082 6.281 6.082.564 0 1.206-.163 1.686-.285.287-.073.518-.131.639-.131.138 0 .32.019.48.04.215.03.394.064.394.064l4.885 2.126s1.018.374 1.125.895c.068.326.016.467-.049.643a1.8 1.8 0 0 0-.107.398q-.059.409-.059.834c0 3.336 2.794 6.041 6.24 6.041a6.35 6.35 0 0 0 3.765-1.223l.025-.019c.192-.141.352-.258.62-.32.28-.065.744.208.744.208l4.893 2.13v.003c1.451.305 2.539 1.557 2.539 3.055 0 .973-.645 2-.968 2.208s-.753.208-.753.208H73.504s-1.614 0-1.936-.208c-.189-.122-.323-.316-.477-.539a5 5 0 0 0-.384-.503c-1.084-1.194-2.424-2.083-4.195-2.083-3.268 0-5.917 2.565-5.917 5.73 0 3.163 2.649 5.728 5.917 5.728a6.1 6.1 0 0 0 2.56-.564c.1-.048.168-.08.452-.165.388-.116.83-.088.83-.088l15.736.088s.753 0 .861.208c.108.209-.441.73-.441.73l-1.626 1.354s-.348.331-.622.416c-.186.058-.369-.017-.566-.098a3 3 0 0 0-.295-.107 6.2 6.2 0 0 0-1.614-.211c-3.219 0-5.848 2.444-6.015 5.521" clip-rule="evenodd"/>
  <path fill="#0A0A0A" d="M429.045 105.657q-.627 0-1.127-.443a1.65 1.65 0 0 1-.501-1.202V63.03q0-.696.501-1.138.5-.506 1.127-.506h30.678q.689 0 1.19.506.501.442.501 1.138v7.463q0 .633-.501 1.138a1.62 1.62 0 0 1-1.19.506h-19.346v6.261h17.969q.688 0 1.189.506.501.444.501 1.139v6.83q0 .696-.501 1.202-.5.442-1.189.442h-17.969v6.388h19.847q.689 0 1.19.506.5.506.5 1.202v7.399q0 .696-.5 1.202a1.74 1.74 0 0 1-1.19.443zm-26.4.104q-5.947 0-10.393-1.813-4.444-1.875-7.012-5.625-2.504-3.75-2.755-9.5a246 246 0 0 1 0-11.125q.251-5.625 2.818-9.375 2.63-3.812 7.075-5.687 4.507-1.875 10.267-1.875 4.132 0 7.701 1 3.632.938 6.449 2.937a14.2 14.2 0 0 1 4.445 4.875q1.628 2.876 1.691 6.75 0 .563-.439.938-.375.375-.939.375h-10.581q-.939 0-1.377-.375t-.751-1.313q-.815-2.687-2.379-3.625-1.566-.937-3.82-.937-2.754 0-4.382 1.5-1.628 1.437-1.753 5.125a147 147 0 0 0 0 10.5q.125 3.687 1.753 5.187 1.628 1.438 4.382 1.438 2.254 0 3.82-1 1.627-1 2.379-3.563.25-1 .688-1.312.501-.375 1.44-.375h10.581q.564 0 .939.375.44.375.439.937-.063 3.875-1.691 6.813-1.628 2.874-4.445 4.875-2.817 1.937-6.449 2.937-3.569.938-7.701.938m-68.847-.104q-.563 0-1.001-.38a1.52 1.52 0 0 1-.376-1.012q0-.253.125-.442l14.275-40.477q.187-.695.814-1.328.688-.632 1.815-.632h11.458q1.19 0 1.816.632.625.632.813 1.328l14.338 40.477q.063.19.062.442 0 .57-.438 1.012-.375.38-.939.38h-9.642q-1.064 0-1.565-.506-.5-.507-.689-.949l-1.94-5.312h-15.089l-1.941 5.312q-.188.442-.689.949-.438.506-1.565.506zm16.717-17.456h9.329l-4.696-14.23zm-59.707 17.456q-.627 0-1.127-.443a1.65 1.65 0 0 1-.501-1.202V63.03q0-.696.501-1.138.5-.506 1.127-.506h17.843q8.515 0 13.336 3.92 4.883 3.922 4.883 10.942 0 4.427-2.003 7.526a14.3 14.3 0 0 1-5.259 4.87l8.139 14.926q.187.378.187.695 0 .57-.375 1.012a1.27 1.27 0 0 1-.939.38h-10.581q-1.19 0-1.816-.57-.626-.632-.814-1.138l-6.261-13.028h-4.507v13.091q0 .696-.501 1.202-.438.443-1.127.443zm11.833-25.172h5.947q2.191 0 3.256-1.201 1.065-1.264 1.064-3.1 0-1.897-1.064-3.225-1.002-1.328-3.256-1.328h-5.947zm-42.366 25.172q-.688 0-1.189-.443a1.78 1.78 0 0 1-.439-1.202V73.149h-10.768q-.689 0-1.19-.443a1.78 1.78 0 0 1-.438-1.201V63.03q0-.696.438-1.138a1.62 1.62 0 0 1 1.19-.506h35.186q.689 0 1.127.506.501.442.501 1.138v8.475q0 .696-.501 1.201-.438.444-1.127.443h-10.769v30.863q0 .696-.501 1.202-.438.443-1.127.443zm-30.782 0a1.66 1.66 0 0 1-1.127-.443 1.65 1.65 0 0 1-.501-1.202V63.03q0-.696.501-1.138.501-.506 1.127-.506h10.644q.688 0 1.127.506.5.442.5 1.138v40.982q0 .696-.5 1.202-.439.443-1.127.443zm-38.983 0q-.627 0-1.127-.443a1.65 1.65 0 0 1-.501-1.202V63.03q0-.696.501-1.138.5-.506 1.127-.506h30.678q.689 0 1.189.506.501.442.501 1.138v7.463q0 .633-.501 1.138-.5.507-1.189.506h-19.346v6.261h17.969q.688 0 1.189.506.501.444.501 1.139v6.83q0 .696-.501 1.202-.5.442-1.189.442h-17.969v6.388h19.847q.688 0 1.189.506t.501 1.202v7.399q0 .696-.501 1.202-.5.443-1.189.443zm-25.962.104q-6.574 0-10.957-1.813-4.32-1.875-6.511-4.812-2.128-3-2.254-6.313 0-.562.376-.937.375-.375.939-.375h9.955q.876 0 1.377.312.501.25 1.064.75.564.688 1.315 1.313.751.562 1.941.937 1.19.313 2.755.313 2.88 0 4.445-.75 1.565-.813 1.565-2.188 0-1.062-.876-1.75-.814-.687-2.818-1.25t-5.447-1.187q-4.82-.813-8.326-2.375-3.507-1.626-5.385-4.313-1.815-2.75-1.815-6.75 0-4.062 2.253-7.187 2.317-3.126 6.387-4.875 4.131-1.75 9.579-1.75 4.507 0 7.951 1.187 3.506 1.188 5.885 3.125 2.38 1.875 3.631 4.063 1.253 2.187 1.315 4.187 0 .563-.438 1-.375.375-.877.375h-10.455q-.751 0-1.315-.25-.501-.25-.939-.812-.314-.875-1.565-1.563-1.252-.687-3.193-.687-2.129 0-3.256.75-1.127.688-1.127 2.062 0 .938.689 1.625t2.441 1.25q1.754.501 4.884 1.125 5.947.876 9.579 2.5 3.694 1.626 5.384 4.25t1.691 6.563q0 4.437-2.567 7.625t-7.075 4.937q-4.445 1.688-10.205 1.688"/>
  <path stroke="#000" stroke-dasharray="4.17 4.17" stroke-opacity=".5" stroke-width=".391" d="M40.288 166.957V0m83.89 166.957V0m20.719 166.957V0m39.7 166.957V0m38.99 166.957V0m18.385 166.957V0m42.926 166.957V0m43.246 166.957V0m49.991 166.957V0m45.002 166.957V0M188.67 166.957V0m38.988 166.957V0m18.385 166.957V0m42.924 166.957V0m43.247 166.957V0m49.991 166.957V0m45.003 166.957V0m34.936 166.957V0M.305 41.544h513.391M.305 61.361h513.391M.305 125.419h513.391M.305 106.005h513.391"/>
  <defs>
    <linearGradient id="a" x1="118.739" x2="47.127" y1="45.501" y2="118.542" gradientUnits="userSpaceOnUse">
      <stop stop-color="#FF4357"/>
      <stop offset="1" stop-color="#B0002C"/>
    </linearGradient>
  </defs>
</svg>
