<svg xmlns="http://www.w3.org/2000/svg" fill="none" viewBox="0 0 400 401">
  <path fill="#EBEBEB" d="M99.375 100.332H300v200.625H99.375z"/>
  <path fill="#F2F2F2" fill-rule="evenodd" d="M207.519 126.479q0 .282-.02.56h21.616c26.274 0 46.978 11.652 47.646 36.981.336 12.727-5.839 18.364-10.64 22.748-3.391 3.096-6.098 5.567-5.339 9.47.728 3.747 3.365 7.061 6.294 10.74 4.442 5.579 9.552 11.998 9.685 22.039.221 16.663 0 14.568 0 14.568 0 20.114-16.909 36.42-37.767 36.42h-32.1q.044.415.044.841c0 4.642-3.902 8.405-8.716 8.405s-8.715-3.763-8.715-8.405q0-.426.043-.841h-20.67c-1.743 0-7.423-.272-7.298-.407-22.228-2.258-38.781-13.97-39.376-36.573-.336-12.727 5.838-18.364 10.639-22.748 3.391-3.096 6.098-5.567 5.34-9.471-.728-3.746-3.366-7.06-6.295-10.739-4.442-5.579-9.552-11.998-9.684-22.039-.221-16.663 0-14.568 0-14.568 0-20.115 16.908-36.421 37.766-36.421h30.135a9 9 0 0 1-.019-.56c0-4.642 3.902-8.405 8.715-8.405 4.814 0 8.716 3.763 8.716 8.405" clip-rule="evenodd"/>
  <path fill="url(#a)" fill-rule="evenodd" d="M100 145.457c0-24.577 20.54-44.5 45.876-44.5h108.248c25.336 0 45.876 19.923 45.876 44.5v111c0 24.576-20.54 44.5-45.876 44.5H145.876c-25.336 0-45.876-19.924-45.876-44.5zm107.216-13q0 .252-.017.5c-.265 3.909-3.617 7-7.714 7s-7.45-3.091-7.716-7a8 8 0 0 1-.015-.382l-.001-.118c0-4.143 3.461-7.5 7.731-7.5q.4 0 .791.038a7.8 7.8 0 0 1 4.399 1.902 7.5 7.5 0 0 1 1.935 2.64c.391.898.607 1.884.607 2.92m6.692.5c-.271 7.5-6.625 13.5-14.423 13.5-1.34 0-2.636-.177-3.866-.508a6 6 0 0 1-.707-.256c-.473-.195-.91-.375-1.355-.236-.658.205-1.492 1-1.492 1l-2.606 2.5s-1.315 1.25-1.057 1.75 2.062.5 2.062.5l37.702.211s1.06.067 1.989-.211c.679-.204.841-.281 1.083-.397.089-.043.189-.091.329-.152a14.5 14.5 0 0 1 5.804-1.201c7.829 0 14.175 6.156 14.175 13.75 0 7.593-6.346 13.75-14.175 13.75-4.243 0-7.454-2.135-10.051-5-.374-.412-.659-.827-.921-1.207-.368-.535-.689-1.001-1.141-1.293-.773-.5-4.639-.5-4.639-.5h-46.908s-1.031 0-1.804.5-2.319 2.962-2.319 5.3c0 3.593 2.606 6.597 6.085 7.329l-.002.007 15.384 6.71s1.497.827 2.759.904c1.03.062 1.65-.093 2.309-.258q.223-.058.459-.112a15.4 15.4 0 0 1 3.418-.38c8.256 0 14.948 6.491 14.948 14.5 0 .19 0 .5.258.75s1.667.897 1.667.897l11.703 5.103s.429.081.941.151c.387.052.821.099 1.153.099.289 0 .839-.14 1.526-.315 1.151-.293 2.691-.685 4.044-.685 8.311 0 15.049 6.535 15.049 14.597v14.153c0 7.317-6.116 13.25-13.66 13.25h-7.217c-.705 0-2.061 0-2.835.5l-14.412 12.731-.278.269s-.258.25-.258.5c0 .332.078.536.167.767.045.116.092.239.133.389.251.911.406 1.863.456 2.844h21.755c18.504 0 33.505-14.551 33.505-32.5 0 0 .196 1.869 0-13-.118-8.96-4.651-14.688-8.591-19.667-2.599-3.283-4.939-6.24-5.585-9.583-.673-3.483 1.728-5.688 4.737-8.451 4.259-3.912 9.737-8.943 9.439-20.299-.592-22.603-18.96-33-42.269-33zm-22.633 136.5a7 7 0 0 0-.038.75c0 4.142 3.462 7.5 7.732 7.5s7.732-3.358 7.732-7.5q0-.381-.038-.75c-.388-3.79-3.685-6.75-7.694-6.75s-7.306 2.96-7.694 6.75m-6.719 0h-11.618c-1.546 0-6.585-.243-6.475-.364-19.719-2.015-34.404-12.466-34.933-32.636-.298-11.357 5.18-16.387 9.439-20.299 3.008-2.763 5.41-4.969 4.738-8.451-.646-3.344-2.986-6.301-5.585-9.584-3.94-4.979-8.474-10.706-8.592-19.666-.195-14.87 0-13 0-13 0-17.95 15.001-32.5 33.505-32.5h20.024c.034 1.068.193 2.104.465 3.093.041.15.089.273.134.39.088.23.167.434.167.767 0 .25-.258.5-.258.5l-.278.268-13.124 11.982c-.773.5-2.129.5-2.835.5h-7.217c-7.544 0-13.659 5.932-13.659 13.25v14.152c0 8.062 6.737 14.598 15.049 14.598 1.352 0 2.889-.392 4.04-.685.688-.175 1.24-.315 1.529-.315.332 0 .766.046 1.153.098.512.07.941.152.941.152l11.704 5.102s2.439.898 2.697 2.148c.161.783.037 1.121-.118 1.544a4.2 4.2 0 0 0-.256.956 14 14 0 0 0-.141 2c0 8.008 6.692 14.5 14.948 14.5a15.2 15.2 0 0 0 9.021-2.937l.059-.044c.461-.339.843-.621 1.487-.769.671-.155 1.783.5 1.783.5l11.721 5.11-.001.008c3.479.733 6.085 3.738 6.085 7.332 0 2.337-1.547 4.8-2.32 5.3s-1.804.5-1.804.5h-46.907s-3.866 0-4.639-.5c-.453-.293-.773-.759-1.142-1.294-.261-.38-.547-.795-.92-1.206-2.598-2.866-5.808-5-10.052-5-7.829 0-14.175 6.156-14.175 13.75 0 7.593 6.346 13.75 14.175 13.75 2.068 0 4.033-.43 5.804-1.202.14-.061.24-.109.329-.152.242-.116.404-.193 1.084-.396.928-.278 1.988-.212 1.988-.212l37.702.212s1.804 0 2.062.5-1.056 1.75-1.056 1.75l-3.895 3.25s-.834.794-1.492 1c-.445.138-.883-.042-1.355-.237a6 6 0 0 0-.707-.256 15 15 0 0 0-3.866-.507c-7.712 0-14.011 5.866-14.413 13.25" clip-rule="evenodd"/>
  <circle cx="145.234" cy="146.237" r="45" stroke="#000" stroke-dasharray="5 5" stroke-opacity=".5" stroke-width=".469"/>
  <circle cx="145.234" cy="146.237" r="45" stroke="#000" stroke-dasharray="5 5" stroke-opacity=".5" stroke-width=".469"/>
  <circle cx="145.234" cy="255.738" r="45" stroke="#000" stroke-dasharray="5 5" stroke-opacity=".5" stroke-width=".469"/>
  <circle cx="254.765" cy="146.237" r="45" stroke="#000" stroke-dasharray="5 5" stroke-opacity=".5" stroke-width=".469"/>
  <circle cx="254.765" cy="255.738" r="45" stroke="#000" stroke-dasharray="5 5" stroke-opacity=".5" stroke-width=".469"/>
  <path stroke="#000" stroke-dasharray="5 5" stroke-opacity=".5" stroke-width=".469" d="M0 300.949h400M0 269.567h400M0 100.495h400M0 132.374h400M299.992 400.957v-400m-31.381 400v-400m-169.072 400v-400m31.878 400v-400"/>
  <defs>
    <linearGradient id="a" x1="287.5" x2="115.625" y1="110.332" y2="285.332" gradientUnits="userSpaceOnUse">
      <stop stop-color="#FF4357"/>
      <stop offset="1" stop-color="#B0002C"/>
    </linearGradient>
  </defs>
</svg>
