<svg xmlns="http://www.w3.org/2000/svg" fill="none" viewBox="0 0 20 20">
  <path fill="currentColor" fill-rule="evenodd" d="M5 4.167h8.333v11.666H5zm10.833 6.666H15V10h.833zm-.833 5V12.5h.833c.92 0 1.667-.746 1.667-1.667V10c0-.92-.746-1.667-1.667-1.667.92 0 1.667-.746 1.667-1.666v-.834c0-.92-.746-1.666-1.667-1.666H15c0-.92-.746-1.667-1.667-1.667H5c-.92 0-1.667.746-1.667 1.667H2.5v1.666h.833V7.5H2.5v1.667h.833v1.666H2.5V12.5h.833v1.667H2.5v1.666h.833c0 .92.747 1.667 1.667 1.667h8.333c.92 0 1.667-.746 1.667-1.667m0-10v.834h.833v-.834zm-5.833 2.5a.417.417 0 1 0 0-.833.417.417 0 0 0 0 .833m0 1.667a2.083 2.083 0 1 0 0-4.167 2.083 2.083 0 0 0 0 4.167m0 2.083c-1.276 0-2.084.862-2.084 1.667H5.417c0-1.957 1.804-3.333 3.75-3.333s3.75 1.376 3.75 3.333H11.25c0-.805-.808-1.667-2.083-1.667" clip-rule="evenodd"/>
</svg>
