<svg xmlns="http://www.w3.org/2000/svg" fill="none" viewBox="0 0 20 20">
  <g fill="currentColor" fill-rule="evenodd" clip-rule="evenodd">
    <path d="M4.107 11.178a3.334 3.334 0 0 0 4.714 4.714l1.767-1.768a.833.833 0 0 1 1.179 1.179L9.999 17.07A5 5 0 1 1 2.93 10l1.767-1.768A.833.833 0 1 1 5.874 9.41zM8.23 5.875a.833.833 0 0 1 0-1.179L10 2.93A5 5 0 0 1 17.071 10l-1.767 1.768a.833.833 0 0 1-1.179-1.178l1.768-1.768a3.332 3.332 0 0 0-3.633-5.437 3.3 3.3 0 0 0-1.081.723L9.41 5.875a.833.833 0 0 1-1.179 0"/>
    <path d="M7.052 12.947a.833.833 0 0 1 0-1.179l4.714-4.714a.833.833 0 1 1 1.179 1.179L8.23 12.947a.833.833 0 0 1-1.179 0"/>
  </g>
</svg>
