<svg xmlns="http://www.w3.org/2000/svg" fill="none" viewBox="0 0 20 20">
  <path fill="currentColor" fill-rule="evenodd" d="M9.443 2.507c.582-.552 1.38-.903 2.19-.831h.014c.237.045.475.112.694.216.318.166.6.395.869.633l.07.063.069.063c.163.17.341.324.52.479q.114.098.228.2.715.658 1.437 1.309a260 260 0 0 1 1.326 1.207q.15.134.305.26c.134-.17.273-.332.43-.48.121.128.254.245.387.362l.16.14.072.068.045.041.048.045q.162.153.329.298t.33.3q.05.046.1.096l.1.096-.038.039-.002.001q-.064.061-.12.127-.083.09-.164.186-.08.095-.163.187a10 10 0 0 0-.583.647l-.064.07-.004.005-.057.064a6 6 0 0 0-.388.423 8 8 0 0 1-.293.327 9 9 0 0 0-.265.296l-.017.019-.092.105q-.07.08-.137.16a7 7 0 0 1-.378-.342 7 7 0 0 0-.378-.341 6 6 0 0 1-.336-.31 5 5 0 0 0-.466-.413l-.04-.014v-.031l.098-.108q.149-.159.287-.328a29 29 0 0 1-.372-.35q-.044-.037-.085-.075l-.085-.074a727 727 0 0 1-1.793-1.627l-.006-.006-1.095-.995-.103-.095q-.14-.128-.283-.255a13 13 0 0 1-.397-.36 2.1 2.1 0 0 0-.605-.346 2.9 2.9 0 0 0-1.429-.113 4 4 0 0 0-.734.189q-.142.067-.278.135A6.6 6.6 0 0 1 9.44 2.494zm4.766.755q.168-.194.344-.382c.146.122.286.255.426.387l.21.197c.04.036.085.072.126.103q.17.15.333.307c.15.141.3.283.46.412a3 3 0 0 1 .179.167l.08.076.081.076q-.161.203-.34.387h-.001c-.631-.58-1.263-1.16-1.903-1.73zm-10.714.031q-.344.016-.667.117h.004l-.02.01q-.026.011-.043.022.36.329.723.653c.46.414.92.828 1.364 1.26-.026.032-.08.09-.107.118l-.508.567c-.406.452-.81.904-1.22 1.351a4 4 0 0 1-.265-.229q-.119-.11-.24-.218-.12-.107-.24-.218a9 9 0 0 1-.239-.218q-.116-.11-.24-.218a8 8 0 0 1-.573-.52q-.077-.069-.154-.133l-.155-.133c-.08.306-.098.629-.067.944.072.35.157.71.345 1.015.21.373.542.652.878.908q.147.074.295.152.215.082.435.144c.3.081.613.095.918.059a3 3 0 0 0 .42-.072l.051-.02a.5.5 0 0 1 .192-.048 1 1 0 0 1 .08.1l.135.118.134.12c.152.13.3.269.448.408q.105.096.215.187.11.09.215.186c.175.18.363.346.555.503q.123.106.238.218.114.113.237.218c.109.09.211.187.314.283q.136.131.282.257l.018.015.043.036c.096.081.19.16.279.25.15.156.314.298.477.44l.24.211q.115.116.237.225c.143.12.28.247.418.373q.185.172.375.337.068.055.134.117c.146.146.301.282.456.418.162.143.324.285.476.44.009.009.031.031.044.04.207.17.399.355.59.541.216.21.432.42.669.605a3 3 0 0 0-.031 1.19v.01c.16.943.9 1.73 1.81 2.004.308.08.626.08.944.08.233-.004.461-.067.68-.143a6 6 0 0 1-.287-.262q-.125-.12-.254-.233l-.242-.215a18 18 0 0 0-.58-.532q-.147-.131-.293-.264l-.175-.161a5 5 0 0 1-.264-.247c.09-.09.183-.185.269-.284.022-.026.062-.071.085-.094q.196-.224.4-.446.236-.257.464-.52.048-.054.103-.108.12-.12.228-.251c.102-.12.203-.238.323-.337.116.125.237.247.372.355l.059.05.032.028.092.079c.172.172.354.334.535.495q.19.168.374.34.037.037.077.072l.076.072.237.21.238.208a3.2 3.2 0 0 0-.045-1.433c-.112-.377-.332-.71-.591-1.002q-.032-.035-.067-.068l-.036-.035a2.6 2.6 0 0 0-1.985-.701c-.026.004-.076.004-.098.004-.1.007-.197.028-.294.049a2 2 0 0 1-.315.05c-.085-.058-.157-.13-.229-.202l-.022-.023-.022-.022q-.329-.291-.651-.587l-.21-.19q-.016-.016-.042-.036l-.042-.036c-.438-.394-.87-.794-1.304-1.194-.503-.465-1.006-.93-1.518-1.386q-.495-.45-.992-.896l-.001-.001c-.651-.588-1.301-1.174-1.945-1.767l-.072-.067-.071-.068a8 8 0 0 0-.215-.18c.12-.543.058-1.11-.117-1.635l-.018-.027a8 8 0 0 0-.165-.328c-.119-.206-.282-.373-.446-.54l-.141-.148-.198-.129-.116-.077a3 3 0 0 0-.443-.22 6 6 0 0 0-.376-.1l-.354-.04zm8.957 1.91a347 347 0 0 0 1.904 1.734c-.52.62-1.051 1.232-1.583 1.843q-.625.719-1.243 1.442l-.135.135-.134-.133q-.068-.065-.134-.132a7 7 0 0 0-.297-.265 6 6 0 0 1-.37-.337q-.104-.094-.207-.181l-.103-.09q-.09-.082-.179-.166a8 8 0 0 0-.457-.408 3 3 0 0 0-.179-.157l.132-.136c.31-.318.618-.635.916-.965l.036-.036q.207-.231.425-.452a12 12 0 0 0 .529-.568q.275-.304.562-.595l.284-.295q.034-.034.067-.073l.01-.012c.049-.05.098-.104.143-.153zM5.92 12.14l-.342.37.008-.005c-.276.27-.54.555-.803.839-.24.258-.479.517-.728.765q-.082.095-.17.186l-.059.06-.232.254c-.138.152-.275.304-.422.448l-.12.123q-.09.09-.18.187l-.279.303c-.199.219-.398.438-.612.64l-.034.037-.033.035a17 17 0 0 0-.38.41c.023.023.071.064.104.092l.012.01q.093.081.188.167.234.23.482.445.228.2.45.413l.026.023.023.022c.194.162.38.334.565.506q.178.166.357.325.006.01.017.018l.006.005.065.057q.061.056.127.109l.052-.055q.078-.08.15-.165c.13-.164.268-.32.406-.477l.086-.098q.163-.189.332-.378.208-.27.443-.512c.121-.153.251-.301.38-.445.243-.3.498-.588.753-.876l.036-.04.036-.04c.694-.819 1.402-1.636 2.114-2.445q-.147-.143-.3-.279a1.3 1.3 0 0 1-.197-.188 17 17 0 0 0-.421-.369 1 1 0 0 1-.206-.207l-.032-.036-.03-.031a1 1 0 0 1-.202-.162 7 7 0 0 1-.556-.503l-.12-.106-.122-.105c-.22.218-.43.446-.638.673" clip-rule="evenodd"/>
</svg>
