<svg xmlns="http://www.w3.org/2000/svg" fill="none" viewBox="0 0 21 21">
  <path fill="currentColor" fill-rule="evenodd" d="M15.293.293a1 1 0 0 1 1.414 0l3.5 3.5a1 1 0 0 1 0 1.414l-3.5 3.5a1 1 0 1 1-1.414-1.414L17.086 5.5h-5.037l-1.974 5 1.974 5h5.037l-1.793-1.793a1 1 0 0 1 1.414-1.414l3.5 3.5a1 1 0 0 1 0 1.414l-3.5 3.5a1 1 0 0 1-1.414-1.414l1.793-1.793h-5.718a1 1 0 0 1-.93-.633L8.32 11.5H1a1 1 0 1 1 0-2h7.32l2.118-5.367a1 1 0 0 1 .93-.633h5.718l-1.793-1.793a1 1 0 0 1 0-1.414" clip-rule="evenodd"/>
</svg>
