<svg xmlns="http://www.w3.org/2000/svg" fill="none" viewBox="0 0 20 20">
  <path fill="currentColor" fill-rule="evenodd" d="M8.163 1.458C8.163.694 8.78.083 9.53.083h4.994c.751 0 1.369.61 1.369 1.375v1.25c0 .763-.618 1.374-1.369 1.374H9.531c-.75 0-1.368-.61-1.368-1.375zm1.489.125v1h4.753v-1zM.984 6.04c0-.764.618-1.375 1.369-1.375h1.873c.75 0 1.368.611 1.368 1.375v.5h4.13v-.5c0-.764.617-1.375 1.368-1.375h2.185c.75 0 1.368.611 1.368 1.375v.5h1.129a3.245 3.245 0 0 1 3.24 3.25v2.498c0 .764-.617 1.375-1.368 1.375h-1.873c-.75 0-1.368-.61-1.368-1.375v-.812h-8.81v.188c0 .764-.618 1.374-1.37 1.374H2.354c-.751 0-1.369-.61-1.369-1.374zm3.121.125H2.473v5.373h1.632zm1.49 3.811h8.93c.751 0 1.369.611 1.369 1.375v.812h1.632V9.79c0-.961-.78-1.75-1.752-1.75h-1.249c-.751 0-1.369-.61-1.369-1.374v-.5h-1.944v.5c0 .764-.617 1.375-1.369 1.375H5.594zm11.563 4.818-.542.515-.541-.515.541-.578zm-.542 1.668-.137.181c-.172.23-.33.468-.443.682a2 2 0 0 0-.118.266c-.022.069-.024.1-.024.1a.723.723 0 1 0 1.445-.001s-.002-.03-.025-.099a2 2 0 0 0-.118-.266 5.4 5.4 0 0 0-.442-.682zm0-1.153-.541-.515-.002.002-.004.005-.015.015-.051.057q-.067.073-.178.201c-.145.169-.34.404-.538.67a7 7 0 0 0-.566.878c-.15.287-.316.673-.316 1.068 0 1.23.99 2.226 2.211 2.226s2.212-.996 2.212-2.226c0-.395-.166-.781-.316-1.068a7 7 0 0 0-.566-.878 12 12 0 0 0-.768-.928l-.014-.016-.004-.004-.002-.001v-.001z" clip-rule="evenodd"/>
</svg>
