<svg xmlns="http://www.w3.org/2000/svg" fill="none" viewBox="0 0 20 20">
  <path fill="currentColor" d="M16.19 3.122c-2.018-.103-3.688-.731-5.258-1.973-.53-.42-1.27-.42-1.8 0-1.569 1.242-3.24 1.869-5.257 1.973A1.45 1.45 0 0 0 2.5 4.57v6.635c0 1.882.936 3.704 2.708 5.268 1.241 1.096 2.944 2.086 4.555 2.649a.8.8 0 0 0 .538 0c1.61-.563 3.313-1.553 4.554-2.649 1.771-1.564 2.709-3.385 2.709-5.268V4.57a1.45 1.45 0 0 0-1.376-1.448zm-.259 8.083c0 3.203-3.713 5.441-5.899 6.275-2.185-.835-5.9-3.072-5.9-6.276V4.743c2.219-.145 4.152-.874 5.9-2.224 1.749 1.35 3.682 2.079 5.9 2.224zm-7.178-.196 3.926-3.925a.816.816 0 1 1 1.154 1.154l-4.679 4.678a.816.816 0 0 1-1.284-.17L6.1 9.682a.817.817 0 0 1 1.413-.817z"/>
</svg>
