<svg xmlns="http://www.w3.org/2000/svg" fill="none" viewBox="0 0 20 20">
  <path fill="currentColor" fill-rule="evenodd" d="M4.167 3.333a.833.833 0 0 0-.833.834v11.666a.833.833 0 0 0 .833.834H7.5a.833.833 0 0 1 0 1.666H4.167a2.5 2.5 0 0 1-2.5-2.5V4.167a2.5 2.5 0 0 1 2.5-2.5H7.5a.833.833 0 0 1 0 1.666zm8.577 1.911a.833.833 0 0 1 1.179 0l4.166 4.167a.833.833 0 0 1 0 1.178l-4.166 4.167a.833.833 0 1 1-1.179-1.179L16.322 10l-3.578-3.577a.833.833 0 0 1 0-1.179" clip-rule="evenodd"/>
  <path fill="currentColor" fill-rule="evenodd" d="M6.667 10c0-.46.373-.833.833-.833h10a.833.833 0 1 1 0 1.666h-10A.833.833 0 0 1 6.667 10" clip-rule="evenodd"/>
</svg>
