<svg xmlns="http://www.w3.org/2000/svg" fill="none" viewBox="0 0 20 20">
  <path fill="currentColor" fill-rule="evenodd" d="M10 4.167A1.667 1.667 0 1 0 10 7.5a1.667 1.667 0 0 0 0-3.333M6.667 5.833a3.333 3.333 0 1 1 6.667 0 3.333 3.333 0 0 1-6.667 0M10 11.667c-1.29 0-3.096.472-4.187.88-.482.18-.813.665-.813 1.252v2.868a.833.833 0 0 1-1.666 0v-2.868c0-1.208.696-2.364 1.895-2.813C6.406 10.546 8.424 10 10 10c1.623 0 3.377.582 4.633 1.003 1.261.423 2.034 1.614 2.034 2.889v2.775a.833.833 0 0 1-1.667 0v-2.775c0-.615-.366-1.13-.897-1.309-1.304-.437-2.798-.916-4.103-.916" clip-rule="evenodd"/>
</svg>
