<svg xmlns="http://www.w3.org/2000/svg" fill="none" viewBox="0 0 83 81">
  <path fill="#fff" d="M75.51 2.98c2.193 0 4 1.807 4 4.001 0 2.193-1.807 3.999-4 3.999s-4-1.806-4-3.999 1.677-4.001 4-4.001M7.816 56.618a5 5 0 1 1 0 10.001 5 5 0 0 1 0-10.001m57.166-43.709 12.909 15.727H57.564z"/>
  <path fill="#fff" d="m64.985 12.909-7.419 15.727-16.764-15.727zm-24.185 0L24.184 28.636l-7.418-15.727zm-24.036 0 7.418 15.727H3.707z"/>
  <path fill="#fff" d="M57.564 28.636 40.799 70.327 24.182 28.636z"/>
  <path fill="#9BC9FF" d="M77.893 28.636 40.802 70.327l16.764-41.691zm-20.329 0H24.182l16.617-15.727zm-33.382 0 16.617 41.691L3.707 28.636z"/>
  <path fill="#1E81CE" d="M79.11 42.072a3 3 0 0 1 2.998 3.001 3 3 0 1 1-2.998-3.002m-9.081 23.657a1.335 1.335 0 1 1 0 2.67 1.335 1.335 0 0 1 0-2.67M59.79 0a1.335 1.335 0 1 1-.002 2.67A1.335 1.335 0 0 1 59.79 0M24.627 60.238a1.335 1.335 0 1 1 0 2.67 1.335 1.335 0 0 1 0-2.67M6.082 1.781a1.336 1.336 0 1 1-.001 2.672 1.336 1.336 0 0 1 .001-2.672M2 40.362a2 2 0 1 1-.003 4.002A2 2 0 0 1 2 40.362m38.798 30.855c-.297 0-.446-.148-.742-.297L2.964 29.23c-.297-.446-.297-1.039.149-1.335.445-.298 1.038-.298 1.335.148l36.35 40.95 36.349-40.95c.298-.446.89-.446 1.336-.148.444.296.444.889.148 1.335L41.54 70.92c-.297.297-.446.297-.742.297"/>
  <path fill="#1E81CE" d="M25.223 47.182a.82.82 0 0 1-.742-.445l-4.154-6.528c-.297-.446-.148-1.038.296-1.336.445-.296 1.038-.148 1.336.298l4.154 6.528c.297.444.148 1.038-.297 1.334-.148.149-.445.148-.593.148m-5.936-9.346a.82.82 0 0 1-.742-.445l-1.78-2.819c-.297-.446-.149-1.038.296-1.336.445-.296 1.039-.148 1.336.298l1.78 2.819c.297.444.148 1.038-.297 1.334-.296.148-.444.148-.593.148m40.947 3.264c-.148 0-.296 0-.444-.148-.446-.297-.594-.89-.297-1.335l.89-1.483c.297-.446.891-.594 1.335-.297.445.297.594.89.297 1.336l-.89 1.483q-.445.444-.89.444m-4.598 7.122c-.148 0-.296 0-.444-.148-.446-.297-.594-.89-.298-1.335l2.522-3.859c.298-.444.89-.592 1.337-.296.444.296.592.89.296 1.336l-2.523 3.858q-.445.444-.89.444M40.8 71.217c-.446 0-.742-.297-.89-.594l-16.618-41.69c-.148-.445 0-1.038.446-1.188.444-.148 1.038 0 1.186.446L40.8 67.805l15.874-39.466c.148-.444.742-.742 1.188-.444.444.148.742.74.444 1.186L41.69 70.624c-.147.446-.445.594-.89.594"/>
  <path fill="#1E81CE" d="M5.636 27.745H75.96L64.537 13.8H17.06zm72.254 1.78H3.706c-.296 0-.742-.147-.89-.592-.148-.297-.148-.742.148-1.038l13.057-15.727c.148-.15.445-.298.742-.298H64.98c.298 0 .594.148.743.298L78.78 27.895c.297.296.297.593.148 1.038a1.29 1.29 0 0 1-1.038.593"/>
  <path fill="#1E81CE" d="M57.566 29.526c-.297 0-.445-.148-.593-.296L40.207 13.502c-.445-.296-.445-.89 0-1.334.297-.446.89-.446 1.336 0l15.726 14.837 6.825-14.54c.15-.447.742-.595 1.188-.447.444.15.592.742.444 1.188l-7.418 15.727c-.148.297-.445.445-.593.445z"/>
  <path fill="#1E81CE" d="M24.181 29.526h-.148c-.296 0-.594-.296-.594-.445l-7.418-15.727c-.148-.445 0-1.038.445-1.186.446-.15 1.039 0 1.187.444l6.825 14.54 15.727-14.836q.667-.447 1.336 0 .444.667 0 1.335L24.775 29.23c-.149.296-.445.296-.594.296M47.334 78a1.336 1.336 0 1 1 0 2.672 1.336 1.336 0 0 1 0-2.672"/>
</svg>
