<svg xmlns="http://www.w3.org/2000/svg" fill="none" viewBox="0 0 40 40">
  <rect width="40" height="40" fill="currentColor" rx="20"/>
  <path fill="#fff" fill-rule="evenodd" d="M15 10a1 1 0 0 0-1 1v1h-1.778A2.22 2.22 0 0 0 10 14.222a7.11 7.11 0 0 0 3.932 6.362l.887.443a6 6 0 0 0 4.184 2.89L19 24v4h-2a1 1 0 1 0 0 2h6a1 1 0 1 0 0-2h-2v-4q0-.042-.003-.082a6 6 0 0 0 4.184-2.89l.887-.444A7.11 7.11 0 0 0 30 14.222 2.22 2.22 0 0 0 27.778 12H26v-1a1 1 0 0 0-1-1zm-.993 8.283A6 6 0 0 1 14 18v-4h-1.778c-.122 0-.222.1-.222.222 0 1.61.756 3.105 2.007 4.061M28 14.223a5.11 5.11 0 0 1-2.007 4.06Q26 18.143 26 18v-4h1.778c.122 0 .222.1.222.222" clip-rule="evenodd"/>
</svg>
