<svg xmlns="http://www.w3.org/2000/svg" fill="none" viewBox="0 0 40 40">
  <rect width="40" height="40" fill="currentColor" rx="20"/>
  <path fill="#fff" d="M25.845 9h-2.749a.46.46 0 0 0-.399.234l-1.823 3.244 1.65 2.937h.494l3.226-5.732a.46.46 0 0 0-.005-.458.44.44 0 0 0-.394-.225m-8.18 0h-2.75a.45.45 0 0 0-.394.225.47.47 0 0 0-.005.458l3.226 5.732h3.8l-3.479-6.181A.45.45 0 0 0 17.665 9m5.958 10.031v-2.24a.46.46 0 0 0-.458-.459h-5.5a.46.46 0 0 0-.457.458v2.246A6.41 6.41 0 0 0 14 24.585 6.42 6.42 0 0 0 20.415 31a6.42 6.42 0 0 0 6.416-6.415 6.42 6.42 0 0 0-3.208-5.554m-.917-.435a6.4 6.4 0 0 0-2.29-.431c-.807 0-1.577.156-2.292.43V17.25h4.583z"/>
</svg>
