<svg xmlns="http://www.w3.org/2000/svg" fill="none" viewBox="0 0 40 40">
  <rect width="40" height="40" fill="currentColor" rx="20"/>
  <path fill="#fff" d="M20 9C13.933 9 9 13.933 9 20s4.933 11 11 11 11-4.933 11-11S26.067 9 20 9m5.141 10.328-1.83 1.552a.75.75 0 0 0-.254.764l.556 2.34c.162.67-.58 1.203-1.158.856l-2.038-1.25a.74.74 0 0 0-.81 0l-2.039 1.25c-.602.37-1.32-.162-1.158-.857l.556-2.339a.75.75 0 0 0-.254-.764l-1.83-1.552c-.532-.463-.255-1.32.44-1.366l2.385-.185a.73.73 0 0 0 .649-.486l.926-2.224c.278-.648 1.181-.648 1.436 0l.926 2.224c.116.277.37.463.649.486l2.385.185c.718.046.996.926.463 1.366"/>
</svg>
