<svg xmlns="http://www.w3.org/2000/svg" fill="none" class="mdl-js" viewBox="0 0 41 41">
  <script/>
  <rect width="40.237" height="40.237" x=".006" fill="#15253E" rx="10.833"/>
  <path fill="#fff" d="M21.14 14.416a1.111 1.111 0 1 1-2.224 0 1.111 1.111 0 0 1 2.223 0"/>
  <path fill="#fff" fill-rule="evenodd" d="M23.286 9.667c-1.41-2.572-5.106-2.572-6.517 0L14.776 13.3c-.34.62-.85 1.13-1.47 1.47l-3.633 1.993c-2.572 1.411-2.572 5.106 0 6.517l3.633 1.993c.62.34 1.13.851 1.47 1.471l1.993 3.633c1.411 2.572 5.106 2.572 6.517 0l1.993-3.633c.34-.62.85-1.13 1.471-1.47l3.633-1.994c2.572-1.41 2.572-5.106 0-6.517L26.75 14.77c-.62-.34-1.13-.85-1.47-1.47zm-1.493 2.675c-.609-1.645-2.935-1.645-3.543 0l-1.295 3.498a1.9 1.9 0 0 1-1.116 1.116l-3.498 1.294c-1.644.609-1.644 2.935 0 3.543l3.498 1.295c.517.191.925.599 1.116 1.116l1.295 3.498c.608 1.645 2.934 1.645 3.543 0l1.294-3.498a1.9 1.9 0 0 1 1.116-1.116l3.498-1.295c1.645-.608 1.645-2.934 0-3.543l-3.498-1.294a1.9 1.9 0 0 1-1.116-1.116z" clip-rule="evenodd"/>
  <script/>
</svg>
